<?xml version="1.0" encoding="utf-8"?>
<!-- Generator: Adobe Illustrator 27.0.0, SVG Export Plug-In . SVG Version: 6.00 Build 0)  -->
<svg version="1.1" id="Layer_1" xmlns="http://www.w3.org/2000/svg" xmlns:xlink="http://www.w3.org/1999/xlink" x="0px" y="0px"
	 viewBox="0 0 30 30" style="enable-background:new 0 0 30 30;" xml:space="preserve">
<style type="text/css">
	.st0{fill:#FF5E00;}
</style>
<g>
	<path class="st0" d="M23.2,30H6.8c-1,0-1.9-0.8-1.9-1.9V1.9C5,0.8,5.8,0,6.8,0h16.3c1,0,1.9,0.8,1.9,1.9v26.2
		C25,29.2,24.2,30,23.2,30z M6.8,1.2c-0.4,0-0.7,0.3-0.7,0.7v26.2c0,0.4,0.3,0.7,0.7,0.7h16.3c0.4,0,0.7-0.3,0.7-0.7V1.9
		c0-0.4-0.3-0.7-0.7-0.7H6.8z"/>
	<path class="st0" d="M20.6,23.6H9.4c-1.2,0-2.1-0.9-2.1-2.1V4.6c0-1.2,0.9-2.1,2.1-2.1h11.1c1.2,0,2.1,0.9,2.1,2.1v16.9
		C22.6,22.6,21.7,23.6,20.6,23.6z M9.4,3.7C9,3.7,8.6,4.1,8.6,4.6v16.9c0,0.5,0.4,0.9,0.9,0.9h11.1c0.5,0,0.9-0.4,0.9-0.9V4.6
		c0-0.5-0.4-0.9-0.9-0.9H9.4z"/>
	<path class="st0" d="M16,25.1c0.5,0.5,0.5,1.4,0,2c-0.5,0.5-1.4,0.5-2,0c-0.5-0.5-0.5-1.4,0-1.9C14.6,24.6,15.4,24.6,16,25.1z"/>
	<g>
		<g>
			<path class="st0" d="M11.1,17.3L11,18.2c0.3-0.1,0.7-0.2,1.1-0.2c0.6,0,1.1,0.2,1.5,0.5c0.4,0.3,0.5,0.7,0.5,1.3
				c0,0.6-0.2,1.1-0.6,1.4c-0.4,0.3-1,0.5-1.7,0.5c-0.7,0-1.3-0.1-1.7-0.4c-0.4-0.3-0.6-0.7-0.7-1.3H11c0,0.2,0.1,0.3,0.3,0.4
				c0.1,0.1,0.3,0.1,0.6,0.1c0.3,0,0.5-0.1,0.6-0.2c0.1-0.1,0.2-0.3,0.2-0.5c0-0.5-0.3-0.7-0.8-0.7c-0.2,0-0.4,0-0.5,0.1
				c-0.1,0-0.3,0.1-0.4,0.2H9.6l0.3-3.2h3.9v1.2H11.1z"/>
			<path class="st0" d="M19.1,19.7h-1.2v-1.1h2.6v2.4c-0.3,0.2-0.7,0.4-1.2,0.5c-0.4,0.1-0.9,0.2-1.4,0.2c-1,0-1.8-0.2-2.4-0.7
				c-0.6-0.5-0.8-1.1-0.8-2c0-0.6,0.1-1,0.4-1.5c0.2-0.4,0.6-0.7,1-1c0.5-0.2,1-0.3,1.6-0.3c0.7,0,1.3,0.1,1.8,0.4
				c0.5,0.3,0.8,0.7,0.9,1.2L18.9,18c-0.1-0.2-0.2-0.4-0.4-0.5c-0.2-0.1-0.4-0.1-0.8-0.1c-0.5,0-0.8,0.1-1.1,0.4
				c-0.2,0.3-0.4,0.6-0.4,1.1c0,0.5,0.1,0.9,0.4,1.2c0.3,0.3,0.7,0.4,1.3,0.4c0.5,0,0.8-0.1,1.2-0.2V19.7z"/>
		</g>
	</g>
</g>
</svg>
