<svg xmlns="http://www.w3.org/2000/svg" width="80" height="80" viewBox="0 0 80 80"><title>icon</title><path d="M42.35,9.12H34.12a1.47,1.47,0,0,0,0,2.94h8.24a1.47,1.47,0,1,0,0-2.94Zm-14.12,0a1.47,1.47,0,1,0,1.47,1.47A1.47,1.47,0,0,0,28.24,9.12ZM64.27,43,55.59,26.69V10.59a6.19,6.19,0,0,0-6.18-6.18H21.18A6.19,6.19,0,0,0,15,10.58V69.42a6.19,6.19,0,0,0,6.18,6.17H63.52A1.48,1.48,0,0,0,65,74.11V45.88A6.22,6.22,0,0,0,64.27,43ZM17.94,10.59a3.25,3.25,0,0,1,3.24-3.24H49.41a3.24,3.24,0,0,1,3.24,3.24v3.24H17.94Zm0,6.18H52.65V53.82H51.34l-6.41-8.87a6.17,6.17,0,0,0-9.8-.54H31.81A1.5,1.5,0,0,0,30.3,45.7a1.47,1.47,0,0,0,1.46,1.65h2a6.14,6.14,0,0,0-.06,1.76H31.81a1.5,1.5,0,0,0-1.51,1.29,1.47,1.47,0,0,0,1.46,1.65h3.06l6,8.82H17.94Zm3.24,55.88a3.24,3.24,0,0,1-3.24-3.24V63.82h24.2A13.21,13.21,0,0,0,47,72.65Zm40.88,0H55.29A10.31,10.31,0,0,1,45,62.6a1.46,1.46,0,0,0-.23-1.07L37.14,50.24a3.24,3.24,0,1,1,5.36-3.62l6.89,9.54a1.47,1.47,0,0,0,1.19.61h3.52a1.48,1.48,0,0,0,1.48-1.48V32.94l6.09,11.42a3.26,3.26,0,0,1,.38,1.52Zm-35-23.53a1.47,1.47,0,1,0,1.47,1.47A1.47,1.47,0,0,0,27.06,49.12Zm8.24,15.29h0a3.82,3.82,0,1,0,3.82,3.82A3.81,3.81,0,0,0,35.29,64.41Zm0,4.71a.88.88,0,1,1,.88-.88A.88.88,0,0,1,35.29,69.12ZM27.06,44.41a1.47,1.47,0,1,0,1.47,1.47A1.47,1.47,0,0,0,27.06,44.41Z" fill="#f2662c"/></svg>