<svg xmlns="http://www.w3.org/2000/svg" xmlns:xlink="http://www.w3.org/1999/xlink" width="30" height="30" viewBox="0 0 30 30">
  <defs>
    <clipPath id="clip-path">
      <rect id="Rectangle_52011" data-name="Rectangle 52011" width="28.398" height="13.713" fill="#1800e1" stroke="#1800e7" stroke-width="0.1"/>
    </clipPath>
    <clipPath id="clip-icon-inc-unlimited-broadband">
      <rect width="30" height="30"/>
    </clipPath>
  </defs>
  <g id="icon-inc-unlimited-broadband" clip-path="url(#clip-icon-inc-unlimited-broadband)">
    <g id="Group_134801" data-name="Group 134801" transform="translate(1 8.362)">
      <g id="Group_123811" data-name="Group 123811" clip-path="url(#clip-path)">
        <path id="Path_108252" data-name="Path 108252" d="M0,6.856A6.823,6.823,0,0,1,7.385.025a6.661,6.661,0,0,1,5.592,3.816,1.153,1.153,0,0,1,.1.63A.649.649,0,0,1,12.473,5a.734.734,0,0,1-.712-.389,9.031,9.031,0,0,0-.944-1.4A5.14,5.14,0,0,0,5.221,1.7,5.177,5.177,0,0,0,1.482,6.144,5.375,5.375,0,0,0,6.046,12.2a5.757,5.757,0,0,0,5.812-2.633,33.943,33.943,0,0,0,1.772-3.148,22.084,22.084,0,0,1,2.117-3.576A7.228,7.228,0,0,1,22.032.016,6.851,6.851,0,1,1,15.418,9.85.73.73,0,0,1,15.7,8.835a.713.713,0,0,1,1,.374,5.465,5.465,0,0,0,2.513,2.511A5.414,5.414,0,1,0,20.27,1.581a6.025,6.025,0,0,0-4.034,3.063c-.67,1.147-1.254,2.345-1.871,3.523a13.3,13.3,0,0,1-2.415,3.509A7.056,7.056,0,0,1,.7,9.877,6.558,6.558,0,0,1,0,6.856" transform="translate(0 0.001)" fill="#1800e1" stroke="#1800e7" stroke-width="0.1"/>
      </g>
    </g>
  </g>
</svg>
