<svg xmlns="http://www.w3.org/2000/svg" width="80.571" height="80.571" viewBox="0 0 80.571 80.571">
  <g id="Group_14" data-name="Group 14" transform="translate(-444 -1688.457)">
    <g id="Group_74944" data-name="Group 74944" transform="translate(468.471 1709.219)">
      <g id="Group_3168" data-name="Group 3168" transform="translate(0 0)">
        <path id="Path_405" data-name="Path 405" d="M90,161.882a1.983,1.983,0,1,1-1.981-1.984A1.987,1.987,0,0,1,90,161.882" transform="translate(-77.961 -153.132)" fill="#fff"/>
        <path id="Path_406" data-name="Path 406" d="M114.978,161.882a1.992,1.992,0,1,1-3.984,0,1.992,1.992,0,0,1,3.984,0" transform="translate(-91.958 -153.132)" fill="#fff"/>
        <path id="Path_407" data-name="Path 407" d="M90.682,166.6a3.4,3.4,0,0,0,.307,1.226,1.473,1.473,0,0,0,1.489.862c3,0,3.755-5.491,3.755-8.39v.024a12.757,12.757,0,1,0-12.757,12.749,12.547,12.547,0,0,0,2.62-.28,1.782,1.782,0,0,1,1.869.845,1.734,1.734,0,0,1,.314.977,1.144,1.144,0,0,1-.909,1.078,19.3,19.3,0,0,1-3.895.452A15.822,15.822,0,1,1,99.29,160.319v-.024c0,5.235-1.831,11.35-6.812,11.35a4.427,4.427,0,0,1-4.237-2.71l-.007-.007a7.571,7.571,0,0,1-5.046,1.949,7.129,7.129,0,0,1-7.322-7.113v-4.924a1.8,1.8,0,1,1,3.607,0v4.728a3.7,3.7,0,0,0,3.715,3.99,3.788,3.788,0,0,0,3.686-3.99v-4.728a1.8,1.8,0,1,1,3.6,0v4.5c0,.63.026,1.26.067,1.895.053.506.1,1.02.138,1.375" transform="translate(-67.662 -144.496)" fill="#fff"/>
      </g>
    </g>
    <g id="Group_74946" data-name="Group 74946" transform="translate(444 1688.457)">
      <path id="Path_53939" data-name="Path 53939" d="M595.624,253.039A22.489,22.489,0,0,0,573.212,271.9a21.777,21.777,0,0,0,5.607,17.659,22.343,22.343,0,0,1,5.953,15.259l-.016,8.912a6.58,6.58,0,0,0,6.659,6.511H600a6.58,6.58,0,0,0,6.659-6.511l.017-8.912a21.057,21.057,0,0,1,5.607-14.914,21.182,21.182,0,0,0,6.133-14.913c-.016-12.184-10.359-21.952-22.79-21.952Zm7.7,60.691a3.113,3.113,0,0,1-3.158,3.091h-8.583a3.1,3.1,0,0,1-3.157-3.091v-3.946H603.3v3.946Zm6.511-26.227a24.387,24.387,0,0,0-6.66,17.315v1.546H588.29v-1.546a26.364,26.364,0,0,0-7.005-17.479,18.1,18.1,0,0,1-4.735-14.914,19.327,19.327,0,0,1,19.09-15.949c10.688,0,19.272,8.4,19.272,18.514a17.917,17.917,0,0,1-5.081,12.513Zm0,0" transform="translate(-555.338 -239.671)" fill="#fff"/>
      <rect id="Rectangle_24575" data-name="Rectangle 24575" width="3.502" height="8.222" rx="1.751" transform="translate(38.527 0)" fill="#fff"/>
      <g id="Group_74945" data-name="Group 74945" transform="translate(61.514 10.765)">
        <path id="Path_53940" data-name="Path 53940" d="M787.518,246.7l.021.021a1.718,1.718,0,0,0,2.406.023l3.52-3.385a1.718,1.718,0,0,0,.02-2.457l-.026-.026a1.718,1.718,0,0,0-2.4-.018l-3.515,3.39A1.718,1.718,0,0,0,787.518,246.7Zm-1.237-1.237" transform="translate(-786.281 -240.377)" fill="#fff"/>
        <rect id="Rectangle_24576" data-name="Rectangle 24576" width="8.584" height="3.436" rx="1.718" transform="translate(10.474 26.264)" fill="#fff"/>
      </g>
      <rect id="Rectangle_24577" data-name="Rectangle 24577" width="8.584" height="3.436" rx="1.718" transform="translate(0 37.03)" fill="#fff"/>
      <path id="Path_53941" data-name="Path 53941" d="M542.414,240.8l-.026.026a1.718,1.718,0,0,0,.02,2.457l3.52,3.385a1.718,1.718,0,0,0,2.406-.024l.021-.021a1.718,1.718,0,0,0-.023-2.451l-3.515-3.39A1.718,1.718,0,0,0,542.414,240.8Z" transform="translate(-530.601 -229.549)" fill="#fff"/>
    </g>
  </g>
</svg>
