<?xml version="1.0" encoding="utf-8"?>
<!-- Generator: Adobe Illustrator 26.0.2, SVG Export Plug-In . SVG Version: 6.00 Build 0)  -->
<svg version="1.1" id="Layer_1" xmlns="http://www.w3.org/2000/svg" xmlns:xlink="http://www.w3.org/1999/xlink" x="0px" y="0px"
	 viewBox="0 0 50 50" style="enable-background:new 0 0 50 50;" xml:space="preserve">
<style type="text/css">
	.st0{fill:#F7EEEA;}
	.st1{fill:none;stroke:url(#SVGID_1_);stroke-width:1.5;stroke-linecap:round;stroke-linejoin:round;stroke-miterlimit:10;}
	
		.st2{fill:none;stroke:url(#SVGID_00000121260167664948603430000005813697869368952976_);stroke-width:1.5;stroke-linecap:round;stroke-linejoin:round;stroke-miterlimit:10;}
	
		.st3{fill:none;stroke:url(#SVGID_00000025414631607869243930000004846599344792909723_);stroke-width:1.5;stroke-linecap:round;stroke-miterlimit:10;}
	
		.st4{fill:none;stroke:url(#SVGID_00000034802847047604617980000013753827317822004650_);stroke-width:1.5;stroke-linecap:round;stroke-miterlimit:10;}
	
		.st5{fill:none;stroke:url(#SVGID_00000095298704999249112190000003740554115945877942_);stroke-width:1.5;stroke-linecap:round;stroke-miterlimit:10;}
	.st6{fill:none;stroke:#07509F;stroke-width:1.5;stroke-linecap:round;stroke-linejoin:round;stroke-miterlimit:10;}
</style>
<circle class="st0" cx="25" cy="25" r="25"/>
<g>
	<g>
		
			<linearGradient id="SVGID_1_" gradientUnits="userSpaceOnUse" x1="-6723.0859" y1="-10761.6875" x2="-6705.3521" y2="-10761.6875" gradientTransform="matrix(-0.5155 -0.8569 0.8569 -0.5155 5778.0347 -11273.1797)">
			<stop  offset="0" style="stop-color:#FC7E37"/>
			<stop  offset="1" style="stop-color:#FD3D4D"/>
		</linearGradient>
		<path class="st1" d="M19.9,17.3c-0.3,0.1-0.5,0.4-0.6,0.7L12.3,31c-0.6,1.1,0.2,2.5,1.5,2.5l10.8-0.1"/>
		
			<linearGradient id="SVGID_00000093151184876332762250000006983634404426363324_" gradientUnits="userSpaceOnUse" x1="6141.811" y1="-3772.6252" x2="6161.9619" y2="-3772.6252" gradientTransform="matrix(0.5155 0.8569 -0.8569 0.5155 -6379.3667 -3301.3201)">
			<stop  offset="0" style="stop-color:#FC7E37"/>
			<stop  offset="1" style="stop-color:#FD3D4D"/>
		</linearGradient>
		
			<path style="fill:none;stroke:url(#SVGID_00000093151184876332762250000006983634404426363324_);stroke-width:1.5;stroke-linecap:round;stroke-linejoin:round;stroke-miterlimit:10;" d="
			M29.5,33.2c1.6-1,0.8-5.4-1.8-9.8c-2.7-4.4-6.1-7.2-7.8-6.2c-1.6,1-0.8,5.4,1.8,9.8C24.4,31.4,27.9,34.2,29.5,33.2z"/>
	</g>
	
		<linearGradient id="SVGID_00000085215638259049278560000001362061512205528491_" gradientUnits="userSpaceOnUse" x1="22.0612" y1="13.6552" x2="27.4123" y2="13.6552">
		<stop  offset="0" style="stop-color:#FC7E37"/>
		<stop  offset="1" style="stop-color:#FD3D4D"/>
	</linearGradient>
	
		<circle style="fill:none;stroke:url(#SVGID_00000085215638259049278560000001362061512205528491_);stroke-width:1.5;stroke-linecap:round;stroke-miterlimit:10;" cx="24.7" cy="13.7" r="1.9"/>
	
		<linearGradient id="SVGID_00000133489784662526440860000003684792559776514740_" gradientUnits="userSpaceOnUse" x1="31.9702" y1="32.8718" x2="37.3213" y2="32.8718">
		<stop  offset="0" style="stop-color:#FC7E37"/>
		<stop  offset="1" style="stop-color:#FD3D4D"/>
	</linearGradient>
	
		<circle style="fill:none;stroke:url(#SVGID_00000133489784662526440860000003684792559776514740_);stroke-width:1.5;stroke-linecap:round;stroke-miterlimit:10;" cx="34.6" cy="32.9" r="1.9"/>
	
		<linearGradient id="SVGID_00000101806102608089587170000015746214734155529863_" gradientUnits="userSpaceOnUse" x1="-1230.8795" y1="-19.02" x2="-1221.7535" y2="-19.02" gradientTransform="matrix(0.9852 -0.1716 0.1716 0.9852 1246.0435 -174.3871)">
		<stop  offset="0" style="stop-color:#FC7E37"/>
		<stop  offset="1" style="stop-color:#FD3D4D"/>
	</linearGradient>
	
		<path style="fill:none;stroke:url(#SVGID_00000101806102608089587170000015746214734155529863_);stroke-width:1.5;stroke-linecap:round;stroke-miterlimit:10;" d="
		M34.3,13.8l1.3,1.7c0.1,0.1,0.2,0.1,0.3,0.1l2.1-0.1c0.3,0,0.4,0.3,0.3,0.5L37,17.8c-0.1,0.1-0.1,0.2,0,0.3l0.7,2
		c0.1,0.2-0.1,0.5-0.4,0.4l-2-0.7c-0.1,0-0.2,0-0.3,0l-1.7,1.3c-0.2,0.2-0.5,0-0.5-0.2l0-2.1c0-0.1,0-0.2-0.1-0.2l-1.8-1.2
		c-0.2-0.1-0.2-0.5,0.1-0.5l2-0.7c0.1,0,0.2-0.1,0.2-0.2l0.6-2C33.9,13.6,34.2,13.6,34.3,13.8z"/>
	<path class="st6" d="M23.5,23.1c0,0,2.5-1.1,4.1-3.9"/>
	<path class="st6" d="M25.7,27.8c0,0,6.8-2.6,11.4-0.9"/>
</g>
</svg>
