<svg xmlns="http://www.w3.org/2000/svg" xmlns:xlink="http://www.w3.org/1999/xlink" width="30" height="30" viewBox="0 0 30 30">
  <defs>
    <clipPath id="clip-path">
      <rect id="Rectangle_56790" data-name="Rectangle 56790" width="21.238" height="26.571" transform="translate(0 0.001)" fill="none"/>
    </clipPath>
    <clipPath id="clip-icon-inc-wifi-6-mesh">
      <rect width="30" height="30"/>
    </clipPath>
  </defs>
  <g id="icon-inc-wifi-6-mesh" clip-path="url(#clip-icon-inc-wifi-6-mesh)">
    <g id="Group_134862" data-name="Group 134862" transform="translate(5.179 2.637)">
      <g id="Group_134617" data-name="Group 134617" clip-path="url(#clip-path)">
        <path id="Path_113609" data-name="Path 113609" d="M19.469,7.222c0,1.843-4.005,3.337-8.946,3.337S1.576,9.065,1.576,7.222" fill="none" stroke="#1800e1" stroke-linecap="round" stroke-linejoin="round" stroke-width="1.5"/>
        <path id="Path_113610" data-name="Path 113610" d="M19.469,22.581c0,1.844-4.008,3.337-8.946,3.337s-8.946-1.493-8.946-3.337" fill="none" stroke="#1800e1" stroke-linecap="round" stroke-linejoin="round" stroke-width="1.5"/>
        <line id="Line_3946" data-name="Line 3946" y1="14.68" transform="translate(1.509 7.616)" fill="none" stroke="#1800e1" stroke-linecap="round" stroke-linejoin="round" stroke-width="1.5"/>
        <line id="Line_3947" data-name="Line 3947" y1="11.344" transform="translate(19.544 10.952)" fill="none" stroke="#1800e1" stroke-linecap="round" stroke-linejoin="round" stroke-width="1.5"/>
        <path id="Path_113611" data-name="Path 113611" d="M8.159,18.8a3,3,0,0,1,4.821.058" fill="none" stroke="#1800e1" stroke-linecap="round" stroke-linejoin="round" stroke-width="1.5"/>
        <path id="Path_113612" data-name="Path 113612" d="M6.07,17.122a5.391,5.391,0,0,1,8.9-.076" fill="none" stroke="#1800e1" stroke-linecap="round" stroke-linejoin="round" stroke-width="1.5"/>
        <circle id="Ellipse_336" data-name="Ellipse 336" cx="0.7" cy="0.7" r="0.7" transform="translate(9.918 20.351)" fill="#1800e1"/>
        <circle id="Ellipse_337" data-name="Ellipse 337" cx="0.7" cy="0.7" r="0.7" transform="translate(9.918 20.351)" fill="none" stroke="#1800e1" stroke-miterlimit="10" stroke-width="1"/>
        <path id="Path_113613" data-name="Path 113613" d="M.512,4.882A.29.29,0,0,1,.218,4.6V.683a.408.408,0,0,1,.124-.3.4.4,0,0,1,.3-.131H.859A.384.384,0,0,1,1.094.33a.469.469,0,0,1,.163.2l1.485,3.7L4.227.526a.5.5,0,0,1,.157-.2A.41.41,0,0,1,4.626.251h.215a.4.4,0,0,1,.3.131.413.413,0,0,1,.125.3v3.9a.292.292,0,0,1-.284.3H4.968A.307.307,0,0,1,4.753,4.8a.284.284,0,0,1-.085-.21V.869L3.161,4.607a.45.45,0,0,1-.419.275.483.483,0,0,1-.256-.072.462.462,0,0,1-.163-.2L.813.869V4.587A.273.273,0,0,1,.721,4.8a.284.284,0,0,1-.209.085M7.7,4.848a.29.29,0,0,1-.3-.285V.584A.284.284,0,0,1,7.491.375.272.272,0,0,1,7.7.283h2.622a.254.254,0,0,1,.2.085.254.254,0,0,1,.085.2.254.254,0,0,1-.085.2.267.267,0,0,1-.2.078H8V2.285h2.086a.291.291,0,0,1,.28.284.254.254,0,0,1-.085.2.267.267,0,0,1-.2.078H8V4.293h2.321a.277.277,0,0,1,.2.477.267.267,0,0,1-.2.078Zm6.187.065A3.877,3.877,0,0,1,12.331,4.6a.294.294,0,0,1-.131-.1.289.289,0,0,1-.052-.163.269.269,0,0,1,.072-.19.254.254,0,0,1,.2-.085.3.3,0,0,1,.125.026,3.122,3.122,0,0,0,1.288.268q1.144,0,1.145-.752a.417.417,0,0,0-.151-.327.993.993,0,0,0-.359-.2q-.216-.078-.615-.183A8.553,8.553,0,0,1,13,2.631a1.523,1.523,0,0,1-.562-.385.966.966,0,0,1-.235-.68,1.2,1.2,0,0,1,.2-.674A1.323,1.323,0,0,1,12.968.4a2.141,2.141,0,0,1,.92-.183,3.713,3.713,0,0,1,1.3.216.255.255,0,0,1,.18.262A.285.285,0,0,1,15.3.885a.239.239,0,0,1-.19.085.314.314,0,0,1-.1-.026A3.2,3.2,0,0,0,13.953.769a1.625,1.625,0,0,0-.844.2.612.612,0,0,0-.32.549.524.524,0,0,0,.15.386,1.17,1.17,0,0,0,.386.228q.236.078.634.17a6.349,6.349,0,0,1,.831.249,1.341,1.341,0,0,1,.542.386,1.032,1.032,0,0,1,.229.706,1.114,1.114,0,0,1-.209.66,1.388,1.388,0,0,1-.589.452,2.192,2.192,0,0,1-.876.163m3.758-.032a.29.29,0,0,1-.294-.286V.552a.284.284,0,0,1,.085-.209.285.285,0,0,1,.4-.016l.016.016a.273.273,0,0,1,.092.209v1.74h2.479V.552a.284.284,0,0,1,.085-.209.285.285,0,0,1,.4-.016l.016.016a.273.273,0,0,1,.092.209V4.587a.273.273,0,0,1-.092.209.294.294,0,0,1-.5-.209V2.847H17.946v1.74a.273.273,0,0,1-.092.209.284.284,0,0,1-.209.085" fill="#1800e1"/>
        <path id="Path_113614" data-name="Path 113614" d="M.3,4.8l.154-.154ZM.343.382.5.536ZM1.094.33.964.5h0Zm.164.2.2-.081V.442Zm1.484,3.7-.2.081.2.5.2-.5ZM4.228.526l-.2-.088V.445Zm.157-.2L4.258.152Zm.759.052-.16.155ZM5.182,4.8l.154.154Zm-.426,0-.156.15.006,0ZM4.672.873H4.89L4.47.791ZM3.161,4.607l.2.085Zm-.17.2.119.183Zm-.5,0-.126.178h.011Zm-.164-.2-.2.082ZM.814.873l.2-.082L.6.873ZM.722,4.8l-.149-.16,0,.006ZM.513,4.664a.066.066,0,0,1-.055-.021l-.309.308a.5.5,0,0,0,.364.15ZM.458,4.643a.064.064,0,0,1-.022-.055H0a.5.5,0,0,0,.149.364ZM.436.683H0v3.9H.436Zm0,0A.191.191,0,0,1,.5.536L.188.229A.624.624,0,0,0,0,.683ZM.5.532A.184.184,0,0,1,.644.469V.033a.621.621,0,0,0-.46.2ZM.644.469H.859V.033H.644Zm.215,0A.164.164,0,0,1,.964.5L1.225.155A.6.6,0,0,0,.859.033Zm.11.039a.244.244,0,0,1,.09.106l.4-.177A.682.682,0,0,0,1.22.152Zm.087.1,1.484,3.7.4-.162L1.461.445Zm1.889,3.7L4.43.607,4.03.445l-1.49,3.7ZM4.426.615A.277.277,0,0,1,4.515.5L4.254.155a.71.71,0,0,0-.226.283ZM4.51.509a.188.188,0,0,1,.116-.04V.033a.628.628,0,0,0-.367.119Zm.116-.04h.215V.033H4.626Zm.216,0a.183.183,0,0,1,.142.063L5.3.232a.621.621,0,0,0-.459-.2Zm.146.067a.192.192,0,0,1,.06.146h.436A.625.625,0,0,0,5.3.229Zm.06,4.051h.436V.683H5.049Zm0,0a.066.066,0,0,1-.021.055l.309.309a.5.5,0,0,0,.148-.364Zm-.021.055a.066.066,0,0,1-.055.021V5.1a.5.5,0,0,0,.364-.148Zm-.055.021A.091.091,0,0,1,4.9,4.637l-.3.319a.526.526,0,0,0,.365.143ZM4.91,4.642a.066.066,0,0,1-.021-.055H4.454a.5.5,0,0,0,.146.364ZM4.89.873H4.454V4.588H4.89ZM4.47.791,2.959,4.526l.4.163L4.874.955ZM2.96,4.522a.227.227,0,0,1-.09.106l.242.363a.665.665,0,0,0,.25-.3Zm-.088.1a.231.231,0,0,1-.13.037V5.1a.671.671,0,0,0,.367-.106Zm-.13.037A.261.261,0,0,1,2.6,4.624l-.228.371a.694.694,0,0,0,.369.1Zm-.129-.031a.25.25,0,0,1-.088-.11l-.4.169a.676.676,0,0,0,.239.3Zm-.087-.106L1.015.791l-.4.164,1.51,3.734ZM.6,4.588h.436V.873H.6Zm0,0a.06.06,0,0,1-.022.05l.3.319a.494.494,0,0,0,.161-.369Zm-.028.055a.066.066,0,0,1-.055.021V5.1a.5.5,0,0,0,.359-.15ZM7.5,4.764,7.65,4.61ZM7.5.376,7.65.53l0-.006ZM10.52.369l-.16.148.006.006.006.006Zm0,.392L10.372.6l-.006.006ZM8,.622H7.784V.84H8ZM8,2.286H7.784V2.5H8Zm2.283.085-.16.148.006.006.006.006Zm0,.392-.148-.16-.006.005ZM8,2.623H7.784v.218H8Zm0,1.67H7.784v.218H8Zm2.518.085-.16.147.006.007.006.005Zm0,.392-.148-.16-.006.006ZM7.7,4.631a.067.067,0,0,1-.055-.022l-.308.309a.5.5,0,0,0,.363.149Zm-.055-.022a.066.066,0,0,1-.021-.055H7.189a.5.5,0,0,0,.149.364ZM7.625.585H7.189v3.97h.436Zm0,0A.066.066,0,0,1,7.646.53L7.338.222a.5.5,0,0,0-.149.364ZM7.652.524A.056.056,0,0,1,7.7.5V.066a.489.489,0,0,0-.369.161ZM7.7.5h2.623V.066H7.7Zm2.623,0a.038.038,0,0,1,.036.015l.321-.3a.479.479,0,0,0-.357-.155Zm.048.027a.038.038,0,0,1,.015.036h.436a.47.47,0,0,0-.155-.356Zm.015.036A.04.04,0,0,1,10.372.6l.3.32a.47.47,0,0,0,.155-.357Zm-.021.042a.047.047,0,0,1-.042.015v.436a.486.486,0,0,0,.351-.142Zm-.042.015H8v.436h2.322ZM7.784,2.286H8.22V.84H7.784ZM8,2.5h2.087V2.068H8Zm2.087,0a.038.038,0,0,1,.036.015l.321-.3a.474.474,0,0,0-.357-.155Zm.048.027a.038.038,0,0,1,.015.036h.436a.47.47,0,0,0-.155-.356Zm.015.036a.041.041,0,0,1-.015.037l.3.32a.47.47,0,0,0,.155-.357Zm-.021.042a.047.047,0,0,1-.042.015v.436a.486.486,0,0,0,.351-.142Zm-.042.015H8v.436h2.087Zm-2.3,1.67H8.22V2.841H7.784ZM8,4.511h2.322V4.075H8Zm2.322,0a.041.041,0,0,1,.036.015l.321-.3a.479.479,0,0,0-.357-.155Zm.048.027a.041.041,0,0,1,.015.037h.436a.47.47,0,0,0-.155-.357Zm.015.037a.038.038,0,0,1-.015.036l.3.321a.474.474,0,0,0,.155-.357Zm-.021.042a.05.05,0,0,1-.042.015v.436a.486.486,0,0,0,.351-.142Zm-.042.015H7.7v.436h2.622Zm2.01-.031.086-.2ZM12.2,4.5l-.182.121.005.007Zm.019-.353L12.059,4Zm.321-.059.088-.2Zm2.282-.811-.146.161Zm-.359-.2-.075.2h.006Zm-.615-.183.055-.211Zm-.857-.262-.081.2Zm-.562-.386-.16.148ZM12.39.886,12.574,1ZM12.966.4l.092.2ZM15.19.434l-.076.2Zm.11.452.166.14Zm-.3.058.081-.2h-.01Zm-1.9.02L13,.777Zm-.17.935-.154.154.007.007Zm.386.229-.077.2h.008Zm.634.17.051-.212Zm.831.249-.08.2Zm.542.385-.166.141Zm.02,1.367.176.128Zm-.589.451.086.2Zm-.87-.049a3.662,3.662,0,0,1-1.47-.3l-.174.4a4.092,4.092,0,0,0,1.644.332Zm-1.473-.3a.1.1,0,0,1-.038-.031l-.353.256a.532.532,0,0,0,.223.178Zm-.033-.024a.073.073,0,0,1-.016-.043h-.436a.5.5,0,0,0,.089.285Zm-.016-.043a.058.058,0,0,1,.014-.042L12.06,4a.488.488,0,0,0-.129.337Zm.014-.042a.041.041,0,0,1,.036-.015V3.84a.479.479,0,0,0-.357.155Zm.036-.015a.076.076,0,0,1,.036.008l.177-.4a.506.506,0,0,0-.213-.045Zm.036.008a3.35,3.35,0,0,0,1.377.287V4.134a2.917,2.917,0,0,1-1.2-.249Zm1.377.287a1.793,1.793,0,0,0,.978-.224.847.847,0,0,0,.385-.746h-.436a.412.412,0,0,1-.188.382,1.373,1.373,0,0,1-.739.153ZM15.192,3.6a.632.632,0,0,0-.226-.491l-.286.329a.2.2,0,0,1,.076.162Zm-.222-.49a1.2,1.2,0,0,0-.437-.248l-.138.413a.784.784,0,0,1,.282.157Zm-.432-.246c-.153-.056-.365-.119-.634-.189l-.111.422c.264.069.461.128.6.177ZM13.9,2.676a8.1,8.1,0,0,1-.834-.255l-.155.408a8.672,8.672,0,0,0,.88.269Zm-.83-.253a1.32,1.32,0,0,1-.483-.331l-.321.3a1.755,1.755,0,0,0,.642.44Zm-.483-.331a.751.751,0,0,1-.178-.533h-.436a1.186,1.186,0,0,0,.293.828Zm-.178-.533A1,1,0,0,1,12.573,1L12.208.767a1.424,1.424,0,0,0-.232.793ZM12.574,1a1.105,1.105,0,0,1,.484-.4L12.874.2a1.553,1.553,0,0,0-.668.564Zm.485-.4a1.921,1.921,0,0,1,.829-.162V0a2.339,2.339,0,0,0-1.016.2Zm.829-.162a3.5,3.5,0,0,1,1.225.2L15.265.23A3.93,3.93,0,0,0,13.889,0Zm1.228.2a.084.084,0,0,1,.027.013h.005V.66a.081.081,0,0,1,0,.031h.436A.5.5,0,0,0,15.5.4a.479.479,0,0,0-.242-.178Zm.038.056a.07.07,0,0,1-.02.049l.332.282A.5.5,0,0,0,15.59.7Zm-.02.049-.005,0h-.017v.436a.452.452,0,0,0,.356-.162ZM15.11.752h.007a.16.16,0,0,1-.031-.01l-.162.4a.5.5,0,0,0,.186.042ZM15.078.739A3.436,3.436,0,0,0,13.954.55V.986a2.95,2.95,0,0,1,.981.165ZM13.954.55A1.846,1.846,0,0,0,13,.777l.225.374a1.393,1.393,0,0,1,.732-.165ZM13,.779a.826.826,0,0,0-.425.735h.436a.4.4,0,0,1,.216-.364Zm-.425.735a.74.74,0,0,0,.214.54l.309-.308a.308.308,0,0,1-.086-.232Zm.221.547a1.375,1.375,0,0,0,.458.272l.152-.408a.948.948,0,0,1-.315-.186Zm.465.275c.166.056.385.114.654.175l.1-.425Q13.622,2,13.4,1.922Zm.652.175a6.027,6.027,0,0,1,.8.239l.16-.4a6.636,6.636,0,0,0-.86-.257Zm.8.24a1.12,1.12,0,0,1,.456.324l.331-.284a1.556,1.556,0,0,0-.63-.447Zm.458.326a.819.819,0,0,1,.175.562h.436A1.248,1.248,0,0,0,15.5,2.79Zm.175.562a.9.9,0,0,1-.169.535l.355.253a1.33,1.33,0,0,0,.25-.787Zm-.168.533a1.163,1.163,0,0,1-.5.379l.173.4a1.616,1.616,0,0,0,.678-.523Zm-.5.379a1.979,1.979,0,0,1-.79.146v.436a2.407,2.407,0,0,0,.963-.181Zm2.758.246.153-.154Zm0-4.454L17.591.5,17.6.491Zm.419,0-.16.148L17.7.5h.007Zm.092,1.949h-.218V2.51h.218Zm2.478.218h.218V2.292h-.218ZM20.511.343,20.665.5l0-.01Zm.419,0-.16.148,0,.01h.006Zm0,4.454-.149-.16-.005.006Zm-.419,0-.154.154Zm-.085-1.949h.218V2.63h-.218ZM17.948,2.63H17.73v.218h.218ZM17.855,4.8l-.148-.16-.006.006Zm-.209-.133a.07.07,0,0,1-.056-.021l-.308.309a.5.5,0,0,0,.364.148Zm-.056-.021a.066.066,0,0,1-.021-.055h-.436a.5.5,0,0,0,.149.364ZM17.569.552h-.436V4.588h.436Zm0,0A.066.066,0,0,1,17.59.5L17.282.189a.5.5,0,0,0-.149.363ZM17.6.491a.06.06,0,0,1,.05-.022V.033a.494.494,0,0,0-.369.161Zm.05-.022A.058.058,0,0,1,17.7.491l.32-.3A.494.494,0,0,0,17.65.03ZM17.707.5a.058.058,0,0,1,.022.049h.436A.491.491,0,0,0,18,.183Zm.022,1.789h.436V.552h-.436Zm.218.218h2.478V2.074H17.947ZM20.647.55h-.436V2.29h.436Zm0,0A.067.067,0,0,1,20.664.5L20.356.189a.5.5,0,0,0-.149.363ZM20.67.491a.06.06,0,0,1,.05-.022V.033a.5.5,0,0,0-.37.161Zm.05-.022a.058.058,0,0,1,.049.022l.32-.3A.492.492,0,0,0,20.72.033ZM20.781.5A.056.056,0,0,1,20.8.552h.436a.494.494,0,0,0-.161-.369ZM20.8,4.588h.436V.552H20.8Zm0,0a.06.06,0,0,1-.022.05l.3.319a.494.494,0,0,0,.161-.369Zm-.028.055a.066.066,0,0,1-.055.021V5.1a.5.5,0,0,0,.363-.148Zm-.055.021a.07.07,0,0,1-.056-.021l-.308.309a.5.5,0,0,0,.364.148Zm-.056-.021a.066.066,0,0,1-.021-.055H20.2a.5.5,0,0,0,.149.364Zm-.021-1.8H20.2v1.74h.436Zm-.218-.218H17.947v.436h2.478Zm-2.7,1.958h.436V2.848h-.436Zm0,0a.06.06,0,0,1-.022.05l.3.319a.494.494,0,0,0,.161-.369Zm-.028.055a.066.066,0,0,1-.055.021V5.1A.5.5,0,0,0,18,4.953Z" fill="#1800e1"/>
      </g>
    </g>
  </g>
</svg>
