<svg xmlns="http://www.w3.org/2000/svg" xmlns:xlink="http://www.w3.org/1999/xlink" width="30" height="30" viewBox="0 0 30 30">
  <defs>
    <clipPath id="clip-path">
      <rect id="Rectangle_52280" data-name="Rectangle 52280" width="28.844" height="24.238" fill="#1800e1"/>
    </clipPath>
    <clipPath id="clip-icon-inc-wifi-6-router">
      <rect width="30" height="30"/>
    </clipPath>
  </defs>
  <g id="icon-inc-wifi-6-router" clip-path="url(#clip-icon-inc-wifi-6-router)">
    <g id="Group_134807" data-name="Group 134807" transform="translate(1 3.36)">
      <g id="Group_124841" data-name="Group 124841" clip-path="url(#clip-path)">
        <path id="Path_108501" data-name="Path 108501" d="M14.357,183.666c-3.215,0-6.43.007-9.645,0a4.569,4.569,0,0,1-2.968-1.156,4.6,4.6,0,0,1-1.689-3.037A5.133,5.133,0,0,1,1,175.536a5,5,0,0,1,3.279-1.915,5.648,5.648,0,0,1,.882-.026q9.248,0,18.5,0a5.075,5.075,0,0,1,3.2.98,4.76,4.76,0,0,1,1.868,2.972A5.249,5.249,0,0,1,28.3,181a4.8,4.8,0,0,1-4.541,2.671c-3.134.009-6.267,0-9.4,0v-.006m.035-8.607q-4.608,0-9.217,0a5.875,5.875,0,0,0-.9.08,3.222,3.222,0,0,0-2.417,1.788,3.91,3.91,0,0,0-.28,2.684,3.011,3.011,0,0,0,.952,1.648,3.759,3.759,0,0,0,2.664.955c6.134-.021,12.269-.01,18.4-.013a6.561,6.561,0,0,0,.719-.045,3.279,3.279,0,0,0,2.688-1.86,3.841,3.841,0,0,0,.332-2.107,3.31,3.31,0,0,0-1.425-2.5,3.519,3.519,0,0,0-2.183-.634H14.391" transform="translate(-0.001 -159.436)" fill="#1800e1"/>
        <path id="Path_108502" data-name="Path 108502" d="M77.763,5.212a2.222,2.222,0,0,1-.514-.294,11.012,11.012,0,0,0-4.813-2.9,14.458,14.458,0,0,0-2.318-.462A11.523,11.523,0,0,0,67.876,1.5a10.653,10.653,0,0,0-3.118.765,12.6,12.6,0,0,0-3.264,1.941c-.273.222-.525.473-.78.717A.763.763,0,0,1,59.688,5c-.271-.289-.41-.592-.089-.968a7.235,7.235,0,0,1,.894-.89,13.31,13.31,0,0,1,2.932-1.889A14.513,14.513,0,0,1,66.787.18,12.367,12.367,0,0,1,69.826.031a12.769,12.769,0,0,1,4.186.986,13.59,13.59,0,0,1,3.313,1.974,13.046,13.046,0,0,1,.994.932.694.694,0,0,1,.145.848.588.588,0,0,1-.666.364l-.034.075" transform="translate(-54.569 0)" fill="#1800e1"/>
        <path id="Path_108503" data-name="Path 108503" d="M103.49,56.651a2.805,2.805,0,0,1-.537-.337,8.177,8.177,0,0,0-3.355-2,7.735,7.735,0,0,0-3.052-.337,8.13,8.13,0,0,0-4.355,1.738c-.307.24-.58.524-.892.757a.6.6,0,0,1-.854-.084c-.3-.319-.36-.618-.113-.887a9.01,9.01,0,0,1,5.137-2.856,8.815,8.815,0,0,1,2.667-.1,9.581,9.581,0,0,1,2.766.687,9.027,9.027,0,0,1,2.513,1.54c.226.2.458.395.668.611a.625.625,0,0,1,.124.793.858.858,0,0,1-.718.476" transform="translate(-82.825 -48.207)" fill="#1800e1"/>
        <path id="Path_108504" data-name="Path 108504" d="M140.368,104.694a4.183,4.183,0,0,1,3.125,1.31.719.719,0,0,1-.915,1.094,3.862,3.862,0,0,0-1.357-.809,2.668,2.668,0,0,0-2.7.652.73.73,0,0,1-1.3-.316.816.816,0,0,1,.144-.588,3.777,3.777,0,0,1,2.231-1.253c.253-.051.515-.061.773-.09" transform="translate(-126.023 -96.157)" fill="#1800e1"/>
        <path id="Path_108505" data-name="Path 108505" d="M63.723,222.18c1.006,0,2.012,0,3.018,0a.713.713,0,0,0,.763-.731c.037-.38-.295-.73-.822-.731q-2.972-.007-5.944.006a.854.854,0,0,0-.456.158.665.665,0,0,0-.269.795.689.689,0,0,0,.754.505c.986,0,1.971,0,2.957,0m-16.19-1.958a1.194,1.194,0,0,0-1.269,1.229,1.256,1.256,0,0,0,1.254,1.274,1.285,1.285,0,0,0,1.29-1.28,1.2,1.2,0,0,0-1.275-1.223m2.56,1.2a1.263,1.263,0,0,0,1.21,1.308,1.327,1.327,0,0,0,1.3-1.185,1.218,1.218,0,0,0-1.183-1.325,1.2,1.2,0,0,0-1.325,1.2m6.288.033c0-.775-.5-1.21-1.353-1.239a1.28,1.28,0,0,0-1.162,1.2,1.345,1.345,0,0,0,1.238,1.31,1.268,1.268,0,0,0,1.276-1.273" transform="translate(-42.491 -202.258)" fill="#1800e1"/>
        <path id="Path_108506" data-name="Path 108506" d="M218.107,227.8c-.986,0-1.971,0-2.957,0a.689.689,0,0,1-.754-.505.665.665,0,0,1,.269-.795.854.854,0,0,1,.456-.158q2.972-.016,5.944-.006c.527,0,.859.35.822.731a.713.713,0,0,1-.763.731c-1.006,0-2.012,0-3.018,0" transform="translate(-196.876 -207.88)" fill="#1800e1"/>
        <path id="Path_108507" data-name="Path 108507" d="M47.533,220.258a1.2,1.2,0,0,1,1.275,1.223,1.285,1.285,0,0,1-1.29,1.28,1.256,1.256,0,0,1-1.254-1.274,1.194,1.194,0,0,1,1.269-1.229" transform="translate(-42.491 -202.294)" fill="#1800e1"/>
        <path id="Path_108508" data-name="Path 108508" d="M93.16,221.468a1.2,1.2,0,0,1,1.325-1.2,1.219,1.219,0,0,1,1.183,1.325,1.327,1.327,0,0,1-1.3,1.185,1.263,1.263,0,0,1-1.21-1.308" transform="translate(-85.558 -202.305)" fill="#1800e1"/>
        <path id="Path_108509" data-name="Path 108509" d="M142.025,221.454a1.268,1.268,0,0,1-1.276,1.273,1.345,1.345,0,0,1-1.238-1.31,1.28,1.28,0,0,1,1.162-1.2c.857.028,1.355.464,1.353,1.239" transform="translate(-128.134 -202.258)" fill="#1800e1"/>
      </g>
    </g>
  </g>
</svg>
