<svg xmlns="http://www.w3.org/2000/svg" xmlns:xlink="http://www.w3.org/1999/xlink" width="30" height="30" viewBox="0 0 30 30">
  <defs>
    <clipPath id="clip-path">
      <rect id="Rectangle_52284" data-name="Rectangle 52284" width="30.02" height="29.989" fill="#1800e7" stroke="#1800e7" stroke-width="0.35"/>
    </clipPath>
    <clipPath id="clip-icon-inc-installation">
      <rect width="30" height="30"/>
    </clipPath>
  </defs>
  <g id="icon-inc-installation" clip-path="url(#clip-icon-inc-installation)">
    <g id="Group_134902" data-name="Group 134902" transform="translate(0.179 0.074)">
      <g id="Group_124898" data-name="Group 124898" clip-path="url(#clip-path)">
        <path id="Path_108538" data-name="Path 108538" d="M0,4.9A2.225,2.225,0,0,0,.116,4.36a2.066,2.066,0,0,1,.27-.675A.78.78,0,0,1,1.44,3.414,1.789,1.789,0,0,1,1.9,3.77Q3.016,4.894,4.131,6.018a1.445,1.445,0,0,0,.92.466,1.229,1.229,0,0,0,1.222-.468,1.4,1.4,0,0,0,.081-1.475,1.611,1.611,0,0,0-.336-.44Q4.9,3,3.785,1.9a2.162,2.162,0,0,1-.3-.359A.793.793,0,0,1,3.8.325a3.468,3.468,0,0,1,1.8-.32,5.185,5.185,0,0,1,5.056,4.41A4.875,4.875,0,0,1,10.436,6.9a.346.346,0,0,0,.1.43c.322.3.637.608.932.933.156.172.256.157.385-.01a2.24,2.24,0,0,1,.227-.229,1.272,1.272,0,0,1,1.795-.071c.136.116.2.12.328-.009.358-.374.733-.732,1.1-1.1a1.975,1.975,0,0,1,2.276-.524,1.924,1.924,0,0,1,1.269,1.922c0,.15.041.181.179.176a2.012,2.012,0,0,1,2.026,2.443c-.036.154-.009.219.166.25a1.973,1.973,0,0,1,1.707,2.021c0,.176.023.251.227.266a1.817,1.817,0,0,1,1.167,3.09c-.7.722-1.418,1.428-2.137,2.132-.125.122-.133.173-.017.317.394.486.813.823,1.462.445a5.233,5.233,0,0,1,6.3,4.162,5.02,5.02,0,0,1-.056,2.151,1.718,1.718,0,0,1-.224.538.787.787,0,0,1-1.094.289,1.92,1.92,0,0,1-.458-.361q-1.113-1.126-2.228-2.248a1.44,1.44,0,0,0-1.188-.459,1.132,1.132,0,0,0-1.051.673,1.444,1.444,0,0,0,.154,1.472,2.336,2.336,0,0,0,.275.3q1.093,1.083,2.189,2.163a2.128,2.128,0,0,1,.231.264.83.83,0,0,1-.355,1.348,3.2,3.2,0,0,1-.992.241,5.247,5.247,0,0,1-5.208-2.722.5.5,0,0,1-.086-.388.44.44,0,0,1,.825-.084,4.472,4.472,0,0,0,.7.974,4.333,4.333,0,0,0,4.063,1.283.488.488,0,0,0,.327-.134L24.04,27.123c-.262-.263-.534-.517-.785-.79a2.3,2.3,0,0,1-.585-2.059,2.194,2.194,0,0,1,3.571-1.2c.4.338.762.729,1.135,1.1.457.455.907.917,1.361,1.374.054.054.107.152.182.127s.085-.138.106-.221a4.358,4.358,0,0,0-5.924-4.99c-.4.159-.489.142-.8-.17-.339-.338-.681-.673-1.014-1.017a.456.456,0,0,0-.358-.147,1.8,1.8,0,0,1-1.819-2.068c.03-.238-.022-.3-.263-.342a2,2,0,0,1-1.607-1.753c-.012-.11.028-.243-.174-.217a4.047,4.047,0,0,1-2.853-.834c-.08-.054-.157-.113-.227-.164-.1.025-.076.094-.08.147a2.709,2.709,0,0,1-.3,1.124c-.161.287-.065.439.137.639q3.3,3.272,6.581,6.558c.352.352.363.4.181.844a4.713,4.713,0,0,0-.328,1.832.423.423,0,0,1-.4.456.44.44,0,0,1-.472-.42,1.4,1.4,0,0,1-.007-.2,5.089,5.089,0,0,1,.284-1.7.32.32,0,0,0-.094-.406c-.239-.216-.464-.448-.686-.681a.213.213,0,0,0-.3-.055,3.573,3.573,0,0,1-2.691.34,1.144,1.144,0,0,0-1.155.323q-1.5,1.483-3,2.966a.208.208,0,0,0-.042.258,1.418,1.418,0,0,1-.38,1.58c-.713.71-1.43,1.417-2.135,2.135a1.862,1.862,0,0,1-1.007.493H7.915a1.983,1.983,0,0,1-.947-.482Q3.914,26.448.852,23.4a1.42,1.42,0,0,1,.011-2.113c.715-.722,1.438-1.435,2.156-2.154a1.411,1.411,0,0,1,1.53-.374.3.3,0,0,0,.355-.091c.555-.564,1.121-1.117,1.675-1.682a9.26,9.26,0,0,0,1.233-1.523,3.646,3.646,0,0,0,.621-2.216,2.942,2.942,0,0,1,.172-1.21.29.29,0,0,0-.091-.356c-.387-.372-.774-.747-1.139-1.14a.406.406,0,0,0-.506-.112A5.241,5.241,0,0,1,.326,7.282,12.483,12.483,0,0,1,0,6.011Zm17.98,16.264a.849.849,0,0,0-.067-.094q-2.4-2.4-4.809-4.806c-.1-.1-.176-.138-.272,0a1.439,1.439,0,0,1-.2.217.448.448,0,0,1-.63.051A.422.422,0,0,1,12,15.883a3.87,3.87,0,0,0,.862-1.346,2.029,2.029,0,0,0-.226-2.1c-.211-.256-.225-.5-.041-.677s.45-.16.694.081c.341.336.678.676,1.017,1.014a3.731,3.731,0,0,0,1.57.933,2.038,2.038,0,0,0,1.488-.017c.455-.207.524-.518.2-.882-.084-.1-.169-.19-.258-.28q-1.958-1.959-3.918-3.915a.442.442,0,0,0-.731,0q-1.31,1.3-2.613,2.608a2.572,2.572,0,0,0-.677,1.274A10.087,10.087,0,0,0,9.3,13.886a5.3,5.3,0,0,1-1.254,2.759A31.227,31.227,0,0,1,5.7,19.1c-.3.3-.3.3.011.606q.779.775,1.555,1.553a.44.44,0,0,1,.141.5.424.424,0,0,1-.375.285.531.531,0,0,1-.432-.208q-1-1.006-2.012-2.008c-.385-.384-.644-.387-1.022-.01q-1.007,1-2.012,2.008c-.384.384-.388.645-.01,1.022q2.986,2.981,5.974,5.961a.6.6,0,0,0,1,.007q1.008-1,2.012-2.008c.39-.39.393-.656.006-1.042q-1.1-1.1-2.2-2.194c-.048-.048-.1-.1-.145-.145a.459.459,0,0,1-.054-.674.443.443,0,0,1,.672.051c.66.652,1.321,1.3,1.968,1.968.153.157.23.155.384,0,.877-.891,1.775-1.762,2.65-2.654a2.312,2.312,0,0,1,2.391-.718,2.369,2.369,0,0,0,1.768-.243M5.532.876A4.89,4.89,0,0,0,4.5.987c-.2.043-.276.1-.087.285.617.6,1.223,1.208,1.831,1.816a6.64,6.64,0,0,1,.7.743,2.239,2.239,0,0,1-.65,3.293,2.346,2.346,0,0,1-2.753-.457C2.783,5.92,2.04,5.158,1.289,4.4c-.054-.054-.1-.15-.18-.133S1.015,4.4,1,4.484a4.1,4.1,0,0,0-.03,1.83A4.349,4.349,0,0,0,6.907,9.476a.634.634,0,0,1,.807.162c.4.429.825.832,1.241,1.245.072.071.122.172.251.038q.833-.865,1.689-1.708c.118-.117.12-.185,0-.3-.428-.414-.84-.845-1.27-1.258a.551.551,0,0,1-.145-.705A4.094,4.094,0,0,0,9.837,5.3,4.368,4.368,0,0,0,5.532.876M22.053,13.1a1.148,1.148,0,0,0-1.947-.821c-.556.534-1.1,1.081-1.64,1.631a1.149,1.149,0,1,0,1.61,1.639c.555-.535,1.1-1.085,1.639-1.632a1.1,1.1,0,0,0,.338-.817m.846,1.16a.817.817,0,0,0-.537.259c-.715.708-1.431,1.415-2.135,2.134a.929.929,0,0,0-.014,1.3.906.906,0,0,0,1.292.086c.766-.724,1.51-1.473,2.241-2.233a.845.845,0,0,0,.124-1.011.971.971,0,0,0-.972-.533M18.5,12.63c.489-.488.988-.955,1.45-1.455a1.142,1.142,0,0,0-1.633-1.592c-.436.4-.845.838-1.272,1.253-.1.1-.107.155,0,.257.5.5.992.994,1.459,1.537m-.521-4.455a1.1,1.1,0,0,0-.668-1.023,1.071,1.071,0,0,0-1.229.172c-.446.408-.859.851-1.293,1.273-.107.1-.083.166.011.259q.69.676,1.368,1.364c.1.1.167.091.261,0,.417-.425.843-.841,1.258-1.267a1.121,1.121,0,0,0,.292-.773" transform="translate(-0.001 0)" fill="#1800e7" stroke="#1800e7" stroke-width="0.35"/>
      </g>
    </g>
  </g>
</svg>
