<svg width="50" height="50" viewBox="0 0 50 50" fill="none" xmlns="http://www.w3.org/2000/svg">
<circle cx="25" cy="25" r="25" fill="#F7EEEA"/>
<path d="M16.3109 27.7752C15.8109 27.7752 15.3609 27.6677 14.9609 27.4527C14.5659 27.2327 14.2534 26.9202 14.0234 26.5152C13.7984 26.1052 13.6859 25.6277 13.6859 25.0827C13.6859 24.5377 13.7984 24.0627 14.0234 23.6577C14.2534 23.2477 14.5659 22.9352 14.9609 22.7202C15.3609 22.5002 15.8109 22.3902 16.3109 22.3902C16.6509 22.3902 16.9534 22.4302 17.2184 22.5102C17.4884 22.5902 17.7559 22.7052 18.0209 22.8552C18.1309 22.9152 18.1859 23.0102 18.1859 23.1402C18.1859 23.2152 18.1584 23.2827 18.1034 23.3427C18.0484 23.3977 17.9759 23.4252 17.8859 23.4252C17.8359 23.4252 17.7909 23.4152 17.7509 23.3952C17.5309 23.2802 17.3159 23.1927 17.1059 23.1327C16.8959 23.0727 16.6534 23.0427 16.3784 23.0427C15.9484 23.0427 15.5809 23.1327 15.2759 23.3127C14.9759 23.4877 14.7484 23.7302 14.5934 24.0402C14.4434 24.3452 14.3684 24.6927 14.3684 25.0827C14.3684 25.4727 14.4434 25.8227 14.5934 26.1327C14.7484 26.4377 14.9759 26.6802 15.2759 26.8602C15.5809 27.0352 15.9484 27.1227 16.3784 27.1227C16.6534 27.1227 16.8959 27.0927 17.1059 27.0327C17.3159 26.9727 17.5309 26.8852 17.7509 26.7702C17.7909 26.7502 17.8359 26.7402 17.8859 26.7402C17.9759 26.7402 18.0484 26.7677 18.1034 26.8227C18.1584 26.8777 18.1859 26.9452 18.1859 27.0252C18.1859 27.1552 18.1309 27.2502 18.0209 27.3102C17.7559 27.4602 17.4884 27.5752 17.2184 27.6552C16.9534 27.7352 16.6509 27.7752 16.3109 27.7752ZM20.2008 27.7377C20.1008 27.7377 20.0183 27.7052 19.9533 27.6402C19.8933 27.5752 19.8633 27.4952 19.8633 27.4002C19.8633 27.3602 19.8758 27.3102 19.9008 27.2502L21.8133 22.7352C21.8533 22.6452 21.9083 22.5727 21.9783 22.5177C22.0533 22.4577 22.1433 22.4277 22.2483 22.4277H22.3233C22.4283 22.4277 22.5158 22.4577 22.5858 22.5177C22.6608 22.5727 22.7183 22.6452 22.7583 22.7352L24.6708 27.2502C24.6958 27.3102 24.7083 27.3602 24.7083 27.4002C24.7083 27.4952 24.6758 27.5752 24.6108 27.6402C24.5508 27.7052 24.4708 27.7377 24.3708 27.7377C24.3008 27.7377 24.2358 27.7202 24.1758 27.6852C24.1208 27.6452 24.0783 27.5927 24.0483 27.5277L23.5608 26.3577H21.0108L20.5233 27.5277C20.4933 27.5927 20.4483 27.6452 20.3883 27.6852C20.3333 27.7202 20.2708 27.7377 20.2008 27.7377ZM21.2733 25.7352H23.2983L22.2858 23.2977L21.2733 25.7352ZM27.284 27.7002C27.154 27.7002 27.0415 27.6552 26.9465 27.5652C26.8565 27.4702 26.8115 27.3577 26.8115 27.2277V22.7727C26.8115 22.6777 26.844 22.5977 26.909 22.5327C26.974 22.4627 27.054 22.4277 27.149 22.4277C27.244 22.4277 27.324 22.4627 27.389 22.5327C27.459 22.5977 27.494 22.6777 27.494 22.7727V27.0177H29.9465C30.0415 27.0177 30.1215 27.0527 30.1865 27.1227C30.2565 27.1877 30.2915 27.2677 30.2915 27.3627C30.2915 27.4577 30.2565 27.5377 30.1865 27.6027C30.1215 27.6677 30.0415 27.7002 29.9465 27.7002H27.284ZM32.6053 27.7002C32.4753 27.7002 32.3628 27.6552 32.2678 27.5652C32.1778 27.4702 32.1328 27.3577 32.1328 27.2277V22.7727C32.1328 22.6777 32.1653 22.5977 32.2303 22.5327C32.2953 22.4627 32.3753 22.4277 32.4703 22.4277C32.5653 22.4277 32.6453 22.4627 32.7103 22.5327C32.7803 22.5977 32.8153 22.6777 32.8153 22.7727V27.0177H35.2678C35.3628 27.0177 35.4428 27.0527 35.5078 27.1227C35.5778 27.1877 35.6128 27.2677 35.6128 27.3627C35.6128 27.4577 35.5778 27.5377 35.5078 27.6027C35.4428 27.6677 35.3628 27.7002 35.2678 27.7002H32.6053Z" fill="#07509F"/>
<path d="M14.9609 27.4527L14.8393 27.6711L14.8426 27.6729L14.9609 27.4527ZM14.0234 26.5152L13.8042 26.6355L13.806 26.6387L14.0234 26.5152ZM14.0234 23.6577L13.8054 23.5354L13.8049 23.5363L14.0234 23.6577ZM14.9609 22.7202L15.0805 22.9398L15.0814 22.9392L14.9609 22.7202ZM17.2184 22.5102L17.1462 22.7495L17.1474 22.7499L17.2184 22.5102ZM18.0209 22.8552L17.8978 23.0728L17.9012 23.0747L18.0209 22.8552ZM18.1034 23.3427L18.2804 23.5196L18.2877 23.5116L18.1034 23.3427ZM17.7509 23.3952L17.6351 23.6168L17.6391 23.6188L17.7509 23.3952ZM17.1059 23.1327L17.1746 22.8923L17.1746 22.8923L17.1059 23.1327ZM15.2759 23.3127L15.4019 23.5286L15.403 23.528L15.2759 23.3127ZM14.5934 24.0402L14.3698 23.9284L14.3691 23.9299L14.5934 24.0402ZM14.5934 26.1327L14.3684 26.2416L14.3706 26.246L14.5934 26.1327ZM15.2759 26.8602L15.1473 27.0746L15.1515 27.077L15.2759 26.8602ZM17.1059 27.0327L17.1746 27.2731L17.1746 27.2731L17.1059 27.0327ZM17.7509 26.7702L17.6391 26.5466L17.6351 26.5486L17.7509 26.7702ZM18.1034 26.8227L18.2802 26.6459L18.2802 26.6459L18.1034 26.8227ZM18.0209 27.3102L17.9012 27.0907L17.8978 27.0926L18.0209 27.3102ZM17.2184 27.6552L17.1474 27.4155L17.1462 27.4159L17.2184 27.6552ZM16.3109 27.5252C15.848 27.5252 15.4393 27.426 15.0793 27.2325L14.8426 27.6729C15.2825 27.9094 15.7739 28.0252 16.3109 28.0252V27.5252ZM15.0826 27.2343C14.7288 27.0373 14.4489 26.7582 14.2408 26.3917L13.806 26.6387C14.0579 27.0822 14.403 27.4281 14.8393 27.6711L15.0826 27.2343ZM14.2426 26.3949C14.0409 26.0275 13.9359 25.5926 13.9359 25.0827H13.4359C13.4359 25.6628 13.5559 26.1829 13.8043 26.6355L14.2426 26.3949ZM13.9359 25.0827C13.9359 24.5727 14.041 24.1409 14.242 23.7791L13.8049 23.5363C13.5559 23.9845 13.4359 24.5027 13.4359 25.0827H13.9359ZM14.2415 23.78C14.4495 23.4091 14.7287 23.1312 15.0805 22.9398L14.8414 22.5006C14.4032 22.7392 14.0573 23.0863 13.8054 23.5354L14.2415 23.78ZM15.0814 22.9392C15.4411 22.7414 15.849 22.6402 16.3109 22.6402V22.1402C15.7729 22.1402 15.2808 22.2589 14.8405 22.5011L15.0814 22.9392ZM16.3109 22.6402C16.6318 22.6402 16.9092 22.678 17.1462 22.7495L17.2907 22.2709C16.9976 22.1824 16.6701 22.1402 16.3109 22.1402V22.6402ZM17.1474 22.7499C17.3979 22.8241 17.6479 22.9313 17.8978 23.0728L18.1441 22.6376C17.8639 22.4791 17.579 22.3563 17.2895 22.2705L17.1474 22.7499ZM17.9012 23.0747C17.9218 23.0859 17.9269 23.0942 17.9283 23.0967C17.93 23.0997 17.9359 23.111 17.9359 23.1402H18.4359C18.4359 23.0394 18.4143 22.9382 18.361 22.8462C18.3075 22.7537 18.2301 22.6845 18.1407 22.6357L17.9012 23.0747ZM17.9359 23.1402C17.9359 23.1471 17.9358 23.1556 17.9191 23.1738L18.2877 23.5116C18.3811 23.4098 18.4359 23.2833 18.4359 23.1402H17.9359ZM17.9267 23.1659C17.9241 23.1685 17.9222 23.1697 17.9191 23.1708C17.9154 23.1722 17.9054 23.1752 17.8859 23.1752V23.6752C18.031 23.6752 18.1709 23.6288 18.2802 23.5195L17.9267 23.1659ZM17.8859 23.1752C17.8701 23.1752 17.8641 23.1723 17.8627 23.1716L17.6391 23.6188C17.7178 23.6581 17.8018 23.6752 17.8859 23.6752V23.1752ZM17.8668 23.1736C17.6337 23.0518 17.403 22.9576 17.1746 22.8923L17.0373 23.3731C17.2289 23.4278 17.4282 23.5086 17.6351 23.6168L17.8668 23.1736ZM17.1746 22.8923C16.9374 22.8245 16.671 22.7927 16.3784 22.7927V23.2927C16.6359 23.2927 16.8545 23.3209 17.0373 23.3731L17.1746 22.8923ZM16.3784 22.7927C15.9133 22.7927 15.4998 22.8903 15.1489 23.0974L15.403 23.528C15.662 23.3751 15.9836 23.2927 16.3784 23.2927V22.7927ZM15.15 23.0968C14.8081 23.2962 14.5466 23.5748 14.3698 23.9284L14.817 24.152C14.9503 23.8856 15.1438 23.6792 15.4019 23.5286L15.15 23.0968ZM14.3691 23.9299C14.1999 24.2739 14.1184 24.6601 14.1184 25.0827H14.6184C14.6184 24.7253 14.687 24.4165 14.8178 24.1505L14.3691 23.9299ZM14.1184 25.0827C14.1184 25.5054 14.1999 25.8934 14.3684 26.2416L14.8185 26.0238C14.687 25.752 14.6184 25.44 14.6184 25.0827H14.1184ZM14.3706 26.246C14.5474 26.5938 14.808 26.871 15.1473 27.0746L15.4046 26.6458C15.1439 26.4894 14.9495 26.2816 14.8163 26.0194L14.3706 26.246ZM15.1515 27.077C15.502 27.2781 15.9145 27.3727 16.3784 27.3727V26.8727C15.9824 26.8727 15.6599 26.7923 15.4004 26.6434L15.1515 27.077ZM16.3784 27.3727C16.671 27.3727 16.9374 27.3409 17.1746 27.2731L17.0373 26.7923C16.8545 26.8445 16.6359 26.8727 16.3784 26.8727V27.3727ZM17.1746 27.2731C17.403 27.2078 17.6337 27.1136 17.8668 26.9918L17.6351 26.5486C17.4282 26.6568 17.2289 26.7376 17.0373 26.7923L17.1746 27.2731ZM17.8627 26.9938C17.8641 26.9931 17.8701 26.9902 17.8859 26.9902V26.4902C17.8018 26.4902 17.7178 26.5073 17.6391 26.5466L17.8627 26.9938ZM17.8859 26.9902C17.9054 26.9902 17.9154 26.9931 17.9191 26.9946C17.9222 26.9957 17.9241 26.9969 17.9267 26.9995L18.2802 26.6459C18.1709 26.5366 18.031 26.4902 17.8859 26.4902V26.9902ZM17.9267 26.9995C17.9322 27.005 17.9334 27.008 17.9338 27.0089C17.9342 27.0099 17.9359 27.0144 17.9359 27.0252H18.4359C18.4359 26.881 18.3836 26.7493 18.2802 26.6459L17.9267 26.9995ZM17.9359 27.0252C17.9359 27.0544 17.93 27.0657 17.9283 27.0687C17.9269 27.0712 17.9218 27.0795 17.9012 27.0907L18.1407 27.5297C18.2301 27.4809 18.3075 27.4117 18.361 27.3192C18.4143 27.2272 18.4359 27.126 18.4359 27.0252H17.9359ZM17.8978 27.0926C17.6479 27.2341 17.3979 27.3413 17.1474 27.4155L17.2895 27.8949C17.579 27.8091 17.8639 27.6863 18.1441 27.5278L17.8978 27.0926ZM17.1462 27.4159C16.9092 27.4874 16.6318 27.5252 16.3109 27.5252V28.0252C16.6701 28.0252 16.9976 27.983 17.2907 27.8945L17.1462 27.4159ZM19.9533 27.6402L19.7694 27.8099L19.7765 27.817L19.9533 27.6402ZM19.9008 27.2502L19.6706 27.1527L19.67 27.154L19.9008 27.2502ZM21.8133 22.7352L21.5848 22.6336L21.5831 22.6377L21.8133 22.7352ZM21.9783 22.5177L22.1327 22.7143L22.1345 22.7129L21.9783 22.5177ZM22.5858 22.5177L22.4231 22.7075L22.4303 22.7137L22.4379 22.7193L22.5858 22.5177ZM22.7583 22.7352L22.9885 22.6377L22.9867 22.6337L22.7583 22.7352ZM24.6708 27.2502L24.9016 27.154L24.901 27.1527L24.6708 27.2502ZM24.6108 27.6402L24.4339 27.4633L24.4271 27.4706L24.6108 27.6402ZM24.1758 27.6852L24.0287 27.8874L24.0389 27.8948L24.0498 27.9011L24.1758 27.6852ZM24.0483 27.5277L23.8173 27.6239L23.8213 27.6325L24.0483 27.5277ZM23.5608 26.3577L23.7916 26.2615L23.7274 26.1077H23.5608V26.3577ZM21.0108 26.3577V26.1077H20.8441L20.78 26.2615L21.0108 26.3577ZM20.5233 27.5277L20.7504 27.6325L20.7541 27.6238L20.5233 27.5277ZM20.3883 27.6852L20.5225 27.8962L20.527 27.8932L20.3883 27.6852ZM21.2733 25.7352L21.0424 25.6393L20.8987 25.9852H21.2733V25.7352ZM23.2983 25.7352V25.9852H23.6728L23.5292 25.6393L23.2983 25.7352ZM22.2858 23.2977L22.5167 23.2018L22.2858 22.646L22.0549 23.2018L22.2858 23.2977ZM20.2008 27.4877C20.1607 27.4877 20.1438 27.4772 20.1301 27.4634L19.7765 27.817C19.8927 27.9332 20.0409 27.9877 20.2008 27.9877V27.4877ZM20.137 27.4706C20.1229 27.4554 20.1133 27.4374 20.1133 27.4002H19.6133C19.6133 27.553 19.6636 27.695 19.7696 27.8098L20.137 27.4706ZM20.1133 27.4002C20.1133 27.4055 20.1126 27.4039 20.1152 27.3933C20.1178 27.3831 20.1227 27.3676 20.1316 27.3463L19.67 27.154C19.6393 27.2278 19.6133 27.3129 19.6133 27.4002H20.1133ZM20.131 27.3477L22.0435 22.8327L21.5831 22.6377L19.6706 27.1527L20.131 27.3477ZM22.0417 22.8367C22.067 22.7799 22.0981 22.7415 22.1327 22.7143L21.8238 22.3211C21.7185 22.4039 21.6396 22.5105 21.5848 22.6337L22.0417 22.8367ZM22.1345 22.7129C22.1609 22.6917 22.1944 22.6777 22.2483 22.6777V22.1777C22.0922 22.1777 21.9456 22.2236 21.8221 22.3225L22.1345 22.7129ZM22.2483 22.6777H22.3233V22.1777H22.2483V22.6777ZM22.3233 22.6777C22.3774 22.6777 22.4047 22.6917 22.4231 22.7075L22.7485 22.3279C22.6269 22.2237 22.4791 22.1777 22.3233 22.1777V22.6777ZM22.4379 22.7193C22.4757 22.747 22.5064 22.7841 22.5298 22.8367L22.9867 22.6337C22.9301 22.5063 22.8458 22.3984 22.7336 22.3161L22.4379 22.7193ZM22.5281 22.8327L24.4406 27.3477L24.901 27.1527L22.9885 22.6377L22.5281 22.8327ZM24.44 27.3463C24.4489 27.3676 24.4538 27.3831 24.4564 27.3933C24.459 27.4039 24.4583 27.4055 24.4583 27.4002H24.9583C24.9583 27.3129 24.9323 27.2278 24.9016 27.154L24.44 27.3463ZM24.4583 27.4002C24.4583 27.4314 24.4504 27.447 24.434 27.4634L24.7876 27.817C24.9012 27.7034 24.9583 27.559 24.9583 27.4002H24.4583ZM24.4271 27.4706C24.4208 27.4774 24.4111 27.4877 24.3708 27.4877V27.9877C24.5305 27.9877 24.6807 27.933 24.7945 27.8098L24.4271 27.4706ZM24.3708 27.4877C24.3447 27.4877 24.3232 27.4818 24.3017 27.4693L24.0498 27.9011C24.1484 27.9586 24.2569 27.9877 24.3708 27.9877V27.4877ZM24.3228 27.483C24.3042 27.4695 24.2884 27.4513 24.2753 27.4229L23.8213 27.6325C23.8682 27.7341 23.9374 27.8209 24.0287 27.8874L24.3228 27.483ZM24.2791 27.4315L23.7916 26.2615L23.33 26.4538L23.8175 27.6238L24.2791 27.4315ZM23.5608 26.1077H21.0108V26.6077H23.5608V26.1077ZM20.78 26.2615L20.2925 27.4315L20.7541 27.6238L21.2416 26.4538L20.78 26.2615ZM20.2963 27.4229C20.2858 27.4457 20.2715 27.4626 20.2496 27.4772L20.527 27.8932C20.6251 27.8278 20.7008 27.7397 20.7503 27.6325L20.2963 27.4229ZM20.2541 27.4743C20.2422 27.4819 20.2269 27.4877 20.2008 27.4877V27.9877C20.3147 27.9877 20.4244 27.9585 20.5225 27.8961L20.2541 27.4743ZM21.2733 25.9852H23.2983V25.4852H21.2733V25.9852ZM23.5292 25.6393L22.5167 23.2018L22.0549 23.3936L23.0674 25.8311L23.5292 25.6393ZM22.0549 23.2018L21.0424 25.6393L21.5042 25.8311L22.5167 23.3936L22.0549 23.2018ZM26.9465 27.5652L26.7647 27.7374L26.7745 27.7467L26.9465 27.5652ZM26.909 22.5327L27.0859 22.7096L27.0922 22.7028L26.909 22.5327ZM27.389 22.5327L27.2058 22.7028L27.2121 22.7096L27.2189 22.7159L27.389 22.5327ZM27.494 27.0177H27.244V27.2677H27.494V27.0177ZM30.1865 27.1227L30.0033 27.2928L30.0096 27.2996L30.0164 27.3059L30.1865 27.1227ZM30.1865 27.6027L30.0163 27.4194L30.0097 27.4259L30.1865 27.6027ZM27.284 27.4502C27.2184 27.4502 27.1673 27.43 27.1184 27.3837L26.7745 27.7467C26.9156 27.8804 27.0895 27.9502 27.284 27.9502V27.4502ZM27.128 27.3933C27.0816 27.3444 27.0615 27.2933 27.0615 27.2277H26.5615C26.5615 27.4221 26.6313 27.596 26.765 27.7371L27.128 27.3933ZM27.0615 27.2277V22.7727H26.5615V27.2277H27.0615ZM27.0615 22.7727C27.0615 22.7415 27.0694 22.7259 27.0858 22.7095L26.7322 22.3559C26.6186 22.4695 26.5615 22.6139 26.5615 22.7727H27.0615ZM27.0922 22.7028C27.1102 22.6834 27.1239 22.6777 27.149 22.6777V22.1777C26.984 22.1777 26.8378 22.242 26.7258 22.3626L27.0922 22.7028ZM27.149 22.6777C27.174 22.6777 27.1878 22.6834 27.2058 22.7028L27.5722 22.3626C27.4602 22.242 27.3139 22.1777 27.149 22.1777V22.6777ZM27.2189 22.7159C27.2383 22.7339 27.244 22.7476 27.244 22.7727H27.744C27.744 22.6077 27.6797 22.4615 27.5591 22.3495L27.2189 22.7159ZM27.244 22.7727V27.0177H27.744V22.7727H27.244ZM27.494 27.2677H29.9465V26.7677H27.494V27.2677ZM29.9465 27.2677C29.9715 27.2677 29.9853 27.2734 30.0033 27.2928L30.3697 26.9526C30.2577 26.832 30.1114 26.7677 29.9465 26.7677V27.2677ZM30.0164 27.3059C30.0358 27.3239 30.0415 27.3376 30.0415 27.3627H30.5415C30.5415 27.1977 30.4772 27.0515 30.3566 26.9395L30.0164 27.3059ZM30.0415 27.3627C30.0415 27.3877 30.0358 27.4015 30.0164 27.4195L30.3566 27.7859C30.4772 27.6739 30.5415 27.5276 30.5415 27.3627H30.0415ZM30.0097 27.4259C29.9933 27.4423 29.9777 27.4502 29.9465 27.4502V27.9502C30.1053 27.9502 30.2497 27.8931 30.3633 27.7795L30.0097 27.4259ZM29.9465 27.4502H27.284V27.9502H29.9465V27.4502ZM32.2678 27.5652L32.086 27.7374L32.0958 27.7467L32.2678 27.5652ZM32.2303 22.5327L32.4072 22.7096L32.4135 22.7028L32.2303 22.5327ZM32.7103 22.5327L32.5271 22.7028L32.5334 22.7096L32.5402 22.7159L32.7103 22.5327ZM32.8153 27.0177H32.5653V27.2677H32.8153V27.0177ZM35.5078 27.1227L35.3246 27.2928L35.3309 27.2996L35.3377 27.3059L35.5078 27.1227ZM35.5078 27.6027L35.3375 27.4194L35.331 27.4259L35.5078 27.6027ZM32.6053 27.4502C32.5397 27.4502 32.4886 27.43 32.4397 27.3837L32.0958 27.7467C32.2369 27.8804 32.4108 27.9502 32.6053 27.9502V27.4502ZM32.4493 27.3933C32.4029 27.3444 32.3828 27.2933 32.3828 27.2277H31.8828C31.8828 27.4221 31.9526 27.596 32.0863 27.7371L32.4493 27.3933ZM32.3828 27.2277V22.7727H31.8828V27.2277H32.3828ZM32.3828 22.7727C32.3828 22.7415 32.3907 22.7259 32.407 22.7095L32.0535 22.3559C31.9399 22.4695 31.8828 22.6139 31.8828 22.7727H32.3828ZM32.4135 22.7028C32.4315 22.6834 32.4452 22.6777 32.4703 22.6777V22.1777C32.3053 22.1777 32.1591 22.242 32.0471 22.3626L32.4135 22.7028ZM32.4703 22.6777C32.4953 22.6777 32.5091 22.6834 32.5271 22.7028L32.8935 22.3626C32.7815 22.242 32.6352 22.1777 32.4703 22.1777V22.6777ZM32.5402 22.7159C32.5595 22.7339 32.5653 22.7476 32.5653 22.7727H33.0653C33.0653 22.6077 33.001 22.4615 32.8804 22.3495L32.5402 22.7159ZM32.5653 22.7727V27.0177H33.0653V22.7727H32.5653ZM32.8153 27.2677H35.2678V26.7677H32.8153V27.2677ZM35.2678 27.2677C35.2928 27.2677 35.3066 27.2734 35.3246 27.2928L35.691 26.9526C35.579 26.832 35.4327 26.7677 35.2678 26.7677V27.2677ZM35.3377 27.3059C35.357 27.3239 35.3628 27.3376 35.3628 27.3627H35.8628C35.8628 27.1977 35.7985 27.0515 35.6779 26.9395L35.3377 27.3059ZM35.3628 27.3627C35.3628 27.3877 35.357 27.4015 35.3377 27.4195L35.6779 27.7859C35.7985 27.6739 35.8628 27.5276 35.8628 27.3627H35.3628ZM35.331 27.4259C35.3146 27.4423 35.2989 27.4502 35.2678 27.4502V27.9502C35.4266 27.9502 35.5709 27.8931 35.6846 27.7795L35.331 27.4259ZM35.2678 27.4502H32.6053V27.9502H35.2678V27.4502Z" fill="#07509F"/>
<path d="M22 15L28 15" stroke="#FF6624" stroke-width="1.5" stroke-linecap="round" stroke-linejoin="round"/>
<path d="M31.9333 19.5V15.1604C31.9333 13.4209 30.518 12 28.7855 12H21.1478C19.4153 12 18 13.4209 18 15.1604V19.5M31.9333 31V32.8396C31.9333 34.6036 30.518 36 28.7855 36H21.1478C19.4153 36 18 34.5791 18 32.8396V31" stroke="#FF6624" stroke-width="1.5" stroke-miterlimit="10" stroke-linecap="round" stroke-linejoin="round"/>
</svg>
