<svg width="20" height="20" viewBox="0 0 20 20" fill="none" xmlns="http://www.w3.org/2000/svg">
<path d="M6.55643 16.2257V8.40158L9.40158 2C9.96751 2 10.5103 2.22482 10.9104 2.62499C11.3106 3.02517 11.5354 3.56792 11.5354 4.13386V6.979H15.5613C15.7675 6.97667 15.9718 7.01919 16.1599 7.10363C16.3481 7.18807 16.5156 7.31241 16.6509 7.46802C16.7862 7.62364 16.8861 7.80681 16.9436 8.00486C17.0011 8.2029 17.0148 8.41108 16.9839 8.61496L16.0023 15.0165C15.9509 15.3558 15.7786 15.665 15.5172 15.8872C15.2557 16.1094 14.9228 16.2296 14.5797 16.2257H6.55643ZM6.55643 16.2257H4.42257C4.04528 16.2257 3.68345 16.0758 3.41666 15.8091C3.14988 15.5423 3 15.1804 3 14.8032V9.82415C3 9.44686 3.14988 9.08502 3.41666 8.81824C3.68345 8.55146 4.04528 8.40158 4.42257 8.40158" stroke="#666666" stroke-linecap="round" stroke-linejoin="round"/>
</svg>
