<svg width="50" height="50" viewBox="0 0 50 50" fill="none" xmlns="http://www.w3.org/2000/svg">
<circle cx="25" cy="25" r="25" fill="#F7EEEA"/>
<path d="M29.9979 32.1036H14.714C13.2997 32.1036 12.1426 30.9464 12.1426 29.5321V16.3214C12.1426 14.9071 13.2997 13.75 14.714 13.75H33.8229C35.2372 13.75 36.3944 14.9071 36.3944 16.3214V18.7161" stroke="#FF6624" stroke-width="1.5" stroke-miterlimit="10" stroke-linecap="round" stroke-linejoin="round"/>
<path d="M37.2462 36.5708H32.2158C31.0747 36.5708 30.1426 35.6387 30.1426 34.4976V24.2119C30.1426 23.0708 31.0747 22.1387 32.2158 22.1387H37.2462C38.3872 22.1387 39.3194 23.0708 39.3194 24.2119V34.4976C39.3194 35.6547 38.3872 36.5708 37.2462 36.5708Z" stroke="#FF6624" stroke-width="1.5" stroke-miterlimit="10" stroke-linecap="round" stroke-linejoin="round"/>
<path d="M21.8184 36.25H27.6844" stroke="#FF6624" stroke-width="1.5" stroke-miterlimit="10" stroke-linecap="round" stroke-linejoin="round"/>
<path d="M17.1094 20.6445H21.0629" stroke="#07509F" stroke-width="1.5" stroke-miterlimit="10" stroke-linecap="round" stroke-linejoin="round"/>
<path d="M19.0859 20.918V25.1608" stroke="#07509F" stroke-width="1.5" stroke-miterlimit="10" stroke-linecap="round" stroke-linejoin="round"/>
<path d="M23.3613 20.5156L25.2417 25.1603L27.331 20.6442" stroke="#07509F" stroke-width="1.5" stroke-miterlimit="10" stroke-linecap="round" stroke-linejoin="round"/>
</svg>
