<svg width="50" height="50" viewBox="0 0 50 50" fill="none" xmlns="http://www.w3.org/2000/svg">
<circle cx="25" cy="25" r="25" fill="#F7EEEA"/>
<path d="M35.1466 18.6484C35.1466 20.7618 30.5536 22.4751 24.8878 22.4751C19.222 22.4751 14.6289 20.7618 14.6289 18.6484" stroke="#FF6624" stroke-width="1.5" stroke-miterlimit="10" stroke-linecap="round" stroke-linejoin="round"/>
<path d="M35.1466 36.2627C35.1466 38.3779 30.5508 40.0893 24.8878 40.0893C19.2247 40.0893 14.6289 38.3779 14.6289 36.2627" stroke="#FF6624" stroke-width="1.5" stroke-miterlimit="10" stroke-linecap="round" stroke-linejoin="round"/>
<path d="M14.5527 35.9359V19.1006" stroke="#FF6624" stroke-width="1.5" stroke-miterlimit="10" stroke-linecap="round" stroke-linejoin="round"/>
<path d="M35.2344 35.9354V22.9268" stroke="#FF6624" stroke-width="1.5" stroke-miterlimit="10" stroke-linecap="round" stroke-linejoin="round"/>
<path d="M22.1777 31.926C22.8027 31.0991 23.8026 30.5703 24.9179 30.5703C26.0717 30.5703 27.0812 31.128 27.7062 31.9933" stroke="#FF6624" stroke-width="1.5" stroke-miterlimit="10" stroke-linecap="round" stroke-linejoin="round"/>
<path d="M19.7832 30.0029C20.9274 28.3395 22.8022 27.2627 24.9174 27.2627C27.0038 27.2627 28.8498 28.3107 29.994 29.9163" stroke="#FF6624" stroke-width="1.5" stroke-miterlimit="10" stroke-linecap="round" stroke-linejoin="round"/>
<path d="M24.9989 35.3112C25.4427 35.3112 25.8025 34.9515 25.8025 34.5077C25.8025 34.0639 25.4427 33.7041 24.9989 33.7041C24.5551 33.7041 24.1953 34.0639 24.1953 34.5077C24.1953 34.9515 24.5551 35.3112 24.9989 35.3112Z" fill="#FF6624"/>
<path d="M13.4094 15.9662C13.3144 15.9662 13.2344 15.9337 13.1694 15.8687C13.1044 15.8037 13.0719 15.7237 13.0719 15.6287V11.1512C13.0719 11.0162 13.1194 10.9012 13.2144 10.8062C13.3094 10.7062 13.4244 10.6562 13.5594 10.6562H13.8069C13.9069 10.6562 13.9969 10.6862 14.0769 10.7462C14.1619 10.8062 14.2244 10.8812 14.2644 10.9712L15.9669 15.2162L17.6694 10.9712C17.7094 10.8812 17.7694 10.8062 17.8494 10.7462C17.9344 10.6862 18.0269 10.6562 18.1269 10.6562H18.3744C18.5094 10.6562 18.6244 10.7062 18.7194 10.8062C18.8144 10.9012 18.8619 11.0162 18.8619 11.1512V15.6287C18.8619 15.7237 18.8294 15.8037 18.7644 15.8687C18.6994 15.9337 18.6194 15.9662 18.5244 15.9662C18.4294 15.9662 18.3469 15.9337 18.2769 15.8687C18.2119 15.8037 18.1794 15.7237 18.1794 15.6287V11.3687L16.4469 15.6512C16.4069 15.7462 16.3419 15.8237 16.2519 15.8837C16.1669 15.9387 16.0719 15.9662 15.9669 15.9662C15.8619 15.9662 15.7644 15.9387 15.6744 15.8837C15.5894 15.8237 15.5269 15.7462 15.4869 15.6512L13.7544 11.3687V15.6287C13.7544 15.7237 13.7194 15.8037 13.6494 15.8687C13.5844 15.9337 13.5044 15.9662 13.4094 15.9662ZM21.653 15.9287C21.558 15.9287 21.478 15.8962 21.413 15.8312C21.348 15.7662 21.3155 15.6862 21.3155 15.5912V11.0387C21.3155 10.9437 21.348 10.8637 21.413 10.7987C21.478 10.7287 21.558 10.6937 21.653 10.6937H24.6605C24.7505 10.6937 24.8255 10.7262 24.8855 10.7912C24.9505 10.8512 24.983 10.9262 24.983 11.0162C24.983 11.1062 24.9505 11.1812 24.8855 11.2412C24.8255 11.3012 24.7505 11.3312 24.6605 11.3312H21.998V12.9887H24.3905C24.4805 12.9887 24.5555 13.0212 24.6155 13.0862C24.6805 13.1462 24.713 13.2212 24.713 13.3112C24.713 13.4012 24.6805 13.4762 24.6155 13.5362C24.5555 13.5962 24.4805 13.6262 24.3905 13.6262H21.998V15.2912H24.6605C24.7505 15.2912 24.8255 15.3237 24.8855 15.3887C24.9505 15.4487 24.983 15.5237 24.983 15.6137C24.983 15.7037 24.9505 15.7787 24.8855 15.8387C24.8255 15.8987 24.7505 15.9287 24.6605 15.9287H21.653ZM28.7482 16.0037C28.1132 16.0037 27.5182 15.8837 26.9632 15.6437C26.9032 15.6187 26.8532 15.5787 26.8132 15.5237C26.7732 15.4637 26.7532 15.4012 26.7532 15.3362C26.7532 15.2512 26.7807 15.1787 26.8357 15.1187C26.8957 15.0537 26.9707 15.0212 27.0607 15.0212C27.1107 15.0212 27.1582 15.0312 27.2032 15.0512C27.6632 15.2562 28.1557 15.3587 28.6807 15.3587C29.5557 15.3587 29.9932 15.0712 29.9932 14.4962C29.9932 14.3462 29.9357 14.2212 29.8207 14.1212C29.7107 14.0212 29.5732 13.9437 29.4082 13.8887C29.2432 13.8287 29.0082 13.7587 28.7032 13.6787C28.2982 13.5737 27.9707 13.4737 27.7207 13.3787C27.4707 13.2787 27.2557 13.1312 27.0757 12.9362C26.8957 12.7412 26.8057 12.4812 26.8057 12.1562C26.8057 11.8712 26.8807 11.6137 27.0307 11.3837C27.1807 11.1487 27.4007 10.9637 27.6907 10.8287C27.9857 10.6887 28.3382 10.6187 28.7482 10.6187C29.2982 10.6187 29.7957 10.7012 30.2407 10.8662C30.3807 10.9162 30.4507 11.0162 30.4507 11.1662C30.4507 11.2462 30.4232 11.3187 30.3682 11.3837C30.3132 11.4487 30.2407 11.4812 30.1507 11.4812C30.1207 11.4812 30.0807 11.4712 30.0307 11.4512C29.6407 11.3162 29.2382 11.2487 28.8232 11.2487C28.4282 11.2487 28.1057 11.3237 27.8557 11.4737C27.6107 11.6237 27.4882 11.8337 27.4882 12.1037C27.4882 12.2837 27.5457 12.4312 27.6607 12.5462C27.7807 12.6562 27.9282 12.7437 28.1032 12.8087C28.2832 12.8687 28.5257 12.9337 28.8307 13.0037C29.2257 13.0987 29.5432 13.1937 29.7832 13.2887C30.0282 13.3837 30.2357 13.5312 30.4057 13.7312C30.5807 13.9312 30.6682 14.2012 30.6682 14.5412C30.6682 14.8212 30.5882 15.0737 30.4282 15.2987C30.2682 15.5187 30.0432 15.6912 29.7532 15.8162C29.4632 15.9412 29.1282 16.0037 28.7482 16.0037ZM33.0573 15.9662C32.9623 15.9662 32.8823 15.9337 32.8173 15.8687C32.7523 15.8037 32.7198 15.7237 32.7198 15.6287V11.0012C32.7198 10.9062 32.7523 10.8262 32.8173 10.7612C32.8823 10.6912 32.9623 10.6562 33.0573 10.6562C33.1523 10.6562 33.2323 10.6912 33.2973 10.7612C33.3673 10.8262 33.4023 10.9062 33.4023 11.0012V12.9962H36.2448V11.0012C36.2448 10.9062 36.2773 10.8262 36.3423 10.7612C36.4073 10.6912 36.4873 10.6562 36.5823 10.6562C36.6773 10.6562 36.7573 10.6912 36.8223 10.7612C36.8923 10.8262 36.9273 10.9062 36.9273 11.0012V15.6287C36.9273 15.7237 36.8923 15.8037 36.8223 15.8687C36.7573 15.9337 36.6773 15.9662 36.5823 15.9662C36.4873 15.9662 36.4073 15.9337 36.3423 15.8687C36.2773 15.8037 36.2448 15.7237 36.2448 15.6287V13.6337H33.4023V15.6287C33.4023 15.7237 33.3673 15.8037 33.2973 15.8687C33.2323 15.9337 33.1523 15.9662 33.0573 15.9662Z" fill="#07509F"/>
<path d="M13.1694 15.8687L13.3462 15.6919L13.3462 15.6919L13.1694 15.8687ZM13.2144 10.8062L13.3912 10.983L13.3956 10.9784L13.2144 10.8062ZM14.0769 10.7462L13.9268 10.9463L13.9327 10.9505L14.0769 10.7462ZM14.2644 10.9712L14.4966 10.8781L14.4928 10.8697L14.2644 10.9712ZM15.9669 15.2162L15.7348 15.3093L15.9669 15.8878L16.1989 15.3093L15.9669 15.2162ZM17.6694 10.9712L17.4408 10.8696L17.4373 10.8782L17.6694 10.9712ZM17.8494 10.7462L17.7051 10.5419L17.6994 10.5462L17.8494 10.7462ZM18.7194 10.8062L18.5381 10.9785L18.5426 10.983L18.7194 10.8062ZM18.7644 15.8687L18.9412 16.0455L18.9412 16.0455L18.7644 15.8687ZM18.2769 15.8687L18.1 16.0456L18.1068 16.0519L18.2769 15.8687ZM18.1794 11.3687H18.4294L17.9476 11.275L18.1794 11.3687ZM16.4469 15.6512L16.6773 15.7482L16.6786 15.745L16.4469 15.6512ZM16.2519 15.8837L16.3877 16.0936L16.3906 16.0917L16.2519 15.8837ZM15.6744 15.8837L15.5302 16.088L15.537 16.0927L15.544 16.097L15.6744 15.8837ZM15.4869 15.6512L15.2551 15.745L15.2565 15.7482L15.4869 15.6512ZM13.7544 11.3687L13.9861 11.275L13.5044 11.3687H13.7544ZM13.6494 15.8687L13.4791 15.6854L13.4726 15.6919L13.6494 15.8687ZM13.4094 15.7162C13.3782 15.7162 13.3625 15.7083 13.3462 15.6919L12.9926 16.0455C13.1062 16.1591 13.2506 16.2162 13.4094 16.2162V15.7162ZM13.3462 15.6919C13.3298 15.6755 13.3219 15.6599 13.3219 15.6287H12.8219C12.8219 15.7875 12.879 15.9319 12.9926 16.0455L13.3462 15.6919ZM13.3219 15.6287V11.1512H12.8219V15.6287H13.3219ZM13.3219 11.1512C13.3219 11.0822 13.3433 11.0308 13.3912 10.983L13.0376 10.6294C12.8955 10.7716 12.8219 10.9503 12.8219 11.1512H13.3219ZM13.3956 10.9784C13.4446 10.9269 13.4946 10.9062 13.5594 10.9062V10.4062C13.3542 10.4062 13.1742 10.4856 13.0331 10.634L13.3956 10.9784ZM13.5594 10.9062H13.8069V10.4062H13.5594V10.9062ZM13.8069 10.9062C13.8528 10.9062 13.8902 10.9187 13.9269 10.9462L14.2269 10.5462C14.1036 10.4538 13.961 10.4062 13.8069 10.4062V10.9062ZM13.9327 10.9505C13.983 10.986 14.0153 11.0263 14.0359 11.0727L14.4928 10.8697C14.4335 10.7361 14.3407 10.6264 14.221 10.542L13.9327 10.9505ZM14.0323 11.0643L15.7348 15.3093L16.1989 15.1232L14.4964 10.8782L14.0323 11.0643ZM16.1989 15.3093L17.9014 11.0643L17.4373 10.8782L15.7348 15.1232L16.1989 15.3093ZM17.8978 11.0727C17.9202 11.0223 17.953 10.981 17.9994 10.9462L17.6994 10.5462C17.5858 10.6314 17.4985 10.7401 17.4409 10.8697L17.8978 11.0727ZM17.9935 10.9505C18.0382 10.9189 18.0807 10.9062 18.1269 10.9062V10.4062C17.9731 10.4062 17.8306 10.4535 17.7052 10.542L17.9935 10.9505ZM18.1269 10.9062H18.3744V10.4062H18.1269V10.9062ZM18.3744 10.9062C18.4392 10.9062 18.4892 10.9269 18.5381 10.9784L18.9006 10.634C18.7596 10.4856 18.5796 10.4062 18.3744 10.4062V10.9062ZM18.5426 10.983C18.5905 11.0308 18.6119 11.0822 18.6119 11.1512H19.1119C19.1119 10.9503 19.0383 10.7716 18.8962 10.6294L18.5426 10.983ZM18.6119 11.1512V15.6287H19.1119V11.1512H18.6119ZM18.6119 15.6287C18.6119 15.6599 18.604 15.6755 18.5876 15.6919L18.9412 16.0455C19.0548 15.9319 19.1119 15.7875 19.1119 15.6287H18.6119ZM18.5876 15.6919C18.5712 15.7083 18.5556 15.7162 18.5244 15.7162V16.2162C18.6832 16.2162 18.8275 16.1591 18.9412 16.0455L18.5876 15.6919ZM18.5244 15.7162C18.4929 15.7162 18.471 15.7078 18.447 15.6855L18.1068 16.0519C18.2227 16.1596 18.3659 16.2162 18.5244 16.2162V15.7162ZM18.4537 15.6919C18.4373 15.6755 18.4294 15.6599 18.4294 15.6287H17.9294C17.9294 15.7875 17.9865 15.9319 18.1001 16.0455L18.4537 15.6919ZM18.4294 15.6287V11.3687H17.9294V15.6287H18.4294ZM17.9476 11.275L16.2151 15.5575L16.6786 15.745L18.4111 11.4625L17.9476 11.275ZM16.2165 15.5542C16.1965 15.6017 16.1645 15.6415 16.1132 15.6757L16.3906 16.0917C16.5192 16.0059 16.6173 15.8907 16.6773 15.7482L16.2165 15.5542ZM16.1161 15.6738C16.0731 15.7016 16.0256 15.7162 15.9669 15.7162V16.2162C16.1182 16.2162 16.2607 16.1758 16.3877 16.0936L16.1161 15.6738ZM15.9669 15.7162C15.9081 15.7162 15.8557 15.7015 15.8047 15.6704L15.544 16.097C15.6731 16.1759 15.8157 16.2162 15.9669 16.2162V15.7162ZM15.8185 15.6795C15.7714 15.6462 15.739 15.6057 15.7173 15.5542L15.2565 15.7482C15.3148 15.8868 15.4074 16.0012 15.5302 16.088L15.8185 15.6795ZM15.7186 15.5575L13.9861 11.275L13.5226 11.4625L15.2551 15.745L15.7186 15.5575ZM13.5044 11.3687V15.6287H14.0044V11.3687H13.5044ZM13.5044 15.6287C13.5044 15.6538 13.4986 15.6675 13.4793 15.6855L13.8195 16.0519C13.9401 15.9399 14.0044 15.7937 14.0044 15.6287H13.5044ZM13.4726 15.6919C13.4562 15.7083 13.4406 15.7162 13.4094 15.7162V16.2162C13.5682 16.2162 13.7125 16.1591 13.8262 16.0455L13.4726 15.6919ZM21.413 15.8312L21.5898 15.6544L21.5898 15.6544L21.413 15.8312ZM21.413 10.7987L21.5899 10.9756L21.5962 10.9688L21.413 10.7987ZM24.8855 10.7912L24.7018 10.9608L24.7086 10.9681L24.716 10.9749L24.8855 10.7912ZM24.8855 11.2412L24.7158 11.0574L24.7088 11.0644L24.8855 11.2412ZM21.998 11.3312V11.0812H21.748V11.3312H21.998ZM21.998 12.9887H21.748V13.2387H21.998V12.9887ZM24.6155 13.0862L24.4318 13.2558L24.4386 13.2631L24.446 13.2699L24.6155 13.0862ZM24.6155 13.5362L24.4458 13.3524L24.4388 13.3594L24.6155 13.5362ZM21.998 13.6262V13.3762H21.748V13.6262H21.998ZM21.998 15.2912H21.748V15.5412H21.998V15.2912ZM24.8855 15.3887L24.7018 15.5583L24.7086 15.5656L24.716 15.5724L24.8855 15.3887ZM24.8855 15.8387L24.7158 15.6549L24.7088 15.6619L24.8855 15.8387ZM21.653 15.6787C21.6219 15.6787 21.6062 15.6708 21.5898 15.6544L21.2363 16.008C21.3499 16.1216 21.4942 16.1787 21.653 16.1787V15.6787ZM21.5898 15.6544C21.5734 15.638 21.5655 15.6224 21.5655 15.5912H21.0655C21.0655 15.75 21.1226 15.8944 21.2363 16.008L21.5898 15.6544ZM21.5655 15.5912V11.0387H21.0655V15.5912H21.5655ZM21.5655 11.0387C21.5655 11.0075 21.5734 10.9919 21.5898 10.9755L21.2363 10.6219C21.1226 10.7355 21.0655 10.8799 21.0655 11.0387H21.5655ZM21.5962 10.9688C21.6142 10.9494 21.628 10.9437 21.653 10.9437V10.4437C21.4881 10.4437 21.3418 10.508 21.2298 10.6286L21.5962 10.9688ZM21.653 10.9437H24.6605V10.4437H21.653V10.9437ZM24.6605 10.9437C24.6821 10.9437 24.6901 10.9481 24.7018 10.9608L25.0692 10.6216C24.961 10.5044 24.8189 10.4437 24.6605 10.4437V10.9437ZM24.716 10.9749C24.7287 10.9867 24.733 10.9946 24.733 11.0162H25.233C25.233 10.8578 25.1724 10.7158 25.0551 10.6075L24.716 10.9749ZM24.733 11.0162C24.733 11.0378 24.7287 11.0458 24.716 11.0575L25.0551 11.4249C25.1724 11.3167 25.233 11.1746 25.233 11.0162H24.733ZM24.7088 11.0644C24.6987 11.0745 24.6887 11.0812 24.6605 11.0812V11.5812C24.8124 11.5812 24.9524 11.5279 25.0623 11.418L24.7088 11.0644ZM24.6605 11.0812H21.998V11.5812H24.6605V11.0812ZM21.748 11.3312V12.9887H22.248V11.3312H21.748ZM21.998 13.2387H24.3905V12.7387H21.998V13.2387ZM24.3905 13.2387C24.4121 13.2387 24.4201 13.2431 24.4318 13.2558L24.7992 12.9166C24.691 12.7994 24.5489 12.7387 24.3905 12.7387V13.2387ZM24.446 13.2699C24.4587 13.2817 24.463 13.2896 24.463 13.3112H24.963C24.963 13.1528 24.9024 13.0108 24.7851 12.9025L24.446 13.2699ZM24.463 13.3112C24.463 13.3328 24.4587 13.3408 24.446 13.3525L24.7851 13.7199C24.9024 13.6117 24.963 13.4696 24.963 13.3112H24.463ZM24.4388 13.3594C24.4287 13.3695 24.4187 13.3762 24.3905 13.3762V13.8762C24.5424 13.8762 24.6824 13.8229 24.7923 13.713L24.4388 13.3594ZM24.3905 13.3762H21.998V13.8762H24.3905V13.3762ZM21.748 13.6262V15.2912H22.248V13.6262H21.748ZM21.998 15.5412H24.6605V15.0412H21.998V15.5412ZM24.6605 15.5412C24.6821 15.5412 24.6901 15.5456 24.7018 15.5583L25.0692 15.2191C24.961 15.1019 24.8189 15.0412 24.6605 15.0412V15.5412ZM24.716 15.5724C24.7287 15.5842 24.733 15.5921 24.733 15.6137H25.233C25.233 15.4553 25.1724 15.3133 25.0551 15.205L24.716 15.5724ZM24.733 15.6137C24.733 15.6353 24.7287 15.6433 24.716 15.655L25.0551 16.0224C25.1724 15.9142 25.233 15.7721 25.233 15.6137H24.733ZM24.7088 15.6619C24.6987 15.672 24.6887 15.6787 24.6605 15.6787V16.1787C24.8124 16.1787 24.9524 16.1254 25.0623 16.0155L24.7088 15.6619ZM24.6605 15.6787H21.653V16.1787H24.6605V15.6787ZM26.9632 15.6437L27.0625 15.4142L27.0594 15.4129L26.9632 15.6437ZM26.8132 15.5237L26.6051 15.6625L26.6111 15.6708L26.8132 15.5237ZM26.8357 15.1187L26.652 14.9491L26.6515 14.9498L26.8357 15.1187ZM27.2032 15.0512L27.305 14.8229L27.3048 14.8228L27.2032 15.0512ZM29.8207 14.1212L29.6525 14.3062L29.6567 14.3099L29.8207 14.1212ZM29.4082 13.8887L29.3228 14.1237L29.3292 14.1259L29.4082 13.8887ZM28.7032 13.6787L28.7667 13.4369L28.766 13.4367L28.7032 13.6787ZM27.7207 13.3787L27.6279 13.6109L27.6319 13.6124L27.7207 13.3787ZM27.0757 12.9362L26.892 13.1058L26.892 13.1058L27.0757 12.9362ZM27.0307 11.3837L27.2402 11.5203L27.2415 11.5182L27.0307 11.3837ZM27.6907 10.8287L27.7963 11.0554L27.7979 11.0546L27.6907 10.8287ZM30.2407 10.8662L30.1538 11.1006L30.1567 11.1016L30.2407 10.8662ZM30.3682 11.3837L30.5591 11.5452L30.5591 11.5452L30.3682 11.3837ZM30.0307 11.4512L30.1237 11.2188L30.1125 11.215L30.0307 11.4512ZM27.8557 11.4737L27.7271 11.2593L27.7252 11.2605L27.8557 11.4737ZM27.6607 12.5462L27.4838 12.7232L27.4918 12.7305L27.6607 12.5462ZM28.1032 12.8087L28.0161 13.0432L28.0242 13.0459L28.1032 12.8087ZM28.8307 13.0037L28.8892 12.7606L28.8867 12.76L28.8307 13.0037ZM29.7832 13.2887L29.6912 13.5212L29.6929 13.5218L29.7832 13.2887ZM30.4057 13.7312L30.2152 13.8931L30.2176 13.8958L30.4057 13.7312ZM30.4282 15.2987L30.6304 15.4458L30.632 15.4436L30.4282 15.2987ZM29.7532 15.8162L29.8522 16.0458L29.8522 16.0458L29.7532 15.8162ZM28.7482 15.7537C28.1456 15.7537 27.5846 15.64 27.0625 15.4142L26.864 15.8732C27.4519 16.1274 28.0809 16.2537 28.7482 16.2537V15.7537ZM27.0594 15.4129C27.0438 15.4064 27.0297 15.3964 27.0154 15.3767L26.6111 15.6708C26.6767 15.7611 26.7627 15.831 26.8671 15.8745L27.0594 15.4129ZM27.0213 15.385C27.0055 15.3614 27.0032 15.3465 27.0032 15.3362H26.5032C26.5032 15.4559 26.541 15.566 26.6052 15.6624L27.0213 15.385ZM27.0032 15.3362C27.0032 15.3107 27.0093 15.2993 27.02 15.2876L26.6515 14.9498C26.5522 15.0581 26.5032 15.1917 26.5032 15.3362H27.0032ZM27.0194 15.2883C27.0312 15.2756 27.0391 15.2712 27.0607 15.2712V14.7712C26.9024 14.7712 26.7603 14.8319 26.652 14.9491L27.0194 15.2883ZM27.0607 15.2712C27.0763 15.2712 27.0892 15.2741 27.1017 15.2797L27.3048 14.8228C27.2273 14.7883 27.1452 14.7712 27.0607 14.7712V15.2712ZM27.1015 15.2796C27.5949 15.4994 28.1222 15.6087 28.6807 15.6087V15.1087C28.1893 15.1087 27.7316 15.013 27.305 14.8229L27.1015 15.2796ZM28.6807 15.6087C29.1377 15.6087 29.5238 15.5351 29.8024 15.352C30.0993 15.1569 30.2432 14.8581 30.2432 14.4962H29.7432C29.7432 14.7093 29.6684 14.8418 29.5278 14.9342C29.3689 15.0386 29.0988 15.1087 28.6807 15.1087V15.6087ZM30.2432 14.4962C30.2432 14.2725 30.1534 14.0792 29.9848 13.9326L29.6567 14.3099C29.7181 14.3633 29.7432 14.4199 29.7432 14.4962H30.2432ZM29.9889 13.9362C29.8492 13.8092 29.6798 13.7157 29.4873 13.6515L29.3292 14.1259C29.4667 14.1717 29.5723 14.2332 29.6526 14.3062L29.9889 13.9362ZM29.4937 13.6538C29.3179 13.5898 29.0743 13.5176 28.7667 13.4369L28.6398 13.9205C28.9422 13.9999 29.1686 14.0676 29.3228 14.1237L29.4937 13.6538ZM28.766 13.4367C28.3655 13.3329 28.0477 13.2355 27.8095 13.145L27.6319 13.6124C27.8938 13.7119 28.231 13.8145 28.6405 13.9207L28.766 13.4367ZM27.8136 13.1466C27.5976 13.0602 27.4138 12.9339 27.2594 12.7666L26.892 13.1058C27.0977 13.3285 27.3439 13.4972 27.6279 13.6108L27.8136 13.1466ZM27.2594 12.7666C27.1312 12.6277 27.0557 12.4332 27.0557 12.1562H26.5557C26.5557 12.5292 26.6603 12.8547 26.892 13.1058L27.2594 12.7666ZM27.0557 12.1562C27.0557 11.9178 27.1177 11.7081 27.2401 11.5203L26.8213 11.2471C26.6438 11.5194 26.5557 11.8247 26.5557 12.1562H27.0557ZM27.2415 11.5182C27.3623 11.329 27.5429 11.1733 27.7963 11.0554L27.5852 10.6021C27.2586 10.7541 26.9992 10.9685 26.82 11.2492L27.2415 11.5182ZM27.7979 11.0546C28.052 10.934 28.3661 10.8687 28.7482 10.8687V10.3687C28.3104 10.3687 27.9195 10.4434 27.5836 10.6029L27.7979 11.0546ZM28.7482 10.8687C29.2732 10.8687 29.7407 10.9474 30.1538 11.1006L30.3277 10.6318C29.8508 10.455 29.3233 10.3687 28.7482 10.3687V10.8687ZM30.1567 11.1016C30.1731 11.1075 30.1825 11.1131 30.1873 11.1165C30.1918 11.1197 30.1931 11.1216 30.1934 11.1221C30.1938 11.1225 30.1953 11.1247 30.1969 11.1305C30.1986 11.1367 30.2007 11.148 30.2007 11.1662H30.7007C30.7007 11.0518 30.6736 10.9362 30.6031 10.8353C30.5324 10.7344 30.4328 10.6693 30.3248 10.6308L30.1567 11.1016ZM30.2007 11.1662C30.2007 11.1831 30.1969 11.1992 30.1774 11.2222L30.5591 11.5452C30.6496 11.4382 30.7007 11.3093 30.7007 11.1662H30.2007ZM30.1774 11.2222C30.1746 11.2256 30.1727 11.2272 30.1719 11.2278C30.1711 11.2284 30.1707 11.2286 30.1704 11.2287C30.1703 11.2287 30.1652 11.2312 30.1507 11.2312V11.7312C30.3095 11.7312 30.4536 11.6699 30.5591 11.5452L30.1774 11.2222ZM30.1507 11.2312C30.1569 11.2312 30.1608 11.2317 30.1617 11.2318C30.1627 11.232 30.1619 11.2319 30.1589 11.2312C30.1526 11.2296 30.1411 11.2261 30.1236 11.2191L29.9379 11.6833C29.9977 11.7073 30.073 11.7312 30.1507 11.7312V11.2312ZM30.1125 11.215C29.6961 11.0708 29.2659 10.9987 28.8232 10.9987V11.4987C29.2106 11.4987 29.5854 11.5616 29.949 11.6875L30.1125 11.215ZM28.8232 10.9987C28.3984 10.9987 28.0274 11.0792 27.7271 11.2593L27.9844 11.6881C28.1841 11.5683 28.458 11.4987 28.8232 11.4987V10.9987ZM27.7252 11.2605C27.4117 11.4524 27.2382 11.7402 27.2382 12.1037H27.7382C27.7382 11.9273 27.8098 11.795 27.9863 11.6869L27.7252 11.2605ZM27.2382 12.1037C27.2382 12.3423 27.3169 12.5559 27.484 12.723L27.8375 12.3694C27.7746 12.3065 27.7382 12.2252 27.7382 12.1037H27.2382ZM27.4918 12.7305C27.6389 12.8653 27.8153 12.9685 28.0162 13.0431L28.1903 12.5744C28.0412 12.519 27.9226 12.4471 27.8297 12.3619L27.4918 12.7305ZM28.0242 13.0459C28.2151 13.1095 28.4663 13.1766 28.7748 13.2474L28.8867 12.76C28.5852 12.6909 28.3514 12.6279 28.1823 12.5715L28.0242 13.0459ZM28.7723 13.2468C29.1615 13.3404 29.4665 13.4322 29.6912 13.5212L29.8753 13.0563C29.62 12.9552 29.2899 12.857 28.8892 12.7606L28.7723 13.2468ZM29.6929 13.5218C29.8991 13.6018 30.0722 13.7248 30.2153 13.8931L30.5962 13.5693C30.3993 13.3376 30.1574 13.1656 29.8736 13.0556L29.6929 13.5218ZM30.2176 13.8958C30.3426 14.0387 30.4182 14.2444 30.4182 14.5412H30.9182C30.9182 14.158 30.8189 13.8237 30.5939 13.5666L30.2176 13.8958ZM30.4182 14.5412C30.4182 14.7701 30.354 14.9718 30.2245 15.1538L30.632 15.4436C30.8225 15.1756 30.9182 14.8723 30.9182 14.5412H30.4182ZM30.2261 15.1517C30.0964 15.3299 29.9098 15.4765 29.6543 15.5866L29.8522 16.0458C30.1767 15.9059 30.4401 15.7075 30.6304 15.4458L30.2261 15.1517ZM29.6543 15.5866C29.4012 15.6957 29.101 15.7537 28.7482 15.7537V16.2537C29.1555 16.2537 29.5253 16.1867 29.8522 16.0458L29.6543 15.5866ZM32.8173 15.8687L32.9941 15.6919L32.9941 15.6919L32.8173 15.8687ZM32.8173 10.7612L32.9942 10.9381L33.0005 10.9313L32.8173 10.7612ZM33.2973 10.7612L33.1141 10.9313L33.1204 10.9381L33.1272 10.9444L33.2973 10.7612ZM33.4023 12.9962H33.1523V13.2462H33.4023V12.9962ZM36.2448 12.9962V13.2462H36.4948V12.9962H36.2448ZM36.3423 10.7612L36.5192 10.9381L36.5255 10.9313L36.3423 10.7612ZM36.8223 10.7612L36.6391 10.9313L36.6454 10.9381L36.6522 10.9444L36.8223 10.7612ZM36.8223 15.8687L36.6521 15.6854L36.6456 15.6919L36.8223 15.8687ZM36.3423 15.8687L36.1656 16.0455L36.1656 16.0455L36.3423 15.8687ZM36.2448 13.6337H36.4948V13.3837H36.2448V13.6337ZM33.4023 13.6337V13.3837H33.1523V13.6337H33.4023ZM33.2973 15.8687L33.1271 15.6854L33.1206 15.6919L33.2973 15.8687ZM33.0573 15.7162C33.0262 15.7162 33.0105 15.7083 32.9941 15.6919L32.6406 16.0455C32.7542 16.1591 32.8985 16.2162 33.0573 16.2162V15.7162ZM32.9941 15.6919C32.9777 15.6755 32.9698 15.6599 32.9698 15.6287H32.4698C32.4698 15.7875 32.5269 15.9319 32.6406 16.0455L32.9941 15.6919ZM32.9698 15.6287V11.0012H32.4698V15.6287H32.9698ZM32.9698 11.0012C32.9698 10.97 32.9777 10.9544 32.9941 10.938L32.6406 10.5844C32.5269 10.698 32.4698 10.8424 32.4698 11.0012H32.9698ZM33.0005 10.9313C33.0185 10.9119 33.0323 10.9062 33.0573 10.9062V10.4062C32.8924 10.4062 32.7461 10.4705 32.6341 10.5911L33.0005 10.9313ZM33.0573 10.9062C33.0824 10.9062 33.0961 10.9119 33.1141 10.9313L33.4805 10.5911C33.3685 10.4705 33.2223 10.4062 33.0573 10.4062V10.9062ZM33.1272 10.9444C33.1466 10.9624 33.1523 10.9762 33.1523 11.0012H33.6523C33.6523 10.8363 33.5881 10.69 33.4674 10.578L33.1272 10.9444ZM33.1523 11.0012V12.9962H33.6523V11.0012H33.1523ZM33.4023 13.2462H36.2448V12.7462H33.4023V13.2462ZM36.4948 12.9962V11.0012H35.9948V12.9962H36.4948ZM36.4948 11.0012C36.4948 10.97 36.5027 10.9544 36.5191 10.938L36.1656 10.5844C36.0519 10.698 35.9948 10.8424 35.9948 11.0012H36.4948ZM36.5255 10.9313C36.5435 10.9119 36.5573 10.9062 36.5823 10.9062V10.4062C36.4174 10.4062 36.2711 10.4705 36.1591 10.5911L36.5255 10.9313ZM36.5823 10.9062C36.6074 10.9062 36.6211 10.9119 36.6391 10.9313L37.0055 10.5911C36.8935 10.4705 36.7473 10.4062 36.5823 10.4062V10.9062ZM36.6522 10.9444C36.6716 10.9624 36.6773 10.9762 36.6773 11.0012H37.1773C37.1773 10.8363 37.1131 10.69 36.9924 10.578L36.6522 10.9444ZM36.6773 11.0012V15.6287H37.1773V11.0012H36.6773ZM36.6773 15.6287C36.6773 15.6538 36.6716 15.6675 36.6522 15.6855L36.9924 16.0519C37.1131 15.9399 37.1773 15.7937 37.1773 15.6287H36.6773ZM36.6456 15.6919C36.6292 15.7083 36.6135 15.7162 36.5823 15.7162V16.2162C36.7412 16.2162 36.8855 16.1591 36.9991 16.0455L36.6456 15.6919ZM36.5823 15.7162C36.5512 15.7162 36.5355 15.7083 36.5191 15.6919L36.1656 16.0455C36.2792 16.1591 36.4235 16.2162 36.5823 16.2162V15.7162ZM36.5191 15.6919C36.5027 15.6755 36.4948 15.6599 36.4948 15.6287H35.9948C35.9948 15.7875 36.0519 15.9319 36.1656 16.0455L36.5191 15.6919ZM36.4948 15.6287V13.6337H35.9948V15.6287H36.4948ZM36.2448 13.3837H33.4023V13.8837H36.2448V13.3837ZM33.1523 13.6337V15.6287H33.6523V13.6337H33.1523ZM33.1523 15.6287C33.1523 15.6538 33.1466 15.6675 33.1272 15.6855L33.4674 16.0519C33.5881 15.9399 33.6523 15.7937 33.6523 15.6287H33.1523ZM33.1206 15.6919C33.1042 15.7083 33.0885 15.7162 33.0573 15.7162V16.2162C33.2162 16.2162 33.3605 16.1591 33.4741 16.0455L33.1206 15.6919Z" fill="#07509F"/>
</svg>
