<svg xmlns="http://www.w3.org/2000/svg" xmlns:xlink="http://www.w3.org/1999/xlink" width="30" height="30" viewBox="0 0 30 30">
  <defs>
    <clipPath id="clip-path">
      <rect id="Rectangle_56798" data-name="Rectangle 56798" width="25.101" height="25.086" transform="translate(0 0)" fill="none"/>
    </clipPath>
    <clipPath id="clip-icon-inc-12-hours-restoration">
      <rect width="30" height="30"/>
    </clipPath>
  </defs>
  <g id="icon-inc-12-hours-restoration" clip-path="url(#clip-icon-inc-12-hours-restoration)">
    <g id="Group_134903" data-name="Group 134903" transform="translate(3 3.162)">
      <g id="Group_134676" data-name="Group 134676">
        <g id="Group_134680" data-name="Group 134680">
          <path id="Path_113634" data-name="Path 113634" d="M1.044,10.873l1.525.007c.24,0,.5.179.467.418a.407.407,0,0,1-.407.407H.99a5.519,5.519,0,0,0,.058.738,21.576,21.576,0,0,0,.543,2.3,9.615,9.615,0,0,0,1.821,3.186,10.265,10.265,0,0,0,3.674,2.794,9.25,9.25,0,0,0,2.587.769c.392.051.783.111,1.176.141.3.023.459.13.468.383a.428.428,0,0,1-.415.441h-.038a3.814,3.814,0,0,1-.762-.049c-.682-.131-1.368-.253-2.036-.438a10.319,10.319,0,0,1-3.48-1.77,11.242,11.242,0,0,1-3.63-4.751,11.842,11.842,0,0,1-.685-2.5c-.044-.252-.067-.507-.1-.761V10.4c.016-.032.046-.063.048-.1A9.409,9.409,0,0,1,.646,8.045a11.148,11.148,0,0,1,1.5-3.115,10.857,10.857,0,0,1,2.238-2.4,10.668,10.668,0,0,1,2.56-1.506A10.884,10.884,0,0,1,9.621.266c.274-.037.546-.094.819-.142h1.7c.249.048.5.113.749.142a10.815,10.815,0,0,1,5.34,2.258,10.945,10.945,0,0,1,1.833,1.849,11.08,11.08,0,0,1,1.3,2.048,9.965,9.965,0,0,1,.952,3.035c.053.391.109.781.169,1.208.06-.049.114-.087.16-.133.469-.467.94-.932,1.4-1.4a.482.482,0,0,1,.529-.108.441.441,0,0,1,.21.3.414.414,0,0,1-.1.321c-.763.778-1.535,1.547-2.308,2.315a.435.435,0,0,1-.613.05.4.4,0,0,1-.054-.055c-.721-.717-1.445-1.432-2.153-2.163a.7.7,0,0,1-.219-.491c.043-.323.374-.418.654-.227a1.58,1.58,0,0,1,.221.178c.462.459.922.922,1.4,1.4A10.264,10.264,0,0,0,11.747,1c0,.352.013.7-.006,1.055a.628.628,0,0,1-.143.4.579.579,0,0,1-.426.109.328.328,0,0,1-.25-.36V1.044L10.882,1c-.525.059-1.051.1-1.573.179A8.9,8.9,0,0,0,6.368,2.215,10.165,10.165,0,0,0,4.361,3.653a10.37,10.37,0,0,0-2,2.491,8.883,8.883,0,0,0-1.018,2.5c-.135.6-.2,1.222-.3,1.835-.018.116-.029.233-.043.35Z" fill="#1800e1"/>
          <path id="Path_113635" data-name="Path 113635" d="M2.569,10.878c.24,0,.5.179.467.418a.407.407,0,0,1-.407.407H.99a5.519,5.519,0,0,0,.058.738,21.576,21.576,0,0,0,.543,2.3,9.615,9.615,0,0,0,1.821,3.186,10.265,10.265,0,0,0,3.674,2.794,9.251,9.251,0,0,0,2.587.769c.392.051.783.111,1.176.141.3.023.459.13.468.383a.428.428,0,0,1-.415.441h-.038a3.814,3.814,0,0,1-.762-.049c-.682-.131-1.368-.253-2.036-.438A10.333,10.333,0,0,1,4.586,20.2,11.1,11.1,0,0,1,.646,8.045a11.878,11.878,0,0,1,1.5-3.115,10.857,10.857,0,0,1,2.238-2.4,10.668,10.668,0,0,1,2.56-1.506A12.08,12.08,0,0,1,8.664.453a11.387,11.387,0,0,1,9.565,2.071,10.945,10.945,0,0,1,1.833,1.849,11.08,11.08,0,0,1,1.3,2.048,9.965,9.965,0,0,1,.952,3.035c.053.391.109.781.169,1.208.06-.049.114-.087.16-.133.469-.467.94-.932,1.4-1.4a.482.482,0,0,1,.529-.108.441.441,0,0,1,.21.3.414.414,0,0,1-.1.321c-.763.778-1.535,1.547-2.308,2.315a.435.435,0,0,1-.613.05.4.4,0,0,1-.054-.055c-.721-.717-1.445-1.432-2.153-2.163a.7.7,0,0,1-.219-.491c.043-.323.374-.418.654-.227a1.511,1.511,0,0,1,.221.178c.462.459.922.922,1.4,1.4A10.264,10.264,0,0,0,11.747,1c0,.352.013.7-.006,1.055a.628.628,0,0,1-.143.4.579.579,0,0,1-.426.109.328.328,0,0,1-.25-.36V1.044L10.882,1c-.525.059-1.051.1-1.573.179A8.9,8.9,0,0,0,6.368,2.215,10.165,10.165,0,0,0,4.361,3.653a10.37,10.37,0,0,0-2,2.491,8.871,8.871,0,0,0-1.018,2.5c-.135.6-.2,1.222-.3,1.835-.022.367,1.018.394,1.526.4" fill="#1800e1"/>
          <path id="Path_113636" data-name="Path 113636" d="M2.569,10.878c.24,0,.5.179.467.418a.407.407,0,0,1-.407.407H.99a5.519,5.519,0,0,0,.058.738,21.576,21.576,0,0,0,.543,2.3,9.615,9.615,0,0,0,1.821,3.186,10.265,10.265,0,0,0,3.674,2.794,9.251,9.251,0,0,0,2.587.769c.392.051.783.111,1.176.141.3.023.459.13.468.383a.428.428,0,0,1-.415.441h-.038a3.814,3.814,0,0,1-.762-.049c-.682-.131-1.368-.253-2.036-.438A10.333,10.333,0,0,1,4.586,20.2,11.1,11.1,0,0,1,.646,8.045a11.878,11.878,0,0,1,1.5-3.115,10.857,10.857,0,0,1,2.238-2.4,10.668,10.668,0,0,1,2.56-1.506A12.08,12.08,0,0,1,8.664.453a11.387,11.387,0,0,1,9.565,2.071,10.945,10.945,0,0,1,1.833,1.849,11.08,11.08,0,0,1,1.3,2.048,9.965,9.965,0,0,1,.952,3.035c.053.391.109.781.169,1.208.06-.049.114-.087.16-.133.469-.467.94-.932,1.4-1.4a.482.482,0,0,1,.529-.108.441.441,0,0,1,.21.3.414.414,0,0,1-.1.321c-.763.778-1.535,1.547-2.308,2.315a.435.435,0,0,1-.613.05.4.4,0,0,1-.054-.055c-.721-.717-1.445-1.432-2.153-2.163a.7.7,0,0,1-.219-.491c.043-.323.374-.418.654-.227a1.511,1.511,0,0,1,.221.178c.462.459.922.922,1.4,1.4A10.264,10.264,0,0,0,11.747,1c0,.352.013.7-.006,1.055a.628.628,0,0,1-.143.4.579.579,0,0,1-.426.109.328.328,0,0,1-.25-.36V1.044L10.882,1c-.525.059-1.051.1-1.573.179A8.9,8.9,0,0,0,6.368,2.215,10.165,10.165,0,0,0,4.361,3.653a10.37,10.37,0,0,0-2,2.491,8.871,8.871,0,0,0-1.018,2.5c-.135.6-.2,1.222-.3,1.835C1.021,10.846,2.061,10.873,2.569,10.878Z" fill="none" stroke="#1800e1" stroke-miterlimit="10" stroke-width="0.5"/>
          <path id="Path_113637" data-name="Path 113637" d="M10.1,11.054c.034-.157.077-.149.069-.228-.015-.136-.143-.232-.251-.34C9.344,9.9,8.756,9.328,8.186,8.735a.6.6,0,0,1-.176-.423c.059-.371.44-.461.716-.187q.945.938,1.883,1.883a.845.845,0,0,0,.175.122,1.182,1.182,0,0,0,1.062,0,.5.5,0,0,0,.148-.1Q14.1,7.914,16.22,5.8a.439.439,0,0,1,.615-.075h0a.388.388,0,0,1,.031.026c.185.184.167.4-.057.622q-2.019,2.021-4.04,4.04c-.328.328-.319.327-.248.76a1.155,1.155,0,0,1-.863,1.3,1.2,1.2,0,0,1-1.513-.786v0c-.009-.028-.017-.057-.024-.086a.5.5,0,0,1-.016-.075,1.182,1.182,0,0,1,0-.474m.817.246a.385.385,0,0,0,.361.406h.01a.5.5,0,0,0,.442-.41.435.435,0,0,0-.456-.413.376.376,0,0,0-.359.392V11.3" fill="#1800e1"/>
          <path id="Path_113638" data-name="Path 113638" d="M10.1,11.054c.034-.157.077-.149.069-.228-.015-.136-.143-.232-.251-.34C9.344,9.9,8.756,9.328,8.186,8.735a.6.6,0,0,1-.176-.423c.059-.371.44-.461.716-.187q.945.938,1.883,1.883a.845.845,0,0,0,.175.122,1.182,1.182,0,0,0,1.062,0,.5.5,0,0,0,.148-.1Q14.1,7.914,16.22,5.8a.439.439,0,0,1,.615-.075h0a.388.388,0,0,1,.031.026c.185.184.167.4-.057.622q-2.019,2.021-4.04,4.04c-.328.328-.319.327-.248.76a1.155,1.155,0,0,1-.863,1.3,1.2,1.2,0,0,1-1.513-.786v0c-.009-.028-.017-.057-.024-.086a.5.5,0,0,1-.016-.075,1.209,1.209,0,0,1,0-.472m.817.246a.385.385,0,0,0,.361.406h.01a.5.5,0,0,0,.442-.41.435.435,0,0,0-.456-.413.376.376,0,0,0-.359.392V11.3" fill="#1800e1"/>
          <path id="Path_113639" data-name="Path 113639" d="M10.1,11.054c.034-.157.077-.149.069-.228-.015-.136-.143-.232-.251-.34C9.344,9.9,8.756,9.328,8.186,8.735a.6.6,0,0,1-.176-.423c.059-.371.44-.461.716-.187q.945.938,1.883,1.883a.845.845,0,0,0,.175.122,1.182,1.182,0,0,0,1.062,0,.5.5,0,0,0,.148-.1Q14.1,7.914,16.22,5.8a.439.439,0,0,1,.615-.075h0a.388.388,0,0,1,.031.026c.185.184.167.4-.057.622q-2.019,2.021-4.04,4.04c-.328.328-.319.327-.248.76a1.155,1.155,0,0,1-.863,1.3,1.2,1.2,0,0,1-1.513-.786v0c-.009-.028-.017-.057-.024-.086a.5.5,0,0,1-.016-.075A1.2,1.2,0,0,1,10.1,11.054Zm.817.246a.385.385,0,0,0,.361.406h.01a.5.5,0,0,0,.442-.41.435.435,0,0,0-.456-.413.376.376,0,0,0-.359.392Z" fill="none" stroke="#1800e1" stroke-miterlimit="10" stroke-width="0.3"/>
          <path id="Path_113640" data-name="Path 113640" d="M10.878,1l.039.041Z" fill="#1800e1"/>
          <path id="Path_113641" data-name="Path 113641" d="M1.044,10.872,1,10.833Z" fill="#1800e1"/>
          <path id="Path_113642" data-name="Path 113642" d="M22.5,16.065l-.039-.09Z" fill="#1800e1"/>
          <path id="Path_113643" data-name="Path 113643" d="M17.953,22.416a.04.04,0,0,1,0,.037h-.038l.035-.034" fill="#1800e1"/>
        </g>
      </g>
      <g id="Group_134678" data-name="Group 134678">
        <g id="Group_134677" data-name="Group 134677" clip-path="url(#clip-path)">
          <path id="Path_113644" data-name="Path 113644" d="M20.477,21.229h1.607a.761.761,0,0,1,.831.685v.045a.846.846,0,0,1-.794.842c-1.266.015-2.535.032-3.8-.022-.239-.011-.533-.3-.676-.54a.658.658,0,0,1,.185-.809q1.308-1.293,2.6-2.608a4.357,4.357,0,0,0,.514-.588.937.937,0,0,0-.021-1.242A.791.791,0,0,0,19.81,17l0,0a.8.8,0,0,0-.128.172,1.3,1.3,0,0,0-.16.692c.057.447-.465.838-.834.827a.76.76,0,0,1-.773-.746v-.005q0-.039,0-.078a2.539,2.539,0,0,1,1.44-2.542,2.351,2.351,0,0,1,3.308,1.6,2.723,2.723,0,0,1-.815,2.788c-.472.475-.952.94-1.428,1.409l.05.1" fill="#1800e7"/>
          <path id="Path_113645" data-name="Path 113645" d="M14.809,17.905a3.128,3.128,0,0,1-.676.376.715.715,0,0,1-.889-.387.808.808,0,0,1,.149-.966c.529-.57,1.083-1.119,1.65-1.652a.793.793,0,0,1,.869-.089.731.731,0,0,1,.5.742c.012.938,0,1.876,0,2.813,0,1.029.022,2.06-.016,3.091a1.265,1.265,0,0,1-.338.773.655.655,0,0,1-.811.13.825.825,0,0,1-.451-.8c.01-1.331,0-2.662,0-4.033" fill="#1800e7"/>
        </g>
      </g>
    </g>
  </g>
</svg>
