<svg xmlns="http://www.w3.org/2000/svg" xmlns:xlink="http://www.w3.org/1999/xlink" width="30" height="30" viewBox="0 0 30 30">
  <defs>
    <clipPath id="clip-path">
      <rect id="Rectangle_52281" data-name="Rectangle 52281" width="22.886" height="22.984" fill="#1800e1" stroke="#1800e7" stroke-width="0.3"/>
    </clipPath>
    <clipPath id="clip-icon-inc-voice">
      <rect width="30" height="30"/>
    </clipPath>
  </defs>
  <g id="icon-inc-voice" clip-path="url(#clip-icon-inc-voice)">
    <g id="Group_134811" data-name="Group 134811" transform="translate(4 4.375)">
      <g id="Group_124844" data-name="Group 124844" clip-path="url(#clip-path)">
        <path id="Path_108510" data-name="Path 108510" d="M4.916,0c.314.134.633.258.938.409a1.451,1.451,0,0,1,.36.286Q7.71,2.182,9.2,3.677a2.376,2.376,0,0,1,.68,1.176,2.04,2.04,0,0,1-.429,1.8c-.284.344-.608.654-.92.973-.358.365-.724.723-1.089,1.086a9.849,9.849,0,0,0,1.52,2.392c.359.423.732.834,1.105,1.246a15.87,15.87,0,0,0,3.093,2.592,8.222,8.222,0,0,0,.954.505c.05.024.164-.025.214-.075.571-.56,1.135-1.128,1.7-1.692a2.181,2.181,0,0,1,2.944-.133c.474.407.907.862,1.353,1.3.612.6,1.226,1.207,1.823,1.827a2.387,2.387,0,0,1,.728,1.5,2.185,2.185,0,0,1-.585,1.712c-.394.434-.827.831-1.238,1.25-.292.3-.561.619-.867.9a3.456,3.456,0,0,1-1.922.894,8.187,8.187,0,0,1-3.875-.609,19.815,19.815,0,0,1-3.043-1.443,27.9,27.9,0,0,1-3.007-2c-.347-.26-.668-.556-.989-.85-.52-.477-1.052-.946-1.54-1.455a26.8,26.8,0,0,1-2.73-3.353A21.561,21.561,0,0,1,1.33,10.185,16.225,16.225,0,0,1,.166,6.921a6.6,6.6,0,0,1-.13-2.164A3.592,3.592,0,0,1,1.087,2.551C1.6,2.031,2.129,1.519,2.64.994A3.048,3.048,0,0,1,4.175.043.238.238,0,0,0,4.243,0ZM17.686,21.821a2.535,2.535,0,0,0,2.039-.924q.411-.44.83-.874c.24-.247.484-.489.729-.73a1.142,1.142,0,0,0,.042-1.776q-1.446-1.488-2.936-2.934a1.077,1.077,0,0,0-1.624.02c-.639.648-1.293,1.282-1.954,1.908a.784.784,0,0,1-.928.151,12.263,12.263,0,0,1-1.2-.618A16.315,16.315,0,0,1,9.58,13.557c-.717-.743-1.387-1.535-2.029-2.344A8.464,8.464,0,0,1,6.287,8.986a.871.871,0,0,1,.226-1c.247-.247.517-.471.762-.719.388-.391.761-.8,1.147-1.191a1.057,1.057,0,0,0-.016-1.53C7.4,3.529,6.387,2.507,5.358,1.505A1.066,1.066,0,0,0,3.8,1.511c-.651.617-1.279,1.259-1.906,1.9A2.432,2.432,0,0,0,1.2,4.955,6.085,6.085,0,0,0,1.385,6.99,16.611,16.611,0,0,0,2.427,9.778,19.633,19.633,0,0,0,4.173,12.74a24.289,24.289,0,0,0,2.465,3c.406.415.828.816,1.257,1.207A15.128,15.128,0,0,0,9.2,18.071c.794.572,1.61,1.117,2.439,1.638a17.179,17.179,0,0,0,1.658.9,16.617,16.617,0,0,0,1.574.662,7.95,7.95,0,0,0,2.813.553" transform="translate(0)" fill="#1800e1" stroke="#1800e7" stroke-width="0.3"/>
      </g>
    </g>
  </g>
</svg>
