<svg xmlns="http://www.w3.org/2000/svg" xmlns:xlink="http://www.w3.org/1999/xlink" width="30" height="30" viewBox="0 0 30 30">
  <defs>
    <clipPath id="clip-icon-inc-24-hour-service">
      <rect width="30" height="30"/>
    </clipPath>
  </defs>
  <g id="icon-inc-24-hour-service" clip-path="url(#clip-icon-inc-24-hour-service)">
    <g id="Group_134808" data-name="Group 134808" transform="translate(3 2.936)">
      <g id="Group_134683" data-name="Group 134683">
        <path id="Path_113572" data-name="Path 113572" d="M1.039,10.873l1.525.007c.24,0,.5.179.467.418a.407.407,0,0,1-.407.407H.985a5.519,5.519,0,0,0,.058.738,21.576,21.576,0,0,0,.543,2.3,9.615,9.615,0,0,0,1.821,3.186,10.265,10.265,0,0,0,3.674,2.794,9.25,9.25,0,0,0,2.587.769c.392.051.783.111,1.176.141.3.023.459.13.468.383a.428.428,0,0,1-.416.441h-.037a3.814,3.814,0,0,1-.762-.049c-.682-.131-1.368-.253-2.036-.438A10.328,10.328,0,0,1,4.581,20.2a11.242,11.242,0,0,1-3.63-4.751,11.842,11.842,0,0,1-.685-2.5c-.044-.252-.067-.507-.1-.761V10.4c.016-.032.046-.063.048-.1A9.393,9.393,0,0,1,.641,8.045a11.148,11.148,0,0,1,1.5-3.115,10.857,10.857,0,0,1,2.238-2.4,10.649,10.649,0,0,1,2.56-1.506A10.884,10.884,0,0,1,9.616.266c.274-.037.546-.094.819-.142h1.7c.249.048.5.113.749.142a10.815,10.815,0,0,1,5.34,2.258,10.945,10.945,0,0,1,1.833,1.849,11.08,11.08,0,0,1,1.3,2.048,9.965,9.965,0,0,1,.952,3.035c.053.391.109.781.169,1.208.06-.049.114-.087.16-.133.469-.467.94-.932,1.4-1.4a.482.482,0,0,1,.529-.108.441.441,0,0,1,.21.3.414.414,0,0,1-.1.321c-.763.778-1.535,1.547-2.308,2.315a.435.435,0,0,1-.667-.005c-.721-.717-1.445-1.432-2.153-2.163A.707.707,0,0,1,19.33,9.3c.043-.323.374-.418.654-.227a1.58,1.58,0,0,1,.221.178c.462.459.922.922,1.4,1.4A10.264,10.264,0,0,0,11.742,1c0,.352.013.7-.006,1.055a.628.628,0,0,1-.143.4.579.579,0,0,1-.426.109.328.328,0,0,1-.25-.36q0-.579,0-1.16L10.877,1c-.525.059-1.051.1-1.573.179A8.9,8.9,0,0,0,6.363,2.215,10.165,10.165,0,0,0,4.356,3.653a10.37,10.37,0,0,0-2,2.491,8.883,8.883,0,0,0-1.018,2.5c-.135.6-.2,1.222-.3,1.835-.018.116-.029.233-.043.35Z" fill="#1800e1"/>
        <path id="Path_113573" data-name="Path 113573" d="M2.564,10.878c.24,0,.5.179.467.418a.407.407,0,0,1-.407.407H.985a5.532,5.532,0,0,0,.058.738,21.576,21.576,0,0,0,.543,2.3,9.615,9.615,0,0,0,1.821,3.186,10.265,10.265,0,0,0,3.674,2.794,9.251,9.251,0,0,0,2.587.769c.392.051.783.111,1.176.141.3.023.459.13.468.383a.428.428,0,0,1-.416.441h-.037a3.814,3.814,0,0,1-.762-.049c-.682-.131-1.368-.253-2.036-.438A10.328,10.328,0,0,1,4.581,20.2,11.1,11.1,0,0,1,.641,8.045a11.869,11.869,0,0,1,1.5-3.115,10.857,10.857,0,0,1,2.238-2.4,10.649,10.649,0,0,1,2.56-1.506A12.155,12.155,0,0,1,8.659.453a11.385,11.385,0,0,1,9.565,2.071,10.945,10.945,0,0,1,1.833,1.849,11.08,11.08,0,0,1,1.3,2.048,9.965,9.965,0,0,1,.952,3.035c.053.391.109.781.169,1.208.06-.049.114-.087.16-.133.469-.467.94-.932,1.4-1.4a.482.482,0,0,1,.529-.108.441.441,0,0,1,.21.3.414.414,0,0,1-.1.321c-.763.778-1.535,1.547-2.308,2.315a.435.435,0,0,1-.667-.005c-.721-.717-1.445-1.432-2.153-2.163A.707.707,0,0,1,19.33,9.3c.043-.323.374-.418.654-.227a1.511,1.511,0,0,1,.221.178c.462.459.922.922,1.4,1.4A10.264,10.264,0,0,0,11.742,1c0,.352.013.7-.006,1.055a.628.628,0,0,1-.143.4.579.579,0,0,1-.426.109.328.328,0,0,1-.25-.36q0-.579,0-1.16L10.877,1c-.525.059-1.051.1-1.573.179A8.9,8.9,0,0,0,6.363,2.215,10.124,10.124,0,0,0,4.356,3.653a10.37,10.37,0,0,0-2,2.491,8.859,8.859,0,0,0-1.018,2.5c-.135.6-.2,1.222-.3,1.835-.022.367,1.018.394,1.526.4" fill="#1800e1"/>
        <path id="Path_113574" data-name="Path 113574" d="M2.564,10.878c.24,0,.5.179.467.418a.407.407,0,0,1-.407.407H.985a5.532,5.532,0,0,0,.058.738,21.576,21.576,0,0,0,.543,2.3,9.615,9.615,0,0,0,1.821,3.186,10.265,10.265,0,0,0,3.674,2.794,9.251,9.251,0,0,0,2.587.769c.392.051.783.111,1.176.141.3.023.459.13.468.383a.428.428,0,0,1-.416.441h-.037a3.814,3.814,0,0,1-.762-.049c-.682-.131-1.368-.253-2.036-.438A10.328,10.328,0,0,1,4.581,20.2,11.1,11.1,0,0,1,.641,8.045a11.869,11.869,0,0,1,1.5-3.115,10.857,10.857,0,0,1,2.238-2.4,10.649,10.649,0,0,1,2.56-1.506A12.155,12.155,0,0,1,8.659.453a11.385,11.385,0,0,1,9.565,2.071,10.945,10.945,0,0,1,1.833,1.849,11.08,11.08,0,0,1,1.3,2.048,9.965,9.965,0,0,1,.952,3.035c.053.391.109.781.169,1.208.06-.049.114-.087.16-.133.469-.467.94-.932,1.4-1.4a.482.482,0,0,1,.529-.108.441.441,0,0,1,.21.3.414.414,0,0,1-.1.321c-.763.778-1.535,1.547-2.308,2.315a.435.435,0,0,1-.667-.005c-.721-.717-1.445-1.432-2.153-2.163A.707.707,0,0,1,19.33,9.3c.043-.323.374-.418.654-.227a1.511,1.511,0,0,1,.221.178c.462.459.922.922,1.4,1.4A10.264,10.264,0,0,0,11.742,1c0,.352.013.7-.006,1.055a.628.628,0,0,1-.143.4.579.579,0,0,1-.426.109.328.328,0,0,1-.25-.36q0-.579,0-1.16L10.877,1c-.525.059-1.051.1-1.573.179A8.9,8.9,0,0,0,6.363,2.215,10.124,10.124,0,0,0,4.356,3.653a10.37,10.37,0,0,0-2,2.491,8.859,8.859,0,0,0-1.018,2.5c-.135.6-.2,1.222-.3,1.835C1.016,10.846,2.056,10.873,2.564,10.878Z" fill="none" stroke="#1800e1" stroke-miterlimit="10" stroke-width="0.5"/>
        <path id="Path_113575" data-name="Path 113575" d="M23.323,22.459c.406,0,.784-.014,1.161,0s.528.228.435.545a.379.379,0,0,1-.39.277H23.323c0,.367.007.72,0,1.072a.522.522,0,0,1-.226.5.365.365,0,0,1-.59-.3c-.014-.387-.006-.775-.008-1.162a1.064,1.064,0,0,0-.005-.114H17.209a.484.484,0,0,1-.473-.25c-.113-.193-.012-.343.082-.478.879-1.26,1.768-2.514,2.651-3.772q.964-1.372,1.921-2.752c.387-.556.778-1.109,1.16-1.668A.383.383,0,0,1,23,14.231a.514.514,0,0,1,.278.241.746.746,0,0,1,.048.347v7.64Zm-.871-6.48a2.29,2.29,0,0,0-.166.189q-1.609,2.306-3.214,4.614c-.377.543-.75,1.089-1.124,1.633l-.035.034h4.578V16.065l-.039-.09" fill="#1800e1"/>
        <path id="Path_113576" data-name="Path 113576" d="M23.323,22.459c.406,0,.784-.014,1.161,0s.528.228.435.545a.379.379,0,0,1-.39.277H23.323c0,.367.007.72,0,1.072a.522.522,0,0,1-.226.5.365.365,0,0,1-.59-.3c-.014-.387-.006-.775-.008-1.162a1.064,1.064,0,0,0-.005-.114H17.209a.484.484,0,0,1-.473-.25c-.113-.193-.012-.343.082-.478.879-1.26,1.768-2.514,2.651-3.772q.964-1.372,1.921-2.752c.387-.556.778-1.109,1.16-1.668A.383.383,0,0,1,23,14.231a.514.514,0,0,1,.278.241.746.746,0,0,1,.048.347v7.64Zm-.871-6.48a2.29,2.29,0,0,0-.166.189q-1.609,2.306-3.214,4.614c-.377.543-.75,1.089-1.124,1.633l-.035.034h4.578V16.065Z" fill="#1800e1"/>
        <path id="Path_113577" data-name="Path 113577" d="M23.323,22.459c.406,0,.784-.014,1.161,0s.528.228.435.545a.379.379,0,0,1-.39.277H23.323c0,.367.007.72,0,1.072a.522.522,0,0,1-.226.5.365.365,0,0,1-.59-.3c-.014-.387-.006-.775-.008-1.162a1.064,1.064,0,0,0-.005-.114H17.209a.484.484,0,0,1-.473-.25c-.113-.193-.012-.343.082-.478.879-1.26,1.768-2.514,2.651-3.772q.964-1.372,1.921-2.752c.387-.556.778-1.109,1.16-1.668A.383.383,0,0,1,23,14.231a.514.514,0,0,1,.278.241.746.746,0,0,1,.048.347v7.64Zm-.871-6.48a2.29,2.29,0,0,0-.166.189q-1.609,2.306-3.214,4.614c-.377.543-.75,1.089-1.124,1.633l-.035.034h4.578V16.065Z" fill="none" stroke="#1800e1" stroke-miterlimit="10" stroke-width="0.3"/>
        <path id="Path_113578" data-name="Path 113578" d="M12.329,24.1l4.626.007a.5.5,0,0,1,.492.206.413.413,0,0,1-.152.564.407.407,0,0,1-.163.053,1.607,1.607,0,0,1-.17,0H11.39c-.187,0-.347-.027-.428-.224a.453.453,0,0,1,.081-.506q.829-.97,1.655-1.945c.666-.79,1.326-1.586,1.993-2.375.406-.481.815-.961,1.234-1.43a2.01,2.01,0,0,0,.124-2.564,2.127,2.127,0,0,0-1.735-.845A2.407,2.407,0,0,0,13,15.333a2.468,2.468,0,0,0-1.2,1.59c-.056.219-.057.452-.108.673a.4.4,0,0,1-.46.307.383.383,0,0,1-.314-.412,3.281,3.281,0,0,1,5.574-2.368,2.837,2.837,0,0,1,.23,3.642c-.424.526-.872,1.034-1.307,1.552-.588.7-1.172,1.4-1.763,2.1-.407.48-.824.953-1.234,1.43a1.07,1.07,0,0,0-.1.157l-.077.079.08.015" fill="#1800e1"/>
        <path id="Path_113579" data-name="Path 113579" d="M12.329,24.1l4.626.007a.5.5,0,0,1,.492.206.413.413,0,0,1-.152.564.407.407,0,0,1-.163.053,1.607,1.607,0,0,1-.17,0H11.39c-.187,0-.347-.027-.428-.224a.453.453,0,0,1,.081-.506q.829-.97,1.655-1.945c.666-.79,1.326-1.586,1.993-2.375.406-.481.815-.961,1.234-1.43a2.01,2.01,0,0,0,.124-2.564,2.127,2.127,0,0,0-1.735-.845A2.407,2.407,0,0,0,13,15.333a2.468,2.468,0,0,0-1.2,1.59c-.056.219-.057.452-.108.673a.4.4,0,0,1-.46.307.383.383,0,0,1-.314-.412,3.281,3.281,0,0,1,5.574-2.368,2.837,2.837,0,0,1,.23,3.642c-.424.526-.872,1.034-1.307,1.552-.588.7-1.172,1.4-1.763,2.1-.407.48-.824.953-1.234,1.43a1.07,1.07,0,0,0-.1.157l-.077.079Z" fill="#1800e1"/>
        <path id="Path_113580" data-name="Path 113580" d="M12.329,24.1l4.626.007a.5.5,0,0,1,.492.206.413.413,0,0,1-.152.564.407.407,0,0,1-.163.053,1.607,1.607,0,0,1-.17,0H11.39c-.187,0-.347-.027-.428-.224a.453.453,0,0,1,.081-.506q.829-.97,1.655-1.945c.666-.79,1.326-1.586,1.993-2.375.406-.481.815-.961,1.234-1.43a2.01,2.01,0,0,0,.124-2.564,2.127,2.127,0,0,0-1.735-.845A2.407,2.407,0,0,0,13,15.333a2.468,2.468,0,0,0-1.2,1.59c-.056.219-.057.452-.108.673a.4.4,0,0,1-.46.307.383.383,0,0,1-.314-.412,3.281,3.281,0,0,1,5.574-2.368,2.837,2.837,0,0,1,.23,3.642c-.424.526-.872,1.034-1.307,1.552-.588.7-1.172,1.4-1.763,2.1-.407.48-.824.953-1.234,1.43a1.07,1.07,0,0,0-.1.157l-.077.079Z" fill="none" stroke="#1800e1" stroke-miterlimit="10" stroke-width="0.3"/>
        <path id="Path_113581" data-name="Path 113581" d="M10.1,11.054c.034-.157.077-.149.069-.228-.015-.136-.143-.232-.251-.34C9.339,9.9,8.751,9.328,8.181,8.735a.6.6,0,0,1-.176-.423c.059-.371.44-.461.716-.187q.945.938,1.883,1.883a.819.819,0,0,0,.175.122,1.183,1.183,0,0,0,1.062,0,.5.5,0,0,0,.148-.1Q14.1,7.914,16.215,5.8a.438.438,0,0,1,.616-.074.388.388,0,0,1,.031.026c.185.184.167.4-.057.622q-2.019,2.021-4.04,4.04c-.328.328-.319.327-.248.76a1.155,1.155,0,0,1-.863,1.3,1.206,1.206,0,0,1-1.514-.788c-.009-.028-.017-.057-.024-.086a.5.5,0,0,1-.016-.075,1.182,1.182,0,0,1,0-.474m.817.246a.385.385,0,0,0,.361.406h.01a.5.5,0,0,0,.442-.41.435.435,0,0,0-.456-.413.376.376,0,0,0-.359.392l0,.025" fill="#1800e1"/>
        <path id="Path_113582" data-name="Path 113582" d="M10.1,11.054c.034-.157.077-.149.069-.228-.015-.136-.143-.232-.251-.34C9.339,9.9,8.751,9.328,8.181,8.735a.6.6,0,0,1-.176-.423c.059-.371.44-.461.716-.187q.945.938,1.883,1.883a.819.819,0,0,0,.175.122,1.183,1.183,0,0,0,1.062,0,.5.5,0,0,0,.148-.1Q14.1,7.914,16.215,5.8a.438.438,0,0,1,.616-.074.388.388,0,0,1,.031.026c.185.184.167.4-.057.622q-2.019,2.021-4.04,4.04c-.328.328-.319.327-.248.76a1.155,1.155,0,0,1-.863,1.3,1.206,1.206,0,0,1-1.514-.788c-.009-.028-.017-.057-.024-.086a.5.5,0,0,1-.016-.075,1.191,1.191,0,0,1,0-.472m.817.246a.385.385,0,0,0,.361.406h.01a.5.5,0,0,0,.442-.41.435.435,0,0,0-.456-.413.376.376,0,0,0-.359.392l0,.025" fill="#1800e1"/>
        <path id="Path_113583" data-name="Path 113583" d="M10.1,11.054c.034-.157.077-.149.069-.228-.015-.136-.143-.232-.251-.34C9.339,9.9,8.751,9.328,8.181,8.735a.6.6,0,0,1-.176-.423c.059-.371.44-.461.716-.187q.945.938,1.883,1.883a.819.819,0,0,0,.175.122,1.183,1.183,0,0,0,1.062,0,.5.5,0,0,0,.148-.1Q14.1,7.914,16.215,5.8a.438.438,0,0,1,.616-.074.388.388,0,0,1,.031.026c.185.184.167.4-.057.622q-2.019,2.021-4.04,4.04c-.328.328-.319.327-.248.76a1.155,1.155,0,0,1-.863,1.3,1.206,1.206,0,0,1-1.514-.788c-.009-.028-.017-.057-.024-.086a.5.5,0,0,1-.016-.075A1.191,1.191,0,0,1,10.1,11.054Zm.817.246a.385.385,0,0,0,.361.406h.01a.5.5,0,0,0,.442-.41.435.435,0,0,0-.456-.413.376.376,0,0,0-.359.392Z" fill="none" stroke="#1800e1" stroke-miterlimit="10" stroke-width="0.3"/>
        <path id="Path_113584" data-name="Path 113584" d="M12.33,24.1l-.08-.015.077-.079V24.1" fill="#1800e1"/>
        <path id="Path_113585" data-name="Path 113585" d="M10.873,1l.039.041Z" fill="#1800e1"/>
        <path id="Path_113586" data-name="Path 113586" d="M1.039,10.872,1,10.833Z" fill="#1800e1"/>
        <path id="Path_113587" data-name="Path 113587" d="M22.491,16.065l-.039-.09Z" fill="#1800e1"/>
        <path id="Path_113588" data-name="Path 113588" d="M17.948,22.416a.04.04,0,0,1,0,.037H17.91l.035-.034" fill="#1800e1"/>
      </g>
    </g>
  </g>
</svg>
