<svg width="20" height="20" viewBox="0 0 20 20" fill="none" xmlns="http://www.w3.org/2000/svg">
<path d="M13.81 16.64H6.9C4.2 16.64 2 14.45 2 11.74V4.83C2 4.37 2.37 4 2.83 4H9.74C12.44 4 14.64 6.19 14.64 8.9V15.81C14.64 16.26 14.27 16.64 13.81 16.64Z" stroke="#666666" stroke-miterlimit="10" stroke-linecap="round" stroke-linejoin="round"/>
<path d="M14.9402 4.13965C16.3402 4.55965 17.3502 5.84965 17.3502 7.37965V14.8696C17.3502 15.3296 16.9802 15.6996 16.5202 15.6996H14.6602" stroke="#666666" stroke-miterlimit="10" stroke-linecap="round" stroke-linejoin="round"/>
<path d="M10.5101 10.68L8.66006 11.75L6.81006 12.82V10.68V8.54004L8.66006 9.61004L10.5101 10.68Z" stroke="#666666" stroke-miterlimit="10" stroke-linecap="round" stroke-linejoin="round"/>
</svg>
