<?xml version="1.0" encoding="UTF-8"?><svg id="Layer_1" xmlns="http://www.w3.org/2000/svg" viewBox="0 0 200 200"><defs><style>.cls-1{fill:#e50914;}</style></defs><rect width="200" height="200" rx="25" ry="25"/><g id="Netflix_Logo_RGB"><path class="cls-1" d="m145.45,117.59c2.26.17,4.51.36,6.77.56v-39.72h-6.77v39.17Zm-108.84-14.74l-8.81-24.43h-6.43v43.16c2.25-.32,4.51-.63,6.77-.92v-23.47l7.84,22.51c2.46-.29,4.93-.56,7.41-.81v-40.47h-6.77v24.43Zm13.27,15.41c6.24-.57,12.5-1.03,18.79-1.4v-6.67c-4.02.23-8.03.51-12.03.82v-10.09c2.62-.03,6.08-.11,9.14-.07v-6.67c-2.44,0-6.37.03-9.14.07v-9.11h12.03v-6.73h-18.79v39.84Zm23.13-33.11h7.08v31.17c2.25-.08,4.51-.15,6.77-.21v-30.96h7.08v-6.73h-20.93v6.73Zm25.27,30.78h6.77v-15.39h9.17v-6.67h-9.17v-8.72h12.12v-6.73h-18.89v37.5Zm83.76-37.5h-7.43l-4.9,11.36-4.4-11.36h-7.32l7.87,20.29-8.59,19.91c2.38.23,4.75.48,7.11.74l4.99-11.57,4.95,12.76c2.58.33,5.15.68,7.71,1.04h.01s-8.81-22.74-8.81-22.74l8.81-20.43Zm-53.77,0h-6.77v37.84c6.15.21,12.27.52,18.37.93v-6.67c-3.86-.26-7.73-.48-11.6-.66v-31.45Z"/></g></svg>