<?xml version="1.0" encoding="utf-8"?>
<!-- Generator: Adobe Illustrator 27.5.0, SVG Export Plug-In . SVG Version: 6.00 Build 0)  -->
<svg version="1.1" id="Layer_1" xmlns="http://www.w3.org/2000/svg" xmlns:xlink="http://www.w3.org/1999/xlink" x="0px" y="0px"
	 viewBox="0 0 140 140" style="enable-background:new 0 0 140 140;" xml:space="preserve">
<style type="text/css">
	.st0{fill:#FFFFFF;}
	.st1{fill:none;stroke:#FF6624;stroke-width:2;stroke-linecap:round;stroke-linejoin:round;}
	.st2{fill:none;stroke:#FF6624;stroke-width:2;}
	.st3{fill:none;stroke:#FF6624;stroke-width:2;stroke-linecap:round;}
	.st4{fill:#FF6624;}
</style>
<g>
	<path class="st0" d="M20,6h100c5.52,0,10,4.48,10,10v100c0,5.52-4.48,10-10,10H20c-5.52,0-10-4.48-10-10V16C10,10.48,14.48,6,20,6z
		"/>
</g>
<path class="st1" d="M64.67,36h8"/>
<path class="st2" d="M73.33,66.67h14c1.1,0,2-0.9,2-2V47.33c0-1.1-0.9-2-2-2h-9.84c-0.53,0-1.04,0.21-1.41,0.59l-4.16,4.16
	c-0.38,0.38-0.59,0.88-0.59,1.41v13.17C71.33,65.77,72.23,66.67,73.33,66.67z"/>
<path class="st3" d="M83.33,40.67v-6c0-2.21-1.79-4-4-4H58c-2.21,0-4,1.79-4,4v34.67c0,2.21,1.79,4,4,4h21.33c2.21,0,4-1.79,4-4
	v-2.09"/>
<path class="st4" d="M76.33,54.67H81c0.55,0,1,0.45,1,1v6c0,0.55-0.45,1-1,1h-4.67c-0.55,0-1-0.45-1-1v-6
	C75.33,55.11,75.78,54.67,76.33,54.67z"/>
<g>
	<path d="M32.71,83.04v7.02c0,1.17-0.37,2.09-1.09,2.77c-0.73,0.68-1.73,1.02-2.99,1.02c-1.25,0-2.23-0.33-2.97-0.99
		c-0.73-0.66-1.11-1.57-1.12-2.72v-7.1h2.2v7.04c0,0.7,0.17,1.21,0.5,1.53c0.33,0.32,0.8,0.48,1.39,0.48c1.24,0,1.86-0.65,1.88-1.95
		v-7.1H32.71z"/>
	<path d="M43.11,93.71h-2.2l-4.28-7.02v7.02h-2.2V83.04h2.2l4.28,7.03v-7.03h2.19V93.71z"/>
	<path d="M47.29,93.71h-2.2V83.04h2.2V93.71z"/>
	<path d="M49.34,88.46l0.62-5.42h5.98v1.77h-4.24l-0.26,2.29c0.5-0.27,1.04-0.4,1.6-0.4c1.02,0,1.81,0.32,2.39,0.95
		s0.86,1.51,0.86,2.64c0,0.69-0.15,1.3-0.44,1.85c-0.29,0.54-0.71,0.97-1.25,1.27c-0.54,0.3-1.18,0.45-1.92,0.45
		c-0.64,0-1.24-0.13-1.79-0.39c-0.55-0.26-0.99-0.63-1.31-1.1c-0.32-0.47-0.49-1.01-0.51-1.62h2.09c0.04,0.45,0.2,0.79,0.47,1.04
		c0.27,0.25,0.61,0.37,1.04,0.37c0.48,0,0.85-0.17,1.11-0.52c0.26-0.34,0.39-0.83,0.39-1.46c0-0.61-0.15-1.07-0.45-1.39
		s-0.72-0.48-1.27-0.48c-0.5,0-0.91,0.13-1.22,0.39l-0.21,0.19L49.34,88.46z"/>
	<path d="M66.22,92.36c-0.4,0.47-0.95,0.84-1.68,1.1c-0.72,0.26-1.52,0.39-2.4,0.39c-0.92,0-1.73-0.2-2.43-0.6
		c-0.7-0.4-1.23-0.99-1.61-1.75s-0.57-1.67-0.58-2.7v-0.73c0-1.06,0.18-1.99,0.54-2.76c0.36-0.78,0.88-1.38,1.55-1.79
		c0.68-0.41,1.47-0.62,2.38-0.62c1.26,0,2.25,0.3,2.97,0.9c0.71,0.6,1.14,1.48,1.27,2.63h-2.14c-0.1-0.61-0.31-1.06-0.65-1.34
		s-0.79-0.42-1.38-0.42c-0.75,0-1.32,0.28-1.71,0.84s-0.59,1.4-0.59,2.5v0.68c0,1.12,0.21,1.96,0.64,2.53s1.05,0.86,1.87,0.86
		c0.83,0,1.41-0.18,1.77-0.53v-1.84h-2V88.1h4.2V92.36z"/>
	<path d="M74.46,83.04l2.74,7.73l2.72-7.73h2.89v10.66H80.6v-2.92l0.22-5.03l-2.88,7.95h-1.51l-2.87-7.94l0.22,5.02v2.92h-2.2V83.04
		H74.46z"/>
	<path d="M84.18,89.67c0-0.79,0.15-1.49,0.45-2.1s0.74-1.09,1.31-1.43c0.57-0.34,1.23-0.5,1.98-0.5c1.07,0,1.94,0.33,2.62,0.98
		c0.68,0.65,1.05,1.54,1.13,2.67l0.01,0.54c0,1.22-0.34,2.19-1.02,2.93c-0.68,0.74-1.59,1.1-2.73,1.1s-2.05-0.37-2.74-1.1
		c-0.68-0.73-1.02-1.73-1.02-2.99V89.67z M86.3,89.82c0,0.75,0.14,1.33,0.42,1.73s0.69,0.6,1.22,0.6c0.51,0,0.91-0.2,1.2-0.59
		s0.43-1.02,0.43-1.89c0-0.74-0.14-1.31-0.43-1.72s-0.69-0.61-1.22-0.61c-0.52,0-0.92,0.2-1.2,0.61S86.3,88.97,86.3,89.82z"/>
	<path d="M100.06,89.82c0,1.27-0.27,2.26-0.81,2.97c-0.54,0.71-1.3,1.07-2.27,1.07c-0.86,0-1.55-0.33-2.06-0.99l-0.09,0.84h-1.9
		V82.46h2.12v4.04c0.49-0.57,1.13-0.86,1.93-0.86c0.97,0,1.72,0.36,2.27,1.07c0.55,0.71,0.82,1.71,0.82,3V89.82z M97.94,89.66
		c0-0.8-0.13-1.39-0.38-1.75c-0.25-0.37-0.63-0.55-1.14-0.55c-0.67,0-1.14,0.28-1.39,0.83v3.13c0.26,0.56,0.73,0.83,1.41,0.83
		c0.68,0,1.13-0.34,1.35-1.01C97.89,90.81,97.94,90.32,97.94,89.66z"/>
	<path d="M101.27,83.73c0-0.32,0.11-0.58,0.32-0.78c0.21-0.21,0.5-0.31,0.87-0.31c0.36,0,0.65,0.1,0.86,0.31s0.32,0.47,0.32,0.78
		c0,0.32-0.11,0.59-0.33,0.79c-0.22,0.21-0.5,0.31-0.86,0.31s-0.64-0.1-0.86-0.31C101.38,84.32,101.27,84.05,101.27,83.73z
		 M103.52,93.71h-2.12v-7.92h2.12V93.71z"/>
	<path d="M107.42,93.71h-2.12V82.46h2.12V93.71z"/>
	<path d="M112.74,93.85c-1.16,0-2.11-0.36-2.84-1.07s-1.1-1.66-1.1-2.85v-0.21c0-0.8,0.15-1.51,0.46-2.14
		c0.31-0.63,0.74-1.11,1.31-1.45c0.56-0.34,1.21-0.51,1.93-0.51c1.08,0,1.94,0.34,2.56,1.03c0.62,0.68,0.93,1.65,0.93,2.91v0.87
		h-5.05c0.07,0.52,0.28,0.93,0.62,1.24c0.34,0.31,0.78,0.47,1.31,0.47c0.82,0,1.45-0.29,1.91-0.89l1.04,1.17
		c-0.32,0.45-0.75,0.8-1.29,1.05C114,93.73,113.4,93.85,112.74,93.85z M112.5,87.34c-0.42,0-0.76,0.14-1.02,0.43
		c-0.26,0.29-0.43,0.69-0.5,1.22h2.95v-0.17c-0.01-0.47-0.14-0.83-0.38-1.09S112.95,87.34,112.5,87.34z"/>
	<path d="M43.57,105.95v3.76h-2.2V99.04h4.16c0.8,0,1.5,0.15,2.11,0.44c0.61,0.29,1.08,0.71,1.4,1.25c0.33,0.54,0.49,1.15,0.49,1.84
		c0,1.04-0.36,1.87-1.07,2.47c-0.72,0.6-1.71,0.9-2.97,0.9H43.57z M43.57,104.17h1.96c0.58,0,1.02-0.14,1.33-0.41
		s0.46-0.66,0.46-1.17c0-0.52-0.15-0.95-0.46-1.27s-0.73-0.49-1.27-0.5h-2.01V104.17z"/>
	<path d="M50.41,105.67c0-0.79,0.15-1.49,0.45-2.1s0.74-1.09,1.31-1.43c0.57-0.34,1.23-0.5,1.98-0.5c1.07,0,1.94,0.33,2.62,0.98
		c0.68,0.65,1.05,1.54,1.13,2.67l0.01,0.54c0,1.22-0.34,2.19-1.02,2.93c-0.68,0.74-1.59,1.1-2.73,1.1s-2.05-0.37-2.74-1.1
		c-0.68-0.73-1.02-1.73-1.02-2.99V105.67z M52.53,105.82c0,0.75,0.14,1.33,0.42,1.73s0.69,0.6,1.22,0.6c0.51,0,0.91-0.2,1.2-0.59
		s0.43-1.02,0.43-1.89c0-0.74-0.14-1.31-0.43-1.72s-0.69-0.61-1.22-0.61c-0.52,0-0.92,0.2-1.2,0.61S52.53,104.97,52.53,105.82z"/>
	<path d="M63.44,107.52c0-0.26-0.13-0.46-0.38-0.61c-0.26-0.15-0.67-0.28-1.23-0.4c-1.88-0.39-2.83-1.2-2.83-2.4
		c0-0.7,0.29-1.29,0.88-1.76c0.58-0.47,1.35-0.71,2.29-0.71c1.01,0,1.81,0.24,2.41,0.71c0.6,0.47,0.9,1.09,0.9,1.85h-2.12
		c0-0.3-0.1-0.55-0.29-0.75c-0.2-0.2-0.5-0.3-0.92-0.3c-0.36,0-0.63,0.08-0.83,0.24c-0.2,0.16-0.29,0.37-0.29,0.62
		c0,0.23,0.11,0.42,0.33,0.57c0.22,0.14,0.6,0.27,1.12,0.37c0.53,0.11,0.97,0.22,1.33,0.36c1.12,0.41,1.68,1.12,1.68,2.13
		c0,0.72-0.31,1.31-0.93,1.75c-0.62,0.45-1.42,0.67-2.4,0.67c-0.66,0-1.25-0.12-1.77-0.36c-0.52-0.24-0.92-0.56-1.21-0.97
		c-0.29-0.41-0.44-0.86-0.44-1.34h2.01c0.02,0.38,0.16,0.66,0.42,0.86s0.61,0.3,1.04,0.3c0.41,0,0.71-0.08,0.92-0.23
		C63.33,107.97,63.44,107.76,63.44,107.52z"/>
	<path d="M69.32,99.83v1.95h1.35v1.55h-1.35v3.96c0,0.29,0.06,0.5,0.17,0.63s0.33,0.19,0.64,0.19c0.23,0,0.44-0.02,0.62-0.05v1.6
		c-0.42,0.13-0.84,0.19-1.28,0.19c-1.48,0-2.24-0.75-2.27-2.25v-4.27h-1.16v-1.55h1.16v-1.95H69.32z"/>
	<path d="M78.91,105.82c0,1.22-0.28,2.2-0.83,2.93c-0.55,0.74-1.3,1.1-2.25,1.1c-0.8,0-1.45-0.28-1.94-0.83v3.74h-2.12v-10.97h1.96
		l0.07,0.78c0.51-0.62,1.18-0.92,2.01-0.92c0.98,0,1.74,0.36,2.28,1.08s0.81,1.72,0.81,2.99V105.82z M76.79,105.66
		c0-0.74-0.13-1.31-0.39-1.71c-0.26-0.4-0.64-0.6-1.14-0.6c-0.66,0-1.12,0.25-1.37,0.76v3.24c0.26,0.52,0.72,0.78,1.38,0.78
		C76.29,108.14,76.79,107.32,76.79,105.66z"/>
	<path d="M84.74,109.71c-0.1-0.19-0.17-0.43-0.21-0.71c-0.51,0.57-1.18,0.86-2,0.86c-0.78,0-1.42-0.22-1.93-0.67
		c-0.51-0.45-0.77-1.02-0.77-1.7c0-0.84,0.31-1.48,0.93-1.93c0.62-0.45,1.52-0.68,2.7-0.68h0.97v-0.45c0-0.37-0.09-0.66-0.28-0.88
		c-0.19-0.22-0.48-0.33-0.89-0.33c-0.36,0-0.64,0.09-0.84,0.26c-0.2,0.17-0.3,0.41-0.3,0.7h-2.12c0-0.46,0.14-0.88,0.42-1.27
		s0.68-0.7,1.2-0.92c0.52-0.22,1.1-0.33,1.74-0.33c0.98,0,1.75,0.25,2.33,0.74c0.57,0.49,0.86,1.18,0.86,2.07v3.43
		c0,0.75,0.11,1.32,0.31,1.71v0.12H84.74z M82.99,108.23c0.31,0,0.6-0.07,0.86-0.21c0.26-0.14,0.46-0.33,0.59-0.56v-1.36h-0.79
		c-1.06,0-1.62,0.37-1.69,1.1l-0.01,0.12c0,0.26,0.09,0.48,0.28,0.65S82.67,108.23,82.99,108.23z"/>
	<path d="M88.1,99.73c0-0.32,0.11-0.58,0.32-0.78c0.21-0.21,0.5-0.31,0.87-0.31c0.36,0,0.65,0.1,0.86,0.31s0.32,0.47,0.32,0.78
		c0,0.32-0.11,0.59-0.33,0.79c-0.22,0.21-0.5,0.31-0.86,0.31s-0.64-0.1-0.86-0.31C88.21,100.32,88.1,100.05,88.1,99.73z
		 M90.35,109.71h-2.12v-7.92h2.12V109.71z"/>
	<path d="M91.69,105.68c0-1.23,0.28-2.22,0.83-2.95c0.55-0.73,1.31-1.1,2.27-1.1c0.77,0,1.41,0.29,1.91,0.86v-4.04h2.12v11.25h-1.91
		l-0.1-0.84c-0.53,0.66-1.21,0.99-2.04,0.99c-0.93,0-1.68-0.37-2.25-1.1C91.97,108.01,91.69,106.99,91.69,105.68z M93.8,105.84
		c0,0.74,0.13,1.31,0.39,1.71s0.63,0.59,1.13,0.59c0.65,0,1.12-0.28,1.38-0.83v-3.13c-0.26-0.55-0.72-0.83-1.37-0.83
		C94.31,103.36,93.8,104.18,93.8,105.84z"/>
</g>
</svg>
