<?xml version="1.0" encoding="utf-8"?>
<!-- Generator: Adobe Illustrator 27.5.0, SVG Export Plug-In . SVG Version: 6.00 Build 0)  -->
<svg version="1.1" id="Layer_1" xmlns="http://www.w3.org/2000/svg" xmlns:xlink="http://www.w3.org/1999/xlink" x="0px" y="0px"
	 viewBox="0 0 140 140" style="enable-background:new 0 0 140 140;" xml:space="preserve">
<style type="text/css">
	.st0{fill:#FFFFFF;}
	.st1{fill:#FF6624;}
	.st2{fill:none;stroke:#FF6624;stroke-width:2;stroke-linecap:round;stroke-linejoin:round;stroke-miterlimit:10;}
	.st3{fill:none;stroke:#FF6623;stroke-width:1.9836;stroke-linecap:round;stroke-linejoin:round;stroke-miterlimit:10;}
</style>
<g>
	<path class="st0" d="M20,6h100c5.52,0,10,4.48,10,10v100c0,5.52-4.48,10-10,10H20c-5.52,0-10-4.48-10-10V16C10,10.48,14.48,6,20,6z
		"/>
</g>
<ellipse class="st1" cx="86" cy="53.33" rx="1.33" ry="1.33"/>
<ellipse class="st1" cx="86" cy="58.67" rx="1.33" ry="1.33"/>
<ellipse class="st1" cx="86" cy="64" rx="1.33" ry="1.33"/>
<path class="st2" d="M78.45,63.77H51.26c-2.17,0-3.93-1.76-3.93-3.93V38.25c0-2.17,1.76-3.93,3.93-3.93h29.29
	c2.17,0,3.93,1.76,3.93,3.93v3.96"/>
<path class="st2" d="M90.63,70.67h-9.26c-1.13,0-2.04-1.04-2.04-2.33V49c0-1.29,0.91-2.33,2.04-2.33h9.26
	c1.13,0,2.04,1.04,2.04,2.33v19.33C92.67,69.62,91.75,70.67,90.63,70.67z"/>
<path class="st3" d="M58.63,69.62h14.56"/>
<path class="st1" d="M69.81,48.47c0.67,0.38,0.67,1.35,0,1.74L66.67,52l-3.17,1.81c-0.67,0.38-1.5-0.1-1.5-0.87v-3.61v-3.61
	c0-0.77,0.83-1.25,1.5-0.87l3.17,1.81L69.81,48.47z"/>
<g>
	<path d="M52.27,89.5v7.02c0,1.17-0.37,2.09-1.09,2.77c-0.73,0.68-1.73,1.02-2.99,1.02c-1.25,0-2.23-0.33-2.97-0.99
		c-0.73-0.66-1.11-1.57-1.12-2.72v-7.1h2.2v7.04c0,0.7,0.17,1.21,0.5,1.53c0.33,0.32,0.8,0.48,1.39,0.48c1.24,0,1.86-0.65,1.88-1.95
		v-7.1H52.27z"/>
	<path d="M55.81,92.24l0.07,0.92c0.57-0.71,1.33-1.06,2.28-1.06c0.84,0,1.46,0.25,1.88,0.74c0.41,0.49,0.62,1.23,0.63,2.21v5.12
		h-2.12V95.1c0-0.45-0.1-0.78-0.29-0.98c-0.2-0.2-0.52-0.3-0.97-0.3c-0.6,0-1.04,0.25-1.34,0.76v5.59h-2.12v-7.92H55.81z"/>
	<path d="M62.17,90.19c0-0.32,0.11-0.58,0.32-0.78c0.21-0.21,0.5-0.31,0.87-0.31c0.36,0,0.65,0.1,0.86,0.31s0.32,0.47,0.32,0.78
		c0,0.32-0.11,0.59-0.33,0.79c-0.22,0.21-0.5,0.31-0.86,0.31s-0.64-0.1-0.86-0.31S62.17,90.51,62.17,90.19z M64.42,100.17h-2.12
		v-7.92h2.12V100.17z"/>
	<path d="M66.67,100.17V93.8h-1.18v-1.55h1.18v-0.67c0-0.89,0.25-1.58,0.77-2.07c0.51-0.49,1.22-0.74,2.14-0.74
		c0.29,0,0.65,0.05,1.08,0.15l-0.02,1.64c-0.18-0.04-0.39-0.07-0.64-0.07c-0.8,0-1.19,0.37-1.19,1.12v0.64h1.57v1.55h-1.57v6.37
		H66.67z"/>
	<path d="M71.37,90.19c0-0.32,0.11-0.58,0.32-0.78c0.21-0.21,0.5-0.31,0.87-0.31c0.36,0,0.65,0.1,0.86,0.31s0.32,0.47,0.32,0.78
		c0,0.32-0.11,0.59-0.33,0.79c-0.22,0.21-0.5,0.31-0.86,0.31s-0.64-0.1-0.86-0.31C71.48,90.78,71.37,90.51,71.37,90.19z
		 M73.62,100.17H71.5v-7.92h2.12V100.17z"/>
	<path d="M86.68,91.28h-3.27v8.88h-2.2v-8.88h-3.22V89.5h8.69V91.28z"/>
	<path d="M91.91,97.52l2.42-8.02h2.45l-3.71,10.66h-2.29l-3.7-10.66h2.44L91.91,97.52z"/>
</g>
</svg>
