<?xml version="1.0" encoding="utf-8"?>
<!-- Generator: Adobe Illustrator 27.5.0, SVG Export Plug-In . SVG Version: 6.00 Build 0)  -->
<svg version="1.1" id="Layer_1" xmlns="http://www.w3.org/2000/svg" xmlns:xlink="http://www.w3.org/1999/xlink" x="0px" y="0px"
	 viewBox="0 0 140 140" style="enable-background:new 0 0 140 140;" xml:space="preserve">
<style type="text/css">
	.st0{fill:#FFFFFF;}
	.st1{clip-path:url(#SVGID_00000067939460954430143240000010924330079254303123_);}
	.st2{fill:none;stroke:#FF6624;stroke-width:2;stroke-linecap:round;stroke-miterlimit:10;}
	.st3{fill:none;stroke:#FF6624;stroke-width:2;}
	.st4{fill:none;stroke:#FF6624;stroke-width:2;stroke-linecap:round;}
</style>
<g>
	<path class="st0" d="M20,6h100c5.52,0,10,4.48,10,10v100c0,5.52-4.48,10-10,10H20c-5.52,0-10-4.48-10-10V16C10,10.48,14.48,6,20,6z
		"/>
</g>
<g>
	<defs>
		<rect id="SVGID_1_" x="46" y="28" width="48" height="48"/>
	</defs>
	<clipPath id="SVGID_00000036971003979827336300000018242194426217835166_">
		<use xlink:href="#SVGID_1_"  style="overflow:visible;"/>
	</clipPath>
	<g style="clip-path:url(#SVGID_00000036971003979827336300000018242194426217835166_);">
		<path class="st2" d="M70,59.1c0,0-2.57-5.14-6.75-5.14c-2.9,0-5.25,2.3-5.25,5.14c0,2.84,2.35,5.14,5.25,5.14
			c1.7,0,3.24-0.86,4.42-1.95"/>
		<path class="st2" d="M70,59.1c0,0,2.57,5.14,6.75,5.14c2.9,0,5.25-2.3,5.25-5.14c0-2.84-2.35-5.14-5.25-5.14
			c-1.39,0-2.67,0.57-3.74,1.38c-0.23,0.18-0.45,0.36-0.66,0.56"/>
		<path class="st3" d="M69.47,30.99c0.32-0.2,0.73-0.2,1.05,0l20.73,12.82c0.86,0.53,0.48,1.85-0.53,1.85H49.27
			c-1.01,0-1.38-1.32-0.53-1.85L69.47,30.99z"/>
		<path class="st4" d="M87.33,46v25.33c0,1.1-0.9,2-2,2H54.67c-1.1,0-2-0.9-2-2V49.79"/>
	</g>
</g>
<g>
	<path d="M41.64,89.5v7.02c0,1.17-0.37,2.09-1.09,2.77c-0.73,0.68-1.73,1.02-2.99,1.02c-1.25,0-2.23-0.33-2.97-0.99
		c-0.73-0.66-1.11-1.57-1.12-2.72v-7.1h2.2v7.04c0,0.7,0.17,1.21,0.5,1.53c0.33,0.32,0.8,0.48,1.39,0.48c1.24,0,1.86-0.65,1.88-1.95
		v-7.1H41.64z"/>
	<path d="M45.18,92.24l0.07,0.92c0.57-0.71,1.33-1.06,2.28-1.06c0.84,0,1.46,0.25,1.88,0.74c0.41,0.49,0.62,1.23,0.63,2.21v5.12
		h-2.12V95.1c0-0.45-0.1-0.78-0.29-0.98c-0.2-0.2-0.52-0.3-0.97-0.3c-0.6,0-1.04,0.25-1.34,0.76v5.59h-2.12v-7.92H45.18z"/>
	<path d="M51.54,90.19c0-0.32,0.11-0.58,0.32-0.78c0.21-0.21,0.5-0.31,0.87-0.31c0.36,0,0.65,0.1,0.86,0.31s0.32,0.47,0.32,0.78
		c0,0.32-0.11,0.59-0.33,0.79c-0.22,0.21-0.5,0.31-0.86,0.31s-0.64-0.1-0.86-0.31S51.54,90.51,51.54,90.19z M53.79,100.17h-2.12
		v-7.92h2.12V100.17z"/>
	<path d="M56.04,100.17V93.8h-1.18v-1.55h1.18v-0.67c0-0.89,0.25-1.58,0.77-2.07c0.51-0.49,1.22-0.74,2.14-0.74
		c0.29,0,0.65,0.05,1.08,0.15L60,90.55c-0.18-0.04-0.39-0.07-0.64-0.07c-0.8,0-1.19,0.37-1.19,1.12v0.64h1.57v1.55h-1.57v6.37H56.04
		z"/>
	<path d="M60.74,90.19c0-0.32,0.11-0.58,0.32-0.78c0.21-0.21,0.5-0.31,0.87-0.31c0.36,0,0.65,0.1,0.86,0.31s0.32,0.47,0.32,0.78
		c0,0.32-0.11,0.59-0.33,0.79c-0.22,0.21-0.5,0.31-0.86,0.31s-0.64-0.1-0.86-0.31S60.74,90.51,60.74,90.19z M62.99,100.17h-2.12
		v-7.92h2.12V100.17z"/>
	<path d="M77.14,100.17h-2.2V95.6h-4.29v4.57h-2.2V89.5h2.2v4.32h4.29V89.5h2.2V100.17z"/>
	<path d="M78.51,96.13c0-0.79,0.15-1.49,0.45-2.1s0.74-1.09,1.31-1.43c0.57-0.34,1.23-0.5,1.98-0.5c1.07,0,1.94,0.33,2.62,0.98
		c0.68,0.65,1.05,1.54,1.13,2.67l0.01,0.54c0,1.22-0.34,2.19-1.02,2.93c-0.68,0.74-1.59,1.1-2.73,1.1s-2.05-0.37-2.74-1.1
		c-0.68-0.73-1.02-1.73-1.02-2.99V96.13z M80.63,96.28c0,0.75,0.14,1.33,0.42,1.73s0.69,0.6,1.22,0.6c0.51,0,0.91-0.2,1.2-0.59
		s0.43-1.02,0.43-1.89c0-0.74-0.14-1.31-0.43-1.72s-0.69-0.61-1.22-0.61c-0.52,0-0.92,0.2-1.2,0.61S80.63,95.44,80.63,96.28z"/>
	<path d="M89.24,92.24l0.07,0.89c0.56-0.69,1.32-1.03,2.28-1.03c1.02,0,1.72,0.4,2.1,1.21c0.56-0.8,1.35-1.21,2.38-1.21
		c0.86,0,1.5,0.25,1.92,0.75c0.42,0.5,0.63,1.25,0.63,2.26v5.06h-2.12v-5.05c0-0.45-0.09-0.78-0.26-0.99
		c-0.18-0.21-0.49-0.31-0.93-0.31c-0.63,0-1.07,0.3-1.32,0.91l0.01,5.44h-2.12v-5.05c0-0.46-0.09-0.79-0.27-1s-0.49-0.31-0.92-0.31
		c-0.6,0-1.04,0.25-1.3,0.75v5.6h-2.12v-7.92H89.24z"/>
	<path d="M103.81,100.31c-1.16,0-2.11-0.36-2.84-1.07c-0.73-0.71-1.09-1.66-1.09-2.85v-0.21c0-0.8,0.15-1.51,0.46-2.14
		c0.31-0.63,0.74-1.11,1.31-1.45c0.56-0.34,1.21-0.51,1.93-0.51c1.08,0,1.94,0.34,2.56,1.03c0.62,0.68,0.93,1.65,0.93,2.91v0.87
		h-5.05c0.07,0.52,0.27,0.93,0.62,1.24c0.34,0.31,0.78,0.47,1.31,0.47c0.82,0,1.45-0.29,1.91-0.89l1.04,1.17
		c-0.32,0.45-0.75,0.8-1.29,1.05C105.07,100.19,104.47,100.31,103.81,100.31z M103.57,93.8c-0.42,0-0.76,0.14-1.02,0.43
		c-0.26,0.29-0.43,0.69-0.5,1.22h2.94v-0.17c-0.01-0.47-0.14-0.83-0.38-1.09S104.02,93.8,103.57,93.8z"/>
</g>
</svg>
