<?xml version="1.0" encoding="utf-8"?>
<!-- Generator: Adobe Illustrator 27.0.0, SVG Export Plug-In . SVG Version: 6.00 Build 0)  -->
<svg version="1.1" id="Layer_1" xmlns="http://www.w3.org/2000/svg" xmlns:xlink="http://www.w3.org/1999/xlink" x="0px" y="0px"
	 viewBox="0 0 30 30" style="enable-background:new 0 0 30 30;" xml:space="preserve">
<style type="text/css">
	.st0{fill:#FF5E00;}
</style>
<g>
	<path class="st0" d="M22.4,27.5H7.6c-1.1,0-2-0.9-2-2v-21c0-1.1,0.9-2,2-2h10.9c0.5,0,1,0.2,1.4,0.6l4,4c0.4,0.4,0.6,0.9,0.6,1.4
		v17C24.4,26.6,23.5,27.5,22.4,27.5z M7.6,3.8c-0.4,0-0.7,0.3-0.7,0.7v21c0,0.4,0.3,0.7,0.7,0.7h14.8c0.4,0,0.7-0.3,0.7-0.7v-17
		c0-0.2-0.1-0.4-0.2-0.5L19,4c-0.1-0.1-0.3-0.2-0.5-0.2H7.6z"/>
	<path class="st0" d="M19.7,24.2h-9.4c-0.8,0-1.5-0.7-1.5-1.5v-6.9c0-0.8,0.7-1.5,1.5-1.5h9.3c0.8,0,1.5,0.7,1.5,1.5v6.9
		C21.2,23.5,20.5,24.2,19.7,24.2z M10.3,15.4c-0.2,0-0.3,0.1-0.3,0.3v6.9c0,0.2,0.1,0.3,0.3,0.3h9.4c0.2,0,0.3-0.1,0.3-0.3v-6.9
		c0-0.2-0.1-0.3-0.3-0.3H10.3z"/>
	<rect x="12.7" y="14.8" class="st0" width="1.2" height="8.7"/>
	<rect x="16.1" y="14.8" class="st0" width="1.2" height="8.7"/>
	<rect x="9.4" y="18.4" class="st0" width="3.9" height="1.2"/>
	<rect x="16.7" y="16.9" class="st0" width="3.9" height="1.2"/>
	<rect x="16.7" y="20.3" class="st0" width="3.9" height="1.2"/>
</g>
</svg>
