<svg width="30" height="30" viewBox="0 0 30 30" fill="none" xmlns="http://www.w3.org/2000/svg">
<g clip-path="url(#clip0)">
<mask id="path-1-inside-1" fill="white">
<ellipse cx="25.0003" cy="15.8333" rx="0.833333" ry="0.833334"/>
</mask>
<ellipse cx="25.0003" cy="15.8333" rx="0.833333" ry="0.833334" fill="#FF6624"/>
<path d="M24.8337 15.8333C24.8337 15.7413 24.9083 15.6667 25.0003 15.6667V17.6667C26.0128 17.6667 26.8337 16.8459 26.8337 15.8333H24.8337ZM25.0003 15.6667C25.0924 15.6667 25.167 15.7413 25.167 15.8333H23.167C23.167 16.8459 23.9878 17.6667 25.0003 17.6667V15.6667ZM25.167 15.8333C25.167 15.9254 25.0924 16 25.0003 16V14C23.9878 14 23.167 14.8208 23.167 15.8333H25.167ZM25.0003 16C24.9083 16 24.8337 15.9254 24.8337 15.8333H26.8337C26.8337 14.8208 26.0128 14 25.0003 14V16Z" fill="#FF6624" mask="url(#path-1-inside-1)"/>
<circle cx="25.0003" cy="19.1663" r="0.5" fill="#FF6624" stroke="#FF6624" stroke-width="0.666666"/>
<mask id="path-4-inside-2" fill="white">
<ellipse cx="25.0003" cy="22.4993" rx="0.833333" ry="0.833334"/>
</mask>
<ellipse cx="25.0003" cy="22.4993" rx="0.833333" ry="0.833334" fill="#FF6624"/>
<path d="M24.8337 22.4993C24.8337 22.4073 24.9083 22.3327 25.0003 22.3327V24.3327C26.0128 24.3327 26.8337 23.5119 26.8337 22.4993H24.8337ZM25.0003 22.3327C25.0924 22.3327 25.167 22.4073 25.167 22.4993H23.167C23.167 23.5119 23.9878 24.3327 25.0003 24.3327V22.3327ZM25.167 22.4993C25.167 22.5914 25.0924 22.666 25.0003 22.666V20.666C23.9878 20.666 23.167 21.4868 23.167 22.4993H25.167ZM25.0003 22.666C24.9083 22.666 24.8337 22.5914 24.8337 22.4993H26.8337C26.8337 21.4868 26.0128 20.666 25.0003 20.666V22.666Z" fill="#FF6624" mask="url(#path-4-inside-2)"/>
<path d="M20.2804 22.3549H3.2908C1.93223 22.3549 0.833496 21.2525 0.833496 19.8976V6.40653C0.833496 5.04795 1.93594 3.94922 3.2908 3.94922H21.5981C22.9567 3.94922 24.0554 5.05167 24.0554 6.40653V8.88054" stroke="#FF6624" stroke-width="2" stroke-miterlimit="10" stroke-linecap="round" stroke-linejoin="round"/>
<path d="M27.8929 26.666H22.1074C21.4036 26.666 20.8335 26.013 20.8335 25.2067V13.1253C20.8335 12.3191 21.4036 11.666 22.1074 11.666H27.8929C28.5967 11.666 29.1668 12.3191 29.1668 13.1253V25.2067C29.1668 26.013 28.5967 26.666 27.8929 26.666Z" stroke="#FF6624" stroke-width="2" stroke-miterlimit="10" stroke-linecap="round" stroke-linejoin="round"/>
<path d="M7.89355 26.0127H16.9952" stroke="#FF6624" stroke-width="1.9836" stroke-miterlimit="10" stroke-linecap="round" stroke-linejoin="round"/>
<path d="M14.3139 12.4651C14.9857 12.849 14.9857 13.8177 14.3139 14.2016L12.9167 15L11.4961 15.8117C10.8295 16.1927 10 15.7113 10 14.9435V13.3333V11.7232C10 10.9554 10.8295 10.474 11.4961 10.8549L12.9167 11.6667L14.3139 12.4651Z" fill="#FF6624"/>
</g>
<defs>
<clipPath id="clip0">
<rect width="30" height="30" fill="white"/>
</clipPath>
</defs>
</svg>
