<?xml version="1.0" encoding="utf-8"?>
<!-- Generator: Adobe Illustrator 27.0.0, SVG Export Plug-In . SVG Version: 6.00 Build 0)  -->
<svg version="1.1" id="Layer_1" xmlns="http://www.w3.org/2000/svg" xmlns:xlink="http://www.w3.org/1999/xlink" x="0px" y="0px"
	 viewBox="0 0 30 30" style="enable-background:new 0 0 30 30;" xml:space="preserve">
<style type="text/css">
	.st0{clip-path:url(#SVGID_00000152259196386893891270000015205678422730081471_);}
	.st1{fill:#1800E7;}
	.st2{fill:#FFFFFF;filter:url(#Adobe_OpacityMaskFilter);}
	.st3{mask:url(#path-1-inside-1_00000068677170728929683330000005099108997529983898_);fill:#1800E7;}
	.st4{fill:#FFFFFF;filter:url(#Adobe_OpacityMaskFilter_00000142154944292970698300000000158765912148282514_);}
	.st5{mask:url(#path-4-inside-2_00000080204619162374200890000001190748406985671073_);fill:#1800E7;}
</style>
<g>
	<defs>
		<rect id="SVGID_1_" width="30" height="30"/>
	</defs>
	<clipPath id="SVGID_00000177450602023527003650000002553933330681467299_">
		<use xlink:href="#SVGID_1_"  style="overflow:visible;"/>
	</clipPath>
	<g style="clip-path:url(#SVGID_00000177450602023527003650000002553933330681467299_);">
		<ellipse class="st1" cx="25" cy="15.8" rx="0.8" ry="0.8"/>
		<defs>
			<filter id="Adobe_OpacityMaskFilter" filterUnits="userSpaceOnUse" x="23.2" y="14" width="3.7" height="3.7">
				<feColorMatrix  type="matrix" values="1 0 0 0 0  0 1 0 0 0  0 0 1 0 0  0 0 0 1 0"/>
			</filter>
		</defs>
		
			<mask maskUnits="userSpaceOnUse" x="23.2" y="14" width="3.7" height="3.7" id="path-1-inside-1_00000068677170728929683330000005099108997529983898_">
			<ellipse class="st2" cx="25" cy="15.8" rx="0.8" ry="0.8"/>
		</mask>
		<path class="st3" d="M24.8,15.8c0-0.1,0.1-0.2,0.2-0.2v2c1,0,1.8-0.8,1.8-1.8H24.8z M25,15.7c0.1,0,0.2,0.1,0.2,0.2h-2
			c0,1,0.8,1.8,1.8,1.8V15.7z M25.2,15.8c0,0.1-0.1,0.2-0.2,0.2v-2c-1,0-1.8,0.8-1.8,1.8H25.2z M25,16c-0.1,0-0.2-0.1-0.2-0.2h2
			c0-1-0.8-1.8-1.8-1.8V16z"/>
		<g>
			<circle class="st1" cx="25" cy="19.2" r="0.5"/>
			<path class="st1" d="M25,20c-0.5,0-0.8-0.4-0.8-0.8s0.4-0.8,0.8-0.8s0.8,0.4,0.8,0.8S25.5,20,25,20z M25,19
				c-0.1,0-0.2,0.1-0.2,0.2c0,0.2,0.3,0.2,0.3,0C25.2,19.1,25.1,19,25,19z"/>
		</g>
		<ellipse class="st1" cx="25" cy="22.5" rx="0.8" ry="0.8"/>
		<defs>
			
				<filter id="Adobe_OpacityMaskFilter_00000096780519403837925990000002533442552671395458_" filterUnits="userSpaceOnUse" x="23.2" y="20.7" width="3.7" height="3.7">
				<feColorMatrix  type="matrix" values="1 0 0 0 0  0 1 0 0 0  0 0 1 0 0  0 0 0 1 0"/>
			</filter>
		</defs>
		
			<mask maskUnits="userSpaceOnUse" x="23.2" y="20.7" width="3.7" height="3.7" id="path-4-inside-2_00000080204619162374200890000001190748406985671073_">
			
				<ellipse style="fill:#FFFFFF;filter:url(#Adobe_OpacityMaskFilter_00000096780519403837925990000002533442552671395458_);" cx="25" cy="22.5" rx="0.8" ry="0.8"/>
		</mask>
		<path class="st5" d="M24.8,22.5c0-0.1,0.1-0.2,0.2-0.2v2c1,0,1.8-0.8,1.8-1.8H24.8z M25,22.3c0.1,0,0.2,0.1,0.2,0.2h-2
			c0,1,0.8,1.8,1.8,1.8V22.3z M25.2,22.5c0,0.1-0.1,0.2-0.2,0.2v-2c-1,0-1.8,0.8-1.8,1.8H25.2z M25,22.7c-0.1,0-0.2-0.1-0.2-0.2h2
			c0-1-0.8-1.8-1.8-1.8V22.7z"/>
		<path class="st1" d="M20.3,23.4h-17c-1.9,0-3.5-1.6-3.5-3.5V6.4c0-1.9,1.6-3.5,3.5-3.5h18.3c1.9,0,3.5,1.6,3.5,3.5v2.5
			c0,0.6-0.4,1-1,1s-1-0.4-1-1V6.4c0-0.8-0.7-1.5-1.5-1.5H3.3c-0.8,0-1.5,0.7-1.5,1.5v13.5c0,0.8,0.7,1.5,1.5,1.5h17
			c0.6,0,1,0.4,1,1S20.8,23.4,20.3,23.4z"/>
		<path class="st1" d="M27.9,27.7h-5.8c-1.3,0-2.3-1.1-2.3-2.5V13.1c0-1.4,1-2.5,2.3-2.5h5.8c1.3,0,2.3,1.1,2.3,2.5v12.1
			C30.2,26.6,29.1,27.7,27.9,27.7z M22.1,12.7c-0.1,0-0.3,0.2-0.3,0.5v12.1c0,0.3,0.2,0.5,0.3,0.5h5.8c0.1,0,0.3-0.2,0.3-0.5V13.1
			c0-0.3-0.2-0.5-0.3-0.5H22.1z"/>
		<path class="st1" d="M17,27H7.9c-0.5,0-1-0.4-1-1s0.4-1,1-1H17c0.5,0,1,0.4,1,1S17.5,27,17,27z"/>
		<path class="st1" d="M14.3,12.5c0.7,0.4,0.7,1.4,0,1.7L12.9,15l-1.4,0.8c-0.7,0.4-1.5-0.1-1.5-0.9v-1.6v-1.6
			c0-0.8,0.8-1.2,1.5-0.9l1.4,0.8L14.3,12.5z"/>
	</g>
</g>
</svg>
