<svg width="30" height="30" viewBox="0 0 30 30" fill="none" xmlns="http://www.w3.org/2000/svg">
<g clip-path="url(#clip0)">
<path d="M15.0001 19.435C15.0001 19.435 13.393 16.2207 10.7813 16.2207C8.96922 16.2207 7.5 17.6605 7.5 19.435C7.5 21.2096 8.96922 22.6494 10.7813 22.6494C11.8417 22.6494 12.8061 22.1145 13.5442 21.4323" stroke="#FF6624" stroke-width="2" stroke-miterlimit="10" stroke-linecap="round"/>
<path d="M15 19.435C15 19.435 16.6072 22.6494 19.2188 22.6494C21.0309 22.6494 22.5001 21.2096 22.5001 19.435C22.5001 17.6605 21.0309 16.2207 19.2188 16.2207C18.3508 16.2207 17.5471 16.5791 16.8792 17.0833C16.734 17.1929 16.5953 17.3094 16.4637 17.4307" stroke="#FF6624" stroke-width="2" stroke-miterlimit="10" stroke-linecap="round"/>
<path d="M14.4739 1.99242C14.7963 1.793 15.2037 1.793 15.5261 1.99242L27.1641 9.19155C28.0205 9.72136 27.6451 11.042 26.638 11.042H3.36201C2.3549 11.042 1.97946 9.72136 2.83594 9.19155L14.4739 1.99242Z" stroke="#FF6624" stroke-width="2"/>
<path d="M25.8332 11.25V26.3333C25.8332 27.4379 24.9377 28.3333 23.8332 28.3333H6.1665C5.06193 28.3333 4.1665 27.4379 4.1665 26.3333V13.6174" stroke="#FF6624" stroke-width="2" stroke-linecap="round"/>
</g>
<defs>
<clipPath id="clip0">
<rect width="30" height="30" fill="white"/>
</clipPath>
</defs>
</svg>
